<svg xmlns="http://www.w3.org/2000/svg" viewBox="0 0 1730 520">
  <!-- Primary lockup (client-approved 2026-07-23): cactus + single-line teal wordmark
       + tagline. All text outlined (Baloo 2 700 / Figtree 600) — no font dependencies. -->
  <g stroke-linejoin="round" stroke-linecap="round">
    <path d="M175 450 V318 H140 C112 318 95 300 95 272 V185 C95 171 106 160 120 160 C134 160 145 171 145 185 V250 C145 260 152 268 163 268 H175 V130 C175 92 204 65 240 65 C276 65 305 92 305 130 V240 H317 C328 240 335 232 335 222 V157 C335 143 346 132 360 132 C374 132 385 143 385 157 V244 C385 272 368 290 340 290 H305 V450 Z" fill="#52B250" stroke="#474747" stroke-width="12"/>
    <path d="M278 78 C295 90 305 108 305 130 V450 H262 C280 340 282 180 278 78 Z" fill="#069DB1" opacity="0.35"/>
    <g fill="#417BD3">
      <ellipse cx="205" cy="120" rx="7" ry="3" transform="rotate(-30 205 120)"/>
      <ellipse cx="262" cy="150" rx="7" ry="3" transform="rotate(25 262 150)"/>
      <ellipse cx="196" cy="315" rx="7" ry="3" transform="rotate(-20 196 315)"/>
      <ellipse cx="252" cy="352" rx="7" ry="3" transform="rotate(30 252 352)"/>
      <ellipse cx="210" cy="410" rx="7" ry="3" transform="rotate(-30 210 410)"/>
      <ellipse cx="120" cy="205" rx="6" ry="2.6" transform="rotate(-25 120 205)"/>
      <ellipse cx="118" cy="262" rx="6" ry="2.6" transform="rotate(20 118 262)"/>
      <ellipse cx="360" cy="180" rx="6" ry="2.6" transform="rotate(25 360 180)"/>
      <ellipse cx="362" cy="238" rx="6" ry="2.6" transform="rotate(-20 362 238)"/>
    </g>
    <g fill="#C5D630">
      <circle cx="120" cy="137" r="8"/><circle cx="130.5" cy="144.5" r="8"/><circle cx="126.5" cy="157" r="8"/><circle cx="113.5" cy="157" r="8"/><circle cx="109.5" cy="144.5" r="8"/>
    </g>
    <circle cx="120" cy="148" r="5.5" fill="#798BC5"/>
    <g fill="#798BC5">
      <circle cx="360" cy="109" r="8"/><circle cx="370.5" cy="116.5" r="8"/><circle cx="366.5" cy="129" r="8"/><circle cx="353.5" cy="129" r="8"/><circle cx="349.5" cy="116.5" r="8"/>
    </g>
    <circle cx="360" cy="120" r="5.5" fill="#C5D630"/>
    <path d="M196 202 Q211 184 226 202" fill="none" stroke="#474747" stroke-width="10"/>
    <path d="M254 202 Q269 184 284 202" fill="none" stroke="#474747" stroke-width="10"/>
    <path d="M197 236 C210 272 270 272 283 236 Z" fill="#FFFFFF" stroke="#474747" stroke-width="9"/>
    <line x1="118" y1="456" x2="362" y2="456" stroke="#474747" stroke-width="12"/>
  </g>
  <g fill="#069DB1">
<path transform="translate(470.00,255.00) scale(0.110000,-0.110000)" d="M409 17Q397 7 371 -1Q345 -9 314 -9Q279 -9 252 2Q225 13 216 32Q201 61 181.5 108.5Q162 156 139.5 215.5Q117 275 94.5 338.5Q72 402 53 464Q34 526 20 577Q32 589 55 599.5Q78 610 105 610Q138 610 158 596Q178 582 187 546Q218 440 249 342.5Q280 245 315 142L320 142Q341 207 362.5 282Q384 357 405.5 436.5Q427 516 446 593Q461 600 479 605Q497 610 518 610Q551 610 573.5 595.5Q596 581 596 548Q596 528 585.5 486.5Q575 445 557.5 390.5Q540 336 519.5 278.5Q499 221 478 168Q457 115 438.5 75Q420 35 409 17Z"/>
<path transform="translate(536.63,255.00) scale(0.110000,-0.110000)" d="M255 95Q278 95 300.5 99.5Q323 104 333 110L333 206L249 198Q215 196 195 184Q175 172 175 148Q175 124 194 109.5Q213 95 255 95ZM249 495Q353 495 415 451.5Q477 408 477 317L477 90Q477 65 464 49.5Q451 34 431 23Q401 5 356.5 -5.5Q312 -16 255 -16Q153 -16 92.5 24Q32 64 32 143Q32 211 74 247.5Q116 284 199 292L332 306L332 318Q332 352 305.5 367Q279 382 230 382Q192 382 155.5 373Q119 364 90 352Q78 360 69.5 376.5Q61 393 61 411Q61 453 107 472Q136 484 174.5 489.5Q213 495 249 495Z"/>
<path transform="translate(595.29,255.00) scale(0.110000,-0.110000)" d="M63 264L212 261L212 1Q202 -2 184 -4.5Q166 -7 145 -7Q103 -7 83 8Q63 23 63 62ZM212 184L63 187L63 651Q73 654 91 657Q109 660 130 660Q173 660 192.5 645Q212 630 212 590Z"/>
<path transform="translate(625.60,255.00) scale(0.110000,-0.110000)" d="M63 264L212 261L212 1Q202 -2 184 -4.5Q166 -7 145 -7Q103 -7 83 8Q63 23 63 62ZM212 184L63 187L63 651Q73 654 91 657Q109 660 130 660Q173 660 192.5 645Q212 630 212 590Z"/>
<path transform="translate(655.84,255.00) scale(0.110000,-0.110000)" d="M127 170L121 270L369 309Q367 337 345 361Q323 385 280 385Q235 385 205 354.5Q175 324 173 268L178 199Q187 144 225 120.5Q263 97 315 97Q357 97 394 109Q431 121 454 134Q469 125 478.5 109Q488 93 488 75Q488 45 464.5 25Q441 5 399.5 -5Q358 -15 305 -15Q228 -15 166.5 14Q105 43 70 101Q35 159 35 246Q35 310 55.5 357Q76 404 110.5 434.5Q145 465 188.5 480Q232 495 279 495Q348 495 399.5 467.5Q451 440 480 393Q509 346 509 284Q509 253 492 237Q475 221 445 217Z"/>
<path transform="translate(715.00,255.00) scale(0.110000,-0.110000)" d="M138 119Q122 152 103.5 199Q85 246 65 310Q45 374 22 458Q35 471 55.5 480.5Q76 490 100 490Q131 490 151 477Q171 464 181 428Q204 355 227 283Q250 211 274 138L278 138Q295 183 312.5 240Q330 297 345 357.5Q360 418 371 474Q385 481 401 485.5Q417 490 434 490Q465 490 487.5 476.5Q510 463 510 431Q510 403 501.5 362Q493 321 479 273.5Q465 226 446 176.5Q427 127 406.5 81Q386 35 365 -2Q311 -96 265.5 -142.5Q220 -189 175 -189Q139 -189 115.5 -167Q92 -145 87 -111Q109 -93 132 -69.5Q155 -46 176 -19.5Q197 7 213 33Q196 38 178 55Q160 72 138 119Z"/>
<path transform="translate(795.97,255.00) scale(0.110000,-0.110000)" d="M222 315L282 315Q333 315 362.5 339Q392 363 392 408Q392 453 364 476Q336 499 283 499Q265 499 250.5 498Q236 497 222 495ZM292 195L71 195L71 553Q71 572 82 583Q93 594 111 600Q144 612 190 617Q236 622 273 622Q408 622 477.5 564.5Q547 507 547 408Q547 344 516.5 296Q486 248 429 221.5Q372 195 292 195ZM71 262L223 262L223 1Q214 -2 194 -4.5Q174 -7 153 -7Q108 -7 89.5 9Q71 25 71 65Z"/>
<path transform="translate(857.31,255.00) scale(0.110000,-0.110000)" d="M127 170L121 270L369 309Q367 337 345 361Q323 385 280 385Q235 385 205 354.5Q175 324 173 268L178 199Q187 144 225 120.5Q263 97 315 97Q357 97 394 109Q431 121 454 134Q469 125 478.5 109Q488 93 488 75Q488 45 464.5 25Q441 5 399.5 -5Q358 -15 305 -15Q228 -15 166.5 14Q105 43 70 101Q35 159 35 246Q35 310 55.5 357Q76 404 110.5 434.5Q145 465 188.5 480Q232 495 279 495Q348 495 399.5 467.5Q451 440 480 393Q509 346 509 284Q509 253 492 237Q475 221 445 217Z"/>
<path transform="translate(916.91,255.00) scale(0.110000,-0.110000)" d="M369 119L369 420L517 420L517 100Q517 76 507 59.5Q497 43 475 30Q448 12 404.5 -1.5Q361 -15 304 -15Q221 -15 160.5 13Q100 41 67.5 97.5Q35 154 35 238Q35 326 68.5 382.5Q102 439 159 467Q216 495 285 495Q321 495 349 487Q377 479 395 468L395 346Q381 358 358 368Q335 378 305 378Q270 378 243 363Q216 348 201 317Q186 286 186 238Q186 168 217.5 135Q249 102 303 102Q325 102 342 107.5Q359 113 369 119ZM517 391L369 390L369 651Q378 654 396 657Q414 660 435 660Q479 660 498 645Q517 630 517 590Z"/>
<path transform="translate(980.34,255.00) scale(0.110000,-0.110000)" d="M53 618Q53 652 76.5 675Q100 698 136 698Q173 698 196 675Q219 652 219 618Q219 585 196 561Q173 537 136 537Q100 537 76.5 561Q53 585 53 618ZM62 264L210 264L210 1Q201 -2 183 -4.5Q165 -7 144 -7Q101 -7 81.5 8Q62 23 62 62ZM210 187L62 187L62 474Q71 477 89.5 480Q108 483 129 483Q172 483 191 468.5Q210 454 210 413Z"/>
<path transform="translate(1010.28,255.00) scale(0.110000,-0.110000)" d="M255 95Q278 95 300.5 99.5Q323 104 333 110L333 206L249 198Q215 196 195 184Q175 172 175 148Q175 124 194 109.5Q213 95 255 95ZM249 495Q353 495 415 451.5Q477 408 477 317L477 90Q477 65 464 49.5Q451 34 431 23Q401 5 356.5 -5.5Q312 -16 255 -16Q153 -16 92.5 24Q32 64 32 143Q32 211 74 247.5Q116 284 199 292L332 306L332 318Q332 352 305.5 367Q279 382 230 382Q192 382 155.5 373Q119 364 90 352Q78 360 69.5 376.5Q61 393 61 411Q61 453 107 472Q136 484 174.5 489.5Q213 495 249 495Z"/>
<path transform="translate(1068.93,255.00) scale(0.110000,-0.110000)" d="M59 264L206 264L206 157Q206 129 224 116Q242 103 275 103Q290 103 307.5 106.5Q325 110 337 115Q345 106 351.5 93Q358 80 358 63Q358 29 330 7Q302 -15 236 -15Q152 -15 105.5 23Q59 61 59 147ZM153 355L153 469L345 469Q350 461 355 446Q360 431 360 413Q360 383 346.5 369Q333 355 310 355ZM206 239L59 239L59 598Q69 601 87 604.5Q105 608 125 608Q168 608 187 593Q206 578 206 538Z"/>
<path transform="translate(1111.94,255.00) scale(0.110000,-0.110000)" d="M206 351L206 226L58 226L58 369Q58 397 71.5 416.5Q85 436 109 451Q142 471 188.5 482.5Q235 494 286 494Q388 494 388 426Q388 410 383.5 396Q379 382 373 372Q363 374 348.5 375.5Q334 377 317 377Q287 377 257 370Q227 363 206 351ZM58 264L206 261L206 1Q196 -2 178 -4.5Q160 -7 139 -7Q97 -7 77.5 8Q58 23 58 62Z"/>
<path transform="translate(1156.38,255.00) scale(0.110000,-0.110000)" d="M53 618Q53 652 76.5 675Q100 698 136 698Q173 698 196 675Q219 652 219 618Q219 585 196 561Q173 537 136 537Q100 537 76.5 561Q53 585 53 618ZM62 264L210 264L210 1Q201 -2 183 -4.5Q165 -7 144 -7Q101 -7 81.5 8Q62 23 62 62ZM210 187L62 187L62 474Q71 477 89.5 480Q108 483 129 483Q172 483 191 468.5Q210 454 210 413Z"/>
<path transform="translate(1186.32,255.00) scale(0.110000,-0.110000)" d="M317 377Q263 377 224.5 341.5Q186 306 186 238Q186 171 223 137Q260 103 316 103Q349 103 373.5 111.5Q398 120 416 130Q433 118 442 103.5Q451 89 451 68Q451 31 411 8Q371 -15 300 -15Q221 -15 161 13.5Q101 42 68 99Q35 156 35 238Q35 325 71 381.5Q107 438 166.5 466.5Q226 495 296 495Q365 495 404.5 470Q444 445 444 408Q444 390 435.5 375.5Q427 361 416 350Q397 360 372.5 368.5Q348 377 317 377Z"/>
<path transform="translate(1261.82,255.00) scale(0.110000,-0.110000)" d="M466 303Q466 207 418.5 158Q371 109 292 109Q275 109 256 110.5Q237 112 222 115L222 494Q239 496 255.5 497.5Q272 499 290 499Q342 499 381.5 477.5Q421 456 443.5 413Q466 370 466 303ZM623 306Q623 413 580 483Q537 553 460.5 587.5Q384 622 281 622Q243 622 197 618Q151 614 111 601Q93 594 82 583.5Q71 573 71 553L71 75Q71 27 123 8Q162 -6 210 -10.5Q258 -15 291 -15Q391 -15 465.5 20.5Q540 56 581.5 127Q623 198 623 306Z"/>
<path transform="translate(1334.76,255.00) scale(0.110000,-0.110000)" d="M127 170L121 270L369 309Q367 337 345 361Q323 385 280 385Q235 385 205 354.5Q175 324 173 268L178 199Q187 144 225 120.5Q263 97 315 97Q357 97 394 109Q431 121 454 134Q469 125 478.5 109Q488 93 488 75Q488 45 464.5 25Q441 5 399.5 -5Q358 -15 305 -15Q228 -15 166.5 14Q105 43 70 101Q35 159 35 246Q35 310 55.5 357Q76 404 110.5 434.5Q145 465 188.5 480Q232 495 279 495Q348 495 399.5 467.5Q451 440 480 393Q509 346 509 284Q509 253 492 237Q475 221 445 217Z"/>
<path transform="translate(1394.36,255.00) scale(0.110000,-0.110000)" d="M517 311L517 217L368 217L368 306Q368 343 346.5 360.5Q325 378 290 378Q265 378 244 371.5Q223 365 206 356L206 217L58 217L58 373Q58 398 68.5 414.5Q79 431 99 444Q131 466 181 480.5Q231 495 291 495Q399 495 458 447.5Q517 400 517 311ZM58 263L206 263L206 1Q196 -2 178 -4.5Q160 -7 139 -7Q97 -7 77.5 8Q58 23 58 62ZM368 263L517 263L517 1Q507 -2 489 -4.5Q471 -7 450 -7Q408 -7 388 8Q368 23 368 62Z"/>
<path transform="translate(1457.62,255.00) scale(0.110000,-0.110000)" d="M59 264L206 264L206 157Q206 129 224 116Q242 103 275 103Q290 103 307.5 106.5Q325 110 337 115Q345 106 351.5 93Q358 80 358 63Q358 29 330 7Q302 -15 236 -15Q152 -15 105.5 23Q59 61 59 147ZM153 355L153 469L345 469Q350 461 355 446Q360 431 360 413Q360 383 346.5 369Q333 355 310 355ZM206 239L59 239L59 598Q69 601 87 604.5Q105 608 125 608Q168 608 187 593Q206 578 206 538Z"/>
<path transform="translate(1500.63,255.00) scale(0.110000,-0.110000)" d="M53 618Q53 652 76.5 675Q100 698 136 698Q173 698 196 675Q219 652 219 618Q219 585 196 561Q173 537 136 537Q100 537 76.5 561Q53 585 53 618ZM62 264L210 264L210 1Q201 -2 183 -4.5Q165 -7 144 -7Q101 -7 81.5 8Q62 23 62 62ZM210 187L62 187L62 474Q71 477 89.5 480Q108 483 129 483Q172 483 191 468.5Q210 454 210 413Z"/>
<path transform="translate(1530.57,255.00) scale(0.110000,-0.110000)" d="M447 140Q447 67 392 25.5Q337 -16 232 -16Q150 -16 97 8Q44 32 44 79Q44 100 53 115.5Q62 131 76 140Q104 124 141.5 110.5Q179 97 227 97Q300 97 300 139Q300 157 287 167.5Q274 178 244 183L202 193Q122 210 82.5 245.5Q43 281 43 343Q43 413 99.5 454.5Q156 496 252 496Q300 496 339.5 486.5Q379 477 402 457.5Q425 438 425 409Q425 389 417 374Q409 359 396 349Q385 356 362.5 364Q340 372 313.5 377Q287 382 264 382Q228 382 208 372.5Q188 363 188 343Q188 330 199.5 320.5Q211 311 240 305L280 295Q369 275 408 237.5Q447 200 447 140Z"/>
<path transform="translate(1583.50,255.00) scale(0.110000,-0.110000)" d="M59 264L206 264L206 157Q206 129 224 116Q242 103 275 103Q290 103 307.5 106.5Q325 110 337 115Q345 106 351.5 93Q358 80 358 63Q358 29 330 7Q302 -15 236 -15Q152 -15 105.5 23Q59 61 59 147ZM153 355L153 469L345 469Q350 461 355 446Q360 431 360 413Q360 383 346.5 369Q333 355 310 355ZM206 239L59 239L59 598Q69 601 87 604.5Q105 608 125 608Q168 608 187 593Q206 578 206 538Z"/>
<path transform="translate(1626.69,255.00) scale(0.110000,-0.110000)" d="M447 140Q447 67 392 25.5Q337 -16 232 -16Q150 -16 97 8Q44 32 44 79Q44 100 53 115.5Q62 131 76 140Q104 124 141.5 110.5Q179 97 227 97Q300 97 300 139Q300 157 287 167.5Q274 178 244 183L202 193Q122 210 82.5 245.5Q43 281 43 343Q43 413 99.5 454.5Q156 496 252 496Q300 496 339.5 486.5Q379 477 402 457.5Q425 438 425 409Q425 389 417 374Q409 359 396 349Q385 356 362.5 364Q340 372 313.5 377Q287 382 264 382Q228 382 208 372.5Q188 363 188 343Q188 330 199.5 320.5Q211 311 240 305L280 295Q369 275 408 237.5Q447 200 447 140Z"/>
</g>
  <g fill="#52B250">
<path transform="translate(474.00,340.00) scale(0.040000,-0.040000)" d="M386 -12Q285 -12 206.5 34.5Q128 81 83.5 162.5Q39 244 39 350Q39 456 83.5 537.5Q128 619 206 665.5Q284 712 385 712Q453 712 513 687.5Q573 663 619.5 620Q666 577 691 520L585 477Q567 515 536.5 544.5Q506 574 467 590Q428 606 385 606Q319 606 267.5 573Q216 540 186.5 482.5Q157 425 157 350Q157 275 186.5 217Q216 159 268.5 126Q321 93 388 93Q432 93 470.5 110.5Q509 128 539.5 159Q570 190 588 231L694 188Q669 129 623 83.5Q577 38 516 13Q455 -12 386 -12Z"/>
<path transform="translate(516.93,340.00) scale(0.040000,-0.040000)" d="M83 0L83 700L330 700Q402 700 457 672Q512 644 543 594.5Q574 545 574 480Q574 411 536 358.5Q498 306 436 281L602 0L471 0L321 259Q315 258 308.5 258Q302 258 295 258L199 258L199 0ZM199 365L335 365Q369 365 395.5 380Q422 395 438.5 421Q455 447 455 480Q455 530 419 562Q383 594 326 594L199 594Z"/>
<path transform="translate(556.43,340.00) scale(0.040000,-0.040000)" d="M83 0L83 700L514 700L514 594L199 594L199 408L477 408L477 304L199 304L199 106L517 106L517 0Z"/>
<path transform="translate(594.03,340.00) scale(0.040000,-0.040000)" d="M9 0L288 700L411 700L691 0L568 0L499 172L200 172L132 0ZM239 275L460 275L350 555Z"/>
<path transform="translate(636.00,340.00) scale(0.040000,-0.040000)" d="M228 0L228 594L13 594L13 700L559 700L559 594L344 594L344 0Z"/>
<path transform="translate(672.87,340.00) scale(0.040000,-0.040000)" d="M83 0L83 700L199 700L199 0Z"/>
<path transform="translate(698.14,340.00) scale(0.040000,-0.040000)" d="M83 0L83 700L203 700L575 194L575 700L691 700L691 0L575 0L199 512L199 0Z"/>
<path transform="translate(743.08,340.00) scale(0.040000,-0.040000)" d="M404 -12Q298 -12 215.5 34.5Q133 81 86 162.5Q39 244 39 349Q39 456 86 537.5Q133 619 215.5 665.5Q298 712 404 712Q465 712 518.5 693Q572 674 615 641.5Q658 609 685 566L591 506Q572 535 542 558Q512 581 476.5 593.5Q441 606 404 606Q332 606 276.5 573Q221 540 189 482.5Q157 425 157 349Q157 275 188.5 217Q220 159 276.5 126Q333 93 407 93Q464 93 509 116Q554 139 580.5 180Q607 221 609 274L442 274L442 368L721 368L721 290Q719 197 678.5 129Q638 61 567 24.5Q496 -12 404 -12Z"/>
<path transform="translate(810.73,340.00) scale(0.040000,-0.040000)" d="M83 0L83 700L199 700L199 412L551 412L551 700L667 700L667 0L551 0L551 306L199 306L199 0Z"/>
<path transform="translate(854.74,340.00) scale(0.040000,-0.040000)" d="M9 0L288 700L411 700L691 0L568 0L499 172L200 172L132 0ZM239 275L460 275L350 555Z"/>
<path transform="translate(896.72,340.00) scale(0.040000,-0.040000)" d="M83 0L83 700L330 700Q402 700 457 671Q512 642 543 590.5Q574 539 574 471Q574 405 545 353Q516 301 464.5 271.5Q413 242 345 242L199 242L199 0ZM199 349L343 349Q393 349 425 383Q457 417 457 471Q457 526 421 560Q385 594 328 594L199 594Z"/>
<path transform="translate(934.46,340.00) scale(0.040000,-0.040000)" d="M83 0L83 700L330 700Q402 700 457 671Q512 642 543 590.5Q574 539 574 471Q574 405 545 353Q516 301 464.5 271.5Q413 242 345 242L199 242L199 0ZM199 349L343 349Q393 349 425 383Q457 417 457 471Q457 526 421 560Q385 594 328 594L199 594Z"/>
<path transform="translate(972.21,340.00) scale(0.040000,-0.040000)" d="M257 0L257 294L8 700L141 700L315 411L489 700L622 700L373 295L373 0Z"/>
<path transform="translate(1035.07,340.00) scale(0.040000,-0.040000)" d="M313 -12Q258 -12 212.5 1Q167 14 132.5 37Q98 60 75.5 88.5Q53 117 44 148L158 183Q171 146 209 118Q247 90 303 89Q368 89 406 116Q444 143 444 187Q444 227 412 252.5Q380 278 326 292L240 314Q191 327 151.5 352Q112 377 89.5 415Q67 453 67 505Q67 603 131 657.5Q195 712 314 712Q381 712 431.5 691.5Q482 671 515 635.5Q548 600 564 555L452 519Q437 559 400 585Q363 611 308 611Q251 611 218.5 584Q186 557 186 509Q186 470 211.5 448.5Q237 427 281 416L367 395Q461 372 513 316Q565 260 565 192Q565 132 536 86Q507 40 450.5 14Q394 -12 313 -12Z"/>
<path transform="translate(1073.46,340.00) scale(0.040000,-0.040000)" d="M83 0L83 700L207 700L427 376L645 700L770 700L770 0L654 0L654 517L426 180L199 515L199 0Z"/>
<path transform="translate(1121.56,340.00) scale(0.040000,-0.040000)" d="M83 0L83 700L199 700L199 0Z"/>
<path transform="translate(1146.83,340.00) scale(0.040000,-0.040000)" d="M83 0L83 700L199 700L199 106L516 106L516 0Z"/>
<path transform="translate(1182.04,340.00) scale(0.040000,-0.040000)" d="M83 0L83 700L514 700L514 594L199 594L199 408L477 408L477 304L199 304L199 106L517 106L517 0Z"/>
<path transform="translate(1219.64,340.00) scale(0.040000,-0.040000)" d="M313 -12Q258 -12 212.5 1Q167 14 132.5 37Q98 60 75.5 88.5Q53 117 44 148L158 183Q171 146 209 118Q247 90 303 89Q368 89 406 116Q444 143 444 187Q444 227 412 252.5Q380 278 326 292L240 314Q191 327 151.5 352Q112 377 89.5 415Q67 453 67 505Q67 603 131 657.5Q195 712 314 712Q381 712 431.5 691.5Q482 671 515 635.5Q548 600 564 555L452 519Q437 559 400 585Q363 611 308 611Q251 611 218.5 584Q186 557 186 509Q186 470 211.5 448.5Q237 427 281 416L367 395Q461 372 513 316Q565 260 565 192Q565 132 536 86Q507 40 450.5 14Q394 -12 313 -12Z"/>
</g>
</svg>