<svg xmlns="http://www.w3.org/2000/svg" viewBox="0 0 1060 400">
  <!-- Horizontal wordmark, no icon. Text outlined (Baloo 2) — no font dependencies. -->
  <g fill="#474747">
<path transform="translate(40.00,180.00) scale(0.150000,-0.150000)" d="M409 17Q397 7 371 -1Q345 -9 314 -9Q279 -9 252 2Q225 13 216 32Q201 61 181.5 108.5Q162 156 139.5 215.5Q117 275 94.5 338.5Q72 402 53 464Q34 526 20 577Q32 589 55 599.5Q78 610 105 610Q138 610 158 596Q178 582 187 546Q218 440 249 342.5Q280 245 315 142L320 142Q341 207 362.5 282Q384 357 405.5 436.5Q427 516 446 593Q461 600 479 605Q497 610 518 610Q551 610 573.5 595.5Q596 581 596 548Q596 528 585.5 486.5Q575 445 557.5 390.5Q540 336 519.5 278.5Q499 221 478 168Q457 115 438.5 75Q420 35 409 17Z"/>
<path transform="translate(130.86,180.00) scale(0.150000,-0.150000)" d="M255 95Q278 95 300.5 99.5Q323 104 333 110L333 206L249 198Q215 196 195 184Q175 172 175 148Q175 124 194 109.5Q213 95 255 95ZM249 495Q353 495 415 451.5Q477 408 477 317L477 90Q477 65 464 49.5Q451 34 431 23Q401 5 356.5 -5.5Q312 -16 255 -16Q153 -16 92.5 24Q32 64 32 143Q32 211 74 247.5Q116 284 199 292L332 306L332 318Q332 352 305.5 367Q279 382 230 382Q192 382 155.5 373Q119 364 90 352Q78 360 69.5 376.5Q61 393 61 411Q61 453 107 472Q136 484 174.5 489.5Q213 495 249 495Z"/>
<path transform="translate(210.84,180.00) scale(0.150000,-0.150000)" d="M63 264L212 261L212 1Q202 -2 184 -4.5Q166 -7 145 -7Q103 -7 83 8Q63 23 63 62ZM212 184L63 187L63 651Q73 654 91 657Q109 660 130 660Q173 660 192.5 645Q212 630 212 590Z"/>
<path transform="translate(252.18,180.00) scale(0.150000,-0.150000)" d="M63 264L212 261L212 1Q202 -2 184 -4.5Q166 -7 145 -7Q103 -7 83 8Q63 23 63 62ZM212 184L63 187L63 651Q73 654 91 657Q109 660 130 660Q173 660 192.5 645Q212 630 212 590Z"/>
<path transform="translate(293.42,180.00) scale(0.150000,-0.150000)" d="M127 170L121 270L369 309Q367 337 345 361Q323 385 280 385Q235 385 205 354.5Q175 324 173 268L178 199Q187 144 225 120.5Q263 97 315 97Q357 97 394 109Q431 121 454 134Q469 125 478.5 109Q488 93 488 75Q488 45 464.5 25Q441 5 399.5 -5Q358 -15 305 -15Q228 -15 166.5 14Q105 43 70 101Q35 159 35 246Q35 310 55.5 357Q76 404 110.5 434.5Q145 465 188.5 480Q232 495 279 495Q348 495 399.5 467.5Q451 440 480 393Q509 346 509 284Q509 253 492 237Q475 221 445 217Z"/>
<path transform="translate(374.09,180.00) scale(0.150000,-0.150000)" d="M138 119Q122 152 103.5 199Q85 246 65 310Q45 374 22 458Q35 471 55.5 480.5Q76 490 100 490Q131 490 151 477Q171 464 181 428Q204 355 227 283Q250 211 274 138L278 138Q295 183 312.5 240Q330 297 345 357.5Q360 418 371 474Q385 481 401 485.5Q417 490 434 490Q465 490 487.5 476.5Q510 463 510 431Q510 403 501.5 362Q493 321 479 273.5Q465 226 446 176.5Q427 127 406.5 81Q386 35 365 -2Q311 -96 265.5 -142.5Q220 -189 175 -189Q139 -189 115.5 -167Q92 -145 87 -111Q109 -93 132 -69.5Q155 -46 176 -19.5Q197 7 213 33Q196 38 178 55Q160 72 138 119Z"/>
</g>
  <g fill="#069DB1">
<path transform="translate(44.00,290.00) scale(0.092000,-0.092000)" d="M203 304L277 304Q338 304 373 331.5Q408 359 408 412Q408 466 374.5 492Q341 518 279 518Q257 518 238 516.5Q219 515 203 512ZM284 203L77 203L77 557Q77 575 87.5 585Q98 595 115 601Q147 611 191 616Q235 621 273 621Q405 621 470.5 565Q536 509 536 413Q536 349 507 302Q478 255 422 229Q366 203 284 203ZM77 260L204 260L204 2Q196 -1 179.5 -3.5Q163 -6 145 -6Q109 -6 93 7.5Q77 21 77 53Z"/>
<path transform="translate(94.94,290.00) scale(0.092000,-0.092000)" d="M118 174L113 260L381 300Q378 338 352 366Q326 394 276 394Q225 394 191 358.5Q157 323 156 257L159 205Q168 141 208.5 111Q249 81 311 81Q353 81 389 93.5Q425 106 446 121Q460 112 468.5 98.5Q477 85 477 69Q477 43 454 24.5Q431 6 392 -4Q353 -14 303 -14Q226 -14 166.5 14.5Q107 43 73.5 100Q40 157 40 242Q40 303 59 349Q78 395 110.5 425.5Q143 456 186 471.5Q229 487 276 487Q342 487 391.5 460.5Q441 434 469.5 387Q498 340 498 279Q498 251 483.5 237.5Q469 224 443 221Z"/>
<path transform="translate(144.01,290.00) scale(0.092000,-0.092000)" d="M377 104L377 418L500 418L500 91Q500 69 490.5 54.5Q481 40 460 27Q436 11 394.5 -1.5Q353 -14 300 -14Q221 -14 162.5 12.5Q104 39 72 94.5Q40 150 40 235Q40 322 72.5 378Q105 434 160 460.5Q215 487 282 487Q319 487 349.5 478Q380 469 399 457L399 352Q383 367 357 378Q331 389 297 389Q260 389 230 373.5Q200 358 183 323.5Q166 289 166 234Q166 156 202 120Q238 84 299 84Q326 84 345 90Q364 96 377 104ZM500 393L377 392L377 650Q384 652 399.5 655Q415 658 432 658Q468 658 484 645.5Q500 633 500 601Z"/>
<path transform="translate(196.06,290.00) scale(0.092000,-0.092000)" d="M58 614Q58 643 78.5 663Q99 683 130 683Q162 683 181.5 663Q201 643 201 614Q201 586 181.5 565.5Q162 545 130 545Q99 545 78.5 565.5Q58 586 58 614ZM68 264L192 264L192 2Q184 -1 169 -3.5Q154 -6 136 -6Q102 -6 85 6.5Q68 19 68 51ZM192 201L68 201L68 469Q76 472 91.5 474.5Q107 477 125 477Q160 477 176 464.5Q192 452 192 419Z"/>
<path transform="translate(220.04,290.00) scale(0.092000,-0.092000)" d="M250 79Q280 79 304 85Q328 91 339 98L339 212L240 202Q199 199 177.5 184.5Q156 170 156 142Q156 113 179 96Q202 79 250 79ZM245 487Q343 487 401 445.5Q459 404 459 315L459 85Q459 61 447.5 47Q436 33 418 22Q390 6 347 -4.5Q304 -15 250 -15Q150 -15 93 23.5Q36 62 36 138Q36 205 78.5 240.5Q121 276 202 284L338 298L338 316Q338 356 310.5 374Q283 392 233 392Q194 392 157 382Q120 372 91 358Q81 366 73 380Q65 394 65 409Q65 445 105 462Q133 475 170.5 481Q208 487 245 487Z"/>
<path transform="translate(267.94,290.00) scale(0.092000,-0.092000)" d="M65 264L188 264L188 146Q188 113 207.5 99Q227 85 263 85Q279 85 297.5 89Q316 93 329 99Q336 91 342 80Q348 69 348 53Q348 24 320.5 5Q293 -14 235 -14Q156 -14 110.5 21.5Q65 57 65 137ZM140 366L140 463L336 463Q340 456 344.5 443Q349 430 349 416Q349 391 337 378.5Q325 366 306 366ZM188 237L65 237L65 597Q73 600 88.5 603Q104 606 121 606Q156 606 172 593.5Q188 581 188 549Z"/>
<path transform="translate(303.27,290.00) scale(0.092000,-0.092000)" d="M187 360L187 223L64 223L64 370Q64 395 76 412.5Q88 430 110 445Q140 463 186 475Q232 487 285 487Q379 487 379 429Q379 415 375 403.5Q371 392 365 383Q355 385 340 386.5Q325 388 308 388Q272 388 240.5 380.5Q209 373 187 360ZM64 264L187 258L187 2Q179 -1 164 -3.5Q149 -6 131 -6Q97 -6 80.5 6.5Q64 19 64 51Z"/>
<path transform="translate(339.69,290.00) scale(0.092000,-0.092000)" d="M58 614Q58 643 78.5 663Q99 683 130 683Q162 683 181.5 663Q201 643 201 614Q201 586 181.5 565.5Q162 545 130 545Q99 545 78.5 565.5Q58 586 58 614ZM68 264L192 264L192 2Q184 -1 169 -3.5Q154 -6 136 -6Q102 -6 85 6.5Q68 19 68 51ZM192 201L68 201L68 469Q76 472 91.5 474.5Q107 477 125 477Q160 477 176 464.5Q192 452 192 419Z"/>
<path transform="translate(363.67,290.00) scale(0.092000,-0.092000)" d="M307 388Q247 388 206.5 349Q166 310 166 235Q166 161 205 123Q244 85 306 85Q343 85 368.5 94.5Q394 104 413 115Q428 106 436.5 93.5Q445 81 445 63Q445 29 404 7.5Q363 -14 296 -14Q220 -14 162.5 13.5Q105 41 72.5 97Q40 153 40 235Q40 320 74.5 376Q109 432 166.5 459.5Q224 487 293 487Q359 487 399 464Q439 441 439 407Q439 392 431 379Q423 366 412 358Q392 370 367 379Q342 388 307 388Z"/>
<path transform="translate(426.54,290.00) scale(0.092000,-0.092000)" d="M484 306Q484 199 432 144.5Q380 90 287 90Q265 90 243 91.5Q221 93 203 97L203 512Q221 515 240.5 516.5Q260 518 282 518Q340 518 385.5 495.5Q431 473 457.5 426.5Q484 380 484 306ZM614 308Q614 414 571.5 483Q529 552 453.5 586.5Q378 621 277 621Q239 621 195.5 617Q152 613 115 602Q98 596 87.5 586Q77 576 77 557L77 66Q77 24 126 7Q164 -6 209 -9.5Q254 -13 287 -13Q386 -13 459 22Q532 57 573 128.5Q614 200 614 308Z"/>
<path transform="translate(487.23,290.00) scale(0.092000,-0.092000)" d="M118 174L113 260L381 300Q378 338 352 366Q326 394 276 394Q225 394 191 358.5Q157 323 156 257L159 205Q168 141 208.5 111Q249 81 311 81Q353 81 389 93.5Q425 106 446 121Q460 112 468.5 98.5Q477 85 477 69Q477 43 454 24.5Q431 6 392 -4Q353 -14 303 -14Q226 -14 166.5 14.5Q107 43 73.5 100Q40 157 40 242Q40 303 59 349Q78 395 110.5 425.5Q143 456 186 471.5Q229 487 276 487Q342 487 391.5 460.5Q441 434 469.5 387Q498 340 498 279Q498 251 483.5 237.5Q469 224 443 221Z"/>
<path transform="translate(536.31,290.00) scale(0.092000,-0.092000)" d="M501 309L501 212L378 212L378 304Q378 348 353 368.5Q328 389 286 389Q255 389 230.5 381.5Q206 374 187 364L187 212L64 212L64 372Q64 396 74 411.5Q84 427 104 440Q134 460 181.5 473.5Q229 487 287 487Q388 487 444.5 442Q501 397 501 309ZM64 261L187 261L187 2Q179 -1 164 -3.5Q149 -6 131 -6Q97 -6 80.5 6.5Q64 19 64 51ZM378 261L501 261L501 2Q494 -1 478.5 -3.5Q463 -6 446 -6Q411 -6 394.5 6.5Q378 19 378 51Z"/>
<path transform="translate(588.36,290.00) scale(0.092000,-0.092000)" d="M65 264L188 264L188 146Q188 113 207.5 99Q227 85 263 85Q279 85 297.5 89Q316 93 329 99Q336 91 342 80Q348 69 348 53Q348 24 320.5 5Q293 -14 235 -14Q156 -14 110.5 21.5Q65 57 65 137ZM140 366L140 463L336 463Q340 456 344.5 443Q349 430 349 416Q349 391 337 378.5Q325 366 306 366ZM188 237L65 237L65 597Q73 600 88.5 603Q104 606 121 606Q156 606 172 593.5Q188 581 188 549Z"/>
<path transform="translate(623.69,290.00) scale(0.092000,-0.092000)" d="M58 614Q58 643 78.5 663Q99 683 130 683Q162 683 181.5 663Q201 643 201 614Q201 586 181.5 565.5Q162 545 130 545Q99 545 78.5 565.5Q58 586 58 614ZM68 264L192 264L192 2Q184 -1 169 -3.5Q154 -6 136 -6Q102 -6 85 6.5Q68 19 68 51ZM192 201L68 201L68 469Q76 472 91.5 474.5Q107 477 125 477Q160 477 176 464.5Q192 452 192 419Z"/>
<path transform="translate(647.67,290.00) scale(0.092000,-0.092000)" d="M430 134Q430 64 378 24.5Q326 -15 227 -15Q147 -15 96 9Q45 33 45 73Q45 90 53 104.5Q61 119 74 127Q102 109 139 95Q176 81 223 81Q308 81 308 133Q308 155 293 168.5Q278 182 247 188L190 203Q117 219 81.5 253Q46 287 46 344Q46 407 98 447.5Q150 488 242 488Q290 488 328 478.5Q366 469 387.5 451Q409 433 409 408Q409 391 401.5 377.5Q394 364 382 357Q370 364 349.5 372.5Q329 381 303 386.5Q277 392 251 392Q212 392 189.5 379.5Q167 367 167 344Q167 327 180 315Q193 303 224 296L275 284Q356 265 393 228.5Q430 192 430 134Z"/>
<path transform="translate(690.78,290.00) scale(0.092000,-0.092000)" d="M65 264L188 264L188 146Q188 113 207.5 99Q227 85 263 85Q279 85 297.5 89Q316 93 329 99Q336 91 342 80Q348 69 348 53Q348 24 320.5 5Q293 -14 235 -14Q156 -14 110.5 21.5Q65 57 65 137ZM140 366L140 463L336 463Q340 456 344.5 443Q349 430 349 416Q349 391 337 378.5Q325 366 306 366ZM188 237L65 237L65 597Q73 600 88.5 603Q104 606 121 606Q156 606 172 593.5Q188 581 188 549Z"/>
<path transform="translate(726.45,290.00) scale(0.092000,-0.092000)" d="M430 134Q430 64 378 24.5Q326 -15 227 -15Q147 -15 96 9Q45 33 45 73Q45 90 53 104.5Q61 119 74 127Q102 109 139 95Q176 81 223 81Q308 81 308 133Q308 155 293 168.5Q278 182 247 188L190 203Q117 219 81.5 253Q46 287 46 344Q46 407 98 447.5Q150 488 242 488Q290 488 328 478.5Q366 469 387.5 451Q409 433 409 408Q409 391 401.5 377.5Q394 364 382 357Q370 364 349.5 372.5Q329 381 303 386.5Q277 392 251 392Q212 392 189.5 379.5Q167 367 167 344Q167 327 180 315Q193 303 224 296L275 284Q356 265 393 228.5Q430 192 430 134Z"/>
</g>
</svg>