<svg xmlns="http://www.w3.org/2000/svg" width="25.377" height="25.506" viewBox="0 0 25.377 25.506"><g transform="translate(-626.145 -272.57)"><path d="M896.37,282.958l1.89,2.859,3.549-7.238L899.6,275.49l-3.227,1.429-3.227-1.429-2.212,3.089,3.549,7.238Z" transform="translate(-257.536 -2.69)" fill="#8f9e7d"></path><path d="M896.37,464.5l-1.89-2.858-3.549,7.237,2.212,3.089,3.227-1.429,3.227,1.429,2.212-3.089-3.549-7.237Z" transform="translate(-257.536 -174.18)" fill="#8f9e7d"></path><path d="M997.836,367.272l-3.089-2.212-7.237,3.549,2.858,1.89-2.858,1.89,7.237,3.549,3.089-2.213-1.428-3.227Z" transform="translate(-346.51 -85.206)" fill="#8f9e7d"></path><path d="M808.838,370.5l2.858-1.89-7.237-3.549-3.089,2.212L802.8,370.5l-1.428,3.227,3.089,2.213,7.237-3.549Z" transform="translate(-175.029 -85.206)" fill="#8f9e7d"></path><path d="M804.873,275.567l3,6.039-6.039-3.019-2.95-6.016Z" transform="translate(-172.735)" fill="#758268"></path><path d="M1009.976,275.567l-3,6.039,6.039-3.019,2.95-6.016Z" transform="translate(-364.447)" fill="#758268"></path><path d="M1009.976,487.759l-3-6.039,6.039,3.019,2.95,6.016Z" transform="translate(-364.447 -192.679)" fill="#758268"></path><path d="M804.873,487.759l3-6.039-6.039,3.019-2.95,6.016Z" transform="translate(-172.735 -192.679)" fill="#758268"></path></g></svg>