<?xml version="1.0" encoding="UTF-8"?>
<svg xmlns="http://www.w3.org/2000/svg" viewBox="0 0 322.24 323.88">
  <g fill="#8f9e7d">
    <polygon points="161.12 97.76 185.12 134.05 230.2 42.15 202.1 2.93 161.12 21.07 120.15 2.93 92.05 42.15 137.12 134.05 161.12 97.76"/>
    <polygon points="161.12 225.37 137.12 189.07 92.05 280.98 120.15 320.2 161.12 302.05 202.1 320.2 230.2 280.98 185.12 189.07 161.12 225.37"/>
    <polygon points="319.76 120.59 280.54 92.49 188.63 137.56 224.93 161.56 188.63 185.56 280.54 230.63 319.76 202.54 301.61 161.56 319.76 120.59"/>
    <polygon points="97.32 161.56 133.61 137.56 41.71 92.49 2.49 120.59 20.63 161.56 2.49 202.54 41.71 230.63 133.61 185.56 97.32 161.56"/>
  </g>
  <g fill="#758268">
    <polygon points="76.1 38.05 114.15 114.73 37.46 76.39 0 0 76.1 38.05"/>
    <polygon points="246.15 38.05 208.1 114.73 284.78 76.39 322.24 0 246.15 38.05"/>
    <polygon points="246.15 285.83 208.1 209.15 284.78 247.49 322.24 323.88 246.15 285.83"/>
    <polygon points="76.1 285.83 114.15 209.15 37.46 247.49 0 323.88 76.1 285.83"/>
  </g>
</svg>
