<?xml version="1.0" encoding="UTF-8"?>
<svg id="Layer_2" data-name="Layer 2" xmlns="http://www.w3.org/2000/svg" viewBox="0 0 719.55 158.44">
  <defs>
    <style>
      .cls-1 {
        fill: #758268;
      }

      .cls-2 {
        fill: #1C2B25;
      }
    </style>
  </defs>
  <g id="Layer_1-2" data-name="Layer 1">
    <g>
      <g>
        <path class="cls-1" d="M25.33,7.07v33.82c5.66,0,10.11-.47,13.37-1.41,3.26-.94,5.56-2.42,6.89-4.42,1.33-2,2-4.57,2-7.72h4.12v32.17h-4.12c0-3.14-.63-5.73-1.89-7.78-1.26-2.04-3.5-3.57-6.72-4.6-3.22-1.02-7.78-1.53-13.67-1.53v26.63c0,3.38.61,6.05,1.83,8.01,1.22,1.96,3.24,3.36,6.07,4.18,2.83.82,6.72,1.24,11.67,1.24,5.58,0,10.03-.55,13.37-1.65,3.34-1.1,5.95-2.96,7.84-5.6,1.89-2.63,3.34-6.26,4.36-10.9h4.48l-1.77,23.21H0v-4.48c3.69-.16,6.46-.57,8.31-1.24,1.84-.67,3.08-1.94,3.71-3.83.63-1.89.94-4.67.94-8.37V17.91c0-3.69-.28-6.46-.82-8.31-.55-1.84-1.67-3.12-3.36-3.83-1.69-.71-4.22-1.14-7.6-1.3V0h68.1l1.06,20.74h-4.12c-.63-4.16-1.79-7.38-3.48-9.66-1.69-2.28-4.18-3.85-7.48-4.71-3.3-.86-7.62-1.3-12.96-1.3h-14.96c-1.34,0-2,.67-2,2Z"/>
        <path class="cls-1" d="M244.13,90.73h-76.11v-4.48c3.69-.16,6.46-.57,8.31-1.24,1.84-.67,3.08-1.94,3.71-3.83.63-1.89.94-4.67.94-8.37V17.91c0-3.69-.28-6.46-.82-8.31-.55-1.84-1.67-3.12-3.36-3.83-1.69-.71-4.22-1.14-7.6-1.3V0h35.82v4.48c-3.38.08-5.89.49-7.54,1.24-1.65.75-2.75,2.1-3.3,4.06-.55,1.96-.83,4.95-.83,8.95v50.78c0,4.4.61,7.74,1.83,10.01,1.22,2.28,3.36,3.83,6.42,4.65,3.06.82,7.31,1.24,12.73,1.24,6.05,0,10.84-.47,14.37-1.41s6.26-2.71,8.19-5.3c1.92-2.59,3.44-6.32,4.54-11.19h4.48l-1.77,23.21Z"/>
        <path class="cls-1" d="M336.15,90.73v-4.48c3.69-.16,6.46-.63,8.31-1.41,1.84-.78,3.08-2.36,3.71-4.71.63-2.36.94-5.97.94-10.84V21.44c0-4.48-.28-7.89-.82-10.25-.55-2.36-1.67-4.02-3.36-5.01-1.69-.98-4.22-1.55-7.6-1.71V0h35.82v4.48c-3.38.08-5.89.61-7.54,1.59-1.65.98-2.75,2.73-3.3,5.24-.55,2.51-.83,6.17-.83,10.96v46.19c0,5.18.29,9.01.88,11.49.59,2.47,1.81,4.11,3.65,4.89,1.84.79,4.61,1.26,8.31,1.41v4.48h-38.18Z"/>
        <path class="cls-1" d="M553.65,0l1.18,22.5h-4.83c-.32-4.55-1.2-8.09-2.65-10.6-1.45-2.51-3.59-4.28-6.42-5.3-2.83-1.02-6.52-1.53-11.08-1.53-3.85,0-6.74.12-8.66.35-1.93.24-3.18.61-3.77,1.12-.59.51-.88,1.24-.88,2.18v63.04c0,3.38.33,6.11,1,8.19.67,2.08,2.1,3.61,4.3,4.6,2.2.98,5.5,1.55,9.9,1.71v4.48h-44.54v-4.48c4.48-.16,7.8-.72,9.96-1.71,2.16-.98,3.59-2.51,4.3-4.6.71-2.08,1.06-4.81,1.06-8.19V8.72c0-.94-.28-1.67-.82-2.18-.55-.51-1.63-.88-3.24-1.12-1.61-.24-4.11-.35-7.48-.35-3.06,0-5.89.14-8.48.41-2.59.28-4.87.96-6.83,2.06-1.96,1.1-3.52,2.83-4.65,5.18-1.14,2.36-1.79,5.62-1.94,9.78h-4.36V0h88.96Z"/>
        <path class="cls-1" d="M669.95,7.07v33.82c5.66,0,10.11-.47,13.37-1.41,3.26-.94,5.56-2.42,6.89-4.42,1.33-2,2-4.57,2-7.72h4.12v32.17h-4.12c0-3.14-.63-5.73-1.89-7.78-1.26-2.04-3.5-3.57-6.72-4.6-3.22-1.02-7.78-1.53-13.67-1.53v26.63c0,3.38.61,6.05,1.83,8.01,1.22,1.96,3.24,3.36,6.07,4.18,2.83.82,6.72,1.24,11.67,1.24,5.58,0,10.03-.55,13.37-1.65,3.34-1.1,5.95-2.96,7.84-5.6,1.89-2.63,3.34-6.26,4.36-10.9h4.48l-1.77,23.21h-73.17v-4.48c3.69-.16,6.46-.57,8.31-1.24,1.84-.67,3.08-1.94,3.71-3.83.63-1.89.94-4.67.94-8.37V17.91c0-3.69-.28-6.46-.82-8.31-.55-1.84-1.67-3.12-3.36-3.83-1.69-.71-4.22-1.14-7.6-1.3V0h68.1l1.06,20.74h-4.12c-.63-4.16-1.79-7.38-3.48-9.66-1.69-2.28-4.18-3.85-7.48-4.71-3.3-.86-7.62-1.3-12.96-1.3h-14.96c-1.34,0-2,.67-2,2Z"/>
      </g>
      <g>
        <path class="cls-2" d="M61.81,156.67c0-.57.36-.96,1.08-1.17l1.85-.34c.48-.12.83-.3,1.07-.56s.36-.59.36-.98v-31.73c0-.4-.12-.73-.36-.99s-.6-.44-1.07-.56l-1.85-.34c-.72-.21-1.08-.6-1.08-1.17,0-.34.11-.6.34-.78.23-.18.58-.27,1.06-.27h13.93c3.56,0,6.79.52,9.69,1.55,2.9,1.04,5.4,2.5,7.49,4.38,2.09,1.88,3.7,4.1,4.82,6.66,1.12,2.56,1.68,5.38,1.68,8.46,0,3.63-.83,6.87-2.5,9.72-1.67,2.84-4.07,5.08-7.22,6.72s-6.97,2.45-11.46,2.45h-16.44c-.48,0-.83-.1-1.06-.29-.23-.19-.34-.45-.34-.77ZM79.22,155.39c3.01,0,5.6-.64,7.79-1.91s3.88-3.15,5.07-5.64c1.19-2.48,1.78-5.53,1.78-9.15,0-2.83-.4-5.39-1.21-7.66-.81-2.27-1.98-4.22-3.51-5.85-1.53-1.63-3.37-2.88-5.52-3.75-2.15-.88-4.57-1.31-7.25-1.31h-3.51v32.87c0,.82.25,1.42.76,1.81.5.39,1.28.59,2.33.59h3.28Z"/>
        <path class="cls-2" d="M137.67,141.01c0,.89-.26,1.57-.78,2.04-.52.47-1.29.7-2.3.7h-18.24v-1.86h13.73c.95,0,1.43-.42,1.43-1.25,0-2.53-.55-4.51-1.66-5.94-1.1-1.43-2.58-2.14-4.42-2.14-1.45,0-2.72.41-3.82,1.24-1.1.83-1.97,2-2.6,3.51-.63,1.51-.94,3.29-.94,5.32,0,3.79.91,6.65,2.73,8.6,1.82,1.95,4.2,2.92,7.15,2.92,1.88,0,3.52-.42,4.91-1.26,1.39-.84,2.37-1.95,2.94-3.34.25-.32.45-.55.61-.67.16-.12.35-.19.56-.19.27,0,.46.11.57.34.11.23.17.5.17.8-.11,1.56-.68,2.99-1.71,4.28s-2.39,2.33-4.1,3.1c-1.7.77-3.64,1.15-5.81,1.15-2.68,0-5.05-.56-7.09-1.68-2.05-1.12-3.64-2.7-4.78-4.74-1.14-2.03-1.71-4.42-1.71-7.16s.55-5.26,1.66-7.45,2.68-3.91,4.74-5.18c2.05-1.26,4.5-1.9,7.33-1.9,2.34,0,4.37.46,6.08,1.37,1.71.91,3.03,2.17,3.97,3.78.93,1.61,1.4,3.47,1.4,5.58Z"/>
        <path class="cls-2" d="M158.98,132.02v21.72c0,.53.09.93.29,1.18.19.26.48.43.86.53l1.26.31c.61.19.91.51.91.97,0,.67-.45,1-1.34,1h-10.22c-.44,0-.76-.09-.97-.26s-.31-.41-.31-.71c0-.23.08-.43.24-.6.16-.17.41-.3.76-.4l1.34-.31c.38-.1.67-.27.86-.53.19-.26.28-.64.28-1.16v-17.66c0-.44-.07-.75-.21-.94-.14-.19-.39-.3-.73-.34l-1.91-.09c-.34-.06-.59-.16-.73-.3-.14-.14-.21-.32-.21-.53,0-.25.08-.46.24-.63.16-.17.46-.33.9-.48l4.71-1.66c.59-.23,1.08-.39,1.47-.48.39-.1.74-.14,1.04-.14.49,0,.87.13,1.11.4s.37.64.37,1.11ZM158.16,138.09l-1.14-1.14,1.26-1.08c2.28-2.05,4.28-3.5,5.99-4.34,1.71-.84,3.36-1.26,4.94-1.26,2.42,0,4.36.76,5.84,2.28,1.47,1.52,2.21,3.58,2.21,6.16v14.93c0,.55.11.97.33,1.24.22.28.53.47.93.59l1.2.29c.32.1.57.23.73.4.16.17.24.37.24.6,0,.3-.1.54-.3.71s-.53.26-.98.26h-10.24c-.89,0-1.34-.33-1.34-1,0-.46.3-.78.91-.97l1.31-.31c.42-.1.72-.28.9-.57.18-.28.27-.69.27-1.23v-13.98c0-1.9-.47-3.33-1.41-4.28s-2.19-1.43-3.75-1.43c-.95,0-1.98.25-3.1.74-1.11.5-2.3,1.27-3.55,2.34l-1.23,1.06Z"/>
        <path class="cls-2" d="M193.4,133.27l-1.48-.4c-.49-.13-.83-.29-1.01-.47s-.27-.38-.27-.61c0-.3.1-.53.31-.68.21-.15.49-.23.86-.23h1.83c.51,0,.93-.08,1.24-.24.31-.16.59-.46.81-.9l2.25-4.14c.29-.46.57-.78.86-.98.29-.2.59-.3.91-.3s.58.11.77.31c.19.21.28.5.28.88v25.14c0,1.31.27,2.31.81,3,.54.68,1.29,1.03,2.24,1.03.7,0,1.25-.12,1.64-.36.39-.24.69-.51.91-.83.22-.31.43-.59.63-.81.2-.23.45-.34.76-.34.25,0,.43.08.56.23.12.15.19.41.19.77,0,.82-.3,1.6-.88,2.34-.59.74-1.4,1.35-2.44,1.83-1.04.48-2.23.71-3.58.71-2.09,0-3.76-.55-5.01-1.64-1.25-1.09-1.87-2.74-1.87-4.95v-16.69c0-.48-.1-.84-.29-1.08s-.53-.44-1.03-.57ZM198.05,133.16v-2.28h8.99c.4,0,.7.07.91.21.21.14.31.37.31.67,0,.4-.2.73-.61,1-.41.27-1.05.4-1.93.4h-7.68Z"/>
        <path class="cls-2" d="M220.02,151.79c0-2.26,1.01-4.12,3.04-5.56,2.03-1.45,4.83-2.17,8.4-2.17,1.29,0,2.48.12,3.57.36,1.08.24,2.05.55,2.88.93l-.46,1.57c-.8-.32-1.61-.59-2.44-.81-.83-.22-1.74-.33-2.73-.33-1.88,0-3.36.45-4.42,1.34-1.07.9-1.6,2.12-1.6,3.68s.43,2.72,1.3,3.52c.87.81,1.97,1.21,3.32,1.21,1.27,0,2.5-.29,3.68-.87,1.18-.58,2.2-1.4,3.05-2.47l.6,1.34c-1.12,1.54-2.57,2.74-4.35,3.58s-3.67,1.27-5.66,1.27c-2.42,0-4.39-.59-5.91-1.78-1.52-1.19-2.28-2.79-2.28-4.81ZM237.06,154.19v-.57l-.37-.17v-16.29c0-1.64-.41-2.89-1.24-3.77-.83-.88-2-1.31-3.52-1.31s-2.53.3-3.25.89-1.08,1.3-1.08,2.14v2.25c0,.91-.3,1.62-.9,2.11s-1.43.74-2.5.74c-.93,0-1.65-.24-2.14-.73s-.74-1.13-.74-1.93c0-1.18.46-2.32,1.38-3.42.92-1.1,2.26-2.02,4.01-2.74,1.75-.72,3.87-1.08,6.36-1.08,3.25,0,5.67.7,7.25,2.1,1.58,1.4,2.37,3.27,2.37,5.61v15.44c0,.61.12,1.06.36,1.34.24.29.57.43.98.43.48,0,.81-.11,1.01-.33.2-.22.38-.43.53-.64.1-.11.2-.21.3-.3s.23-.13.39-.13c.21,0,.36.07.46.21.09.14.14.34.14.59,0,.55-.19,1.12-.57,1.7-.38.58-.93,1.07-1.66,1.47-.72.4-1.63.6-2.71.6-1.5,0-2.69-.36-3.55-1.07s-1.3-1.76-1.3-3.13Z"/>
        <path class="cls-2" d="M267.14,117.15v36.59c0,.53.09.93.29,1.18.19.26.48.43.86.53l1.28.28c.34.12.59.25.76.41.16.16.24.37.24.61,0,.3-.1.54-.31.71-.21.17-.54.26-1,.26h-10.36c-.44,0-.76-.09-.97-.26s-.31-.41-.31-.71c0-.23.08-.43.24-.6.16-.17.41-.3.76-.4l1.34-.31c.38-.1.67-.27.86-.53.19-.26.28-.64.28-1.16v-32.53c0-.44-.07-.76-.21-.96-.14-.2-.39-.32-.73-.36l-1.91-.09c-.34-.04-.59-.13-.73-.27-.14-.14-.21-.33-.21-.56,0-.25.08-.45.24-.61.16-.16.46-.32.9-.47l4.71-1.65c.63-.23,1.13-.39,1.5-.49.37-.09.69-.14.96-.14.51,0,.9.13,1.16.4.26.27.39.64.39,1.11Z"/>
        <path class="cls-2" d="M311.24,139.48c-1,.81-1.77,1.8-2.31,2.98-.54,1.18-.81,2.43-.81,3.74,0,1.86.33,3.47.98,4.82.66,1.35,1.6,2.39,2.83,3.13s2.69,1.1,4.38,1.1c1.94,0,3.7-.46,5.28-1.37,1.58-.91,2.89-2.3,3.94-4.17l1.51,1.23c-1.47,2.34-3.24,4.18-5.32,5.51-2.08,1.33-4.71,2-7.89,2-2.61,0-4.81-.48-6.62-1.43-1.81-.95-3.18-2.22-4.11-3.81s-1.4-3.32-1.4-5.21.5-3.65,1.51-5.24c1.01-1.59,2.48-2.9,4.41-3.94,1.93-1.04,4.3-1.65,7.09-1.84l.14,1.03c-1.41.17-2.61.66-3.61,1.47ZM313.65,121c-.99,1.35-1.48,3.07-1.48,5.16s.44,3.9,1.33,5.42c.88,1.52,2.28,2.6,4.18,3.22.91.3,1.72.66,2.43,1.07.7.41,1.38.92,2.03,1.54.65.62,1.35,1.39,2.11,2.33l10.79,13.64c.51.63,1.01,1.08,1.5,1.37.49.28,1.11.46,1.87.51.49.04.87.15,1.13.33s.39.45.39.81c0,.38-.14.67-.43.87-.29.2-.69.3-1.23.3h-5.74c-.76,0-1.4-.1-1.93-.31-.52-.21-1.01-.6-1.47-1.17l-11.04-13.96c-1.1-1.39-2.03-2.4-2.78-3.02-.75-.63-1.53-1.07-2.33-1.31-2.36-.8-4.13-2.05-5.32-3.75-1.19-1.7-1.78-3.72-1.78-6.06,0-2.05.5-3.9,1.51-5.55,1.01-1.64,2.45-2.94,4.32-3.89,1.87-.95,4.09-1.43,6.63-1.43,2.28,0,4.26.39,5.94,1.17s2.98,1.84,3.91,3.18c.93,1.34,1.4,2.88,1.4,4.61,0,1.88-.43,3.55-1.28,4.99-.86,1.45-2.16,2.63-3.91,3.57-1.75.93-3.98,1.58-6.68,1.94l-.34-1.11c2.03-.4,3.54-1.39,4.51-2.98s1.46-3.6,1.46-6.04-.52-4.19-1.55-5.51c-1.04-1.31-2.37-1.97-4.01-1.97-1.75,0-3.12.68-4.11,2.03ZM331.97,142.23c.4-.61.65-1.15.74-1.61.1-.47.05-.86-.14-1.18-.19-.32-.53-.56-1.03-.71l-1.77-.43c-.36-.11-.62-.26-.78-.44-.16-.18-.24-.38-.24-.59,0-.3.13-.57.4-.78.27-.22.61-.33,1.03-.33h8.39c.97,0,1.46.36,1.46,1.08,0,.27-.09.5-.26.7s-.48.4-.91.61c-.91.28-1.67.68-2.25,1.18-.59.5-1.27,1.31-2.03,2.41l-4.28,7.25-1.28-1.46,2.97-5.71Z"/>
        <path class="cls-2" d="M396.95,125.34l2.48.83-8.76,27.03c-.13.38-.24.74-.33,1.08s-.13.73-.13,1.17v1.03c0,.4-.1.71-.31.93-.21.22-.49.33-.86.33h-4.91c-.38,0-.68-.11-.91-.33-.23-.22-.34-.53-.34-.93v-1.03c0-.32-.03-.61-.09-.87-.06-.26-.16-.63-.31-1.13l-9.87-31.56c-.15-.49-.34-.86-.57-1.08-.23-.23-.54-.41-.94-.54l-1.28-.37c-.4-.12-.67-.27-.81-.46-.14-.19-.21-.41-.21-.66,0-.3.11-.55.34-.73.23-.18.6-.27,1.11-.27h11.87c.49,0,.86.09,1.1.27s.36.43.36.76c0,.53-.34.88-1.03,1.03l-2.2.34c-.48.1-.75.3-.83.63-.08.32,0,.85.2,1.57l9.73,31.48-2.34,1.74,9.84-30.25ZM415.05,118.83c0-.34.12-.6.37-.78.25-.18.61-.27,1.08-.27h8.76c.53,0,.91.1,1.13.28.22.19.33.44.33.74,0,.25-.07.45-.21.6-.14.15-.44.31-.9.49l-1.17.37c-.53.23-.98.56-1.34,1-.36.44-.68,1.15-.97,2.14l-8.96,29.79c-.15.51-.27.92-.34,1.23-.08.3-.11.65-.11,1.03v1.03c0,.4-.1.71-.31.93-.21.22-.49.33-.86.33h-5.19c-.38,0-.68-.11-.9-.33-.22-.22-.33-.53-.33-.93v-1.03c0-.3,0-.6-.03-.88-.02-.29-.11-.69-.26-1.23l-9.45-31.45c-.19-.61-.38-1.02-.56-1.23s-.44-.36-.78-.46l-1.28-.37c-.4-.11-.67-.25-.81-.41s-.21-.36-.21-.59c0-.34.12-.6.36-.78s.59-.27,1.07-.27h11.61c.49,0,.86.09,1.1.27s.36.44.36.78c0,.27-.09.49-.27.66-.18.17-.46.3-.84.4l-2.14.31c-.44.1-.7.29-.8.57-.1.28-.03.82.2,1.6l9.36,31.42-2,1.51,9.65-32.13c.27-.87.31-1.54.14-2-.17-.46-.68-.79-1.54-1l-1.91-.34c-.38-.1-.65-.22-.8-.39-.15-.16-.23-.37-.23-.61Z"/>
        <path class="cls-2" d="M458.02,141.01c0,.89-.26,1.57-.78,2.04-.52.47-1.29.7-2.3.7h-18.24v-1.86h13.73c.95,0,1.43-.42,1.43-1.25,0-2.53-.55-4.51-1.66-5.94-1.1-1.43-2.58-2.14-4.42-2.14-1.45,0-2.72.41-3.82,1.24-1.1.83-1.97,2-2.6,3.51-.63,1.51-.94,3.29-.94,5.32,0,3.79.91,6.65,2.73,8.6,1.82,1.95,4.2,2.92,7.15,2.92,1.88,0,3.52-.42,4.91-1.26,1.39-.84,2.37-1.95,2.94-3.34.25-.32.45-.55.61-.67.16-.12.35-.19.56-.19.27,0,.46.11.57.34.11.23.17.5.17.8-.11,1.56-.68,2.99-1.71,4.28s-2.39,2.33-4.1,3.1c-1.7.77-3.64,1.15-5.81,1.15-2.68,0-5.05-.56-7.09-1.68-2.05-1.12-3.64-2.7-4.78-4.74-1.14-2.03-1.71-4.42-1.71-7.16s.55-5.26,1.66-7.45,2.68-3.91,4.74-5.18c2.05-1.26,4.5-1.9,7.33-1.9,2.34,0,4.37.46,6.08,1.37,1.71.91,3.03,2.17,3.97,3.78.93,1.61,1.4,3.47,1.4,5.58Z"/>
        <path class="cls-2" d="M479.34,117.15v36.59c0,.53.09.93.29,1.18.19.26.48.43.86.53l1.28.28c.34.12.59.25.76.41.16.16.24.37.24.61,0,.3-.1.54-.31.71-.21.17-.54.26-1,.26h-10.36c-.44,0-.76-.09-.97-.26s-.31-.41-.31-.71c0-.23.08-.43.24-.6.16-.17.41-.3.76-.4l1.34-.31c.38-.1.67-.27.86-.53.19-.26.28-.64.28-1.16v-32.53c0-.44-.07-.76-.21-.96-.14-.2-.39-.32-.73-.36l-1.91-.09c-.34-.04-.59-.13-.73-.27-.14-.14-.21-.33-.21-.56,0-.25.08-.45.24-.61.16-.16.46-.32.9-.47l4.71-1.65c.63-.23,1.13-.39,1.5-.49.37-.09.69-.14.96-.14.51,0,.9.13,1.16.4.26.27.39.64.39,1.11Z"/>
        <path class="cls-2" d="M503.65,117.15v36.59c0,.53.09.93.29,1.18.19.26.48.43.86.53l1.28.28c.34.12.59.25.76.41.16.16.24.37.24.61,0,.3-.1.54-.31.71-.21.17-.54.26-1,.26h-10.36c-.44,0-.76-.09-.97-.26s-.31-.41-.31-.71c0-.23.08-.43.24-.6.16-.17.41-.3.76-.4l1.34-.31c.38-.1.67-.27.86-.53.19-.26.28-.64.28-1.16v-32.53c0-.44-.07-.76-.21-.96-.14-.2-.39-.32-.73-.36l-1.91-.09c-.34-.04-.59-.13-.73-.27-.14-.14-.21-.33-.21-.56,0-.25.08-.45.24-.61.16-.16.46-.32.9-.47l4.71-1.65c.63-.23,1.13-.39,1.5-.49.37-.09.69-.14.96-.14.51,0,.9.13,1.16.4.26.27.39.64.39,1.11Z"/>
        <path class="cls-2" d="M527.97,132.02v21.72c0,.53.09.93.29,1.18.19.26.48.43.86.53l1.26.31c.61.19.91.51.91.97,0,.67-.45,1-1.34,1h-10.22c-.44,0-.76-.09-.97-.26s-.31-.41-.31-.71c0-.23.08-.43.24-.6.16-.17.41-.3.76-.4l1.34-.31c.38-.1.67-.27.86-.53.19-.26.28-.64.28-1.16v-17.66c0-.44-.07-.75-.21-.94-.14-.19-.39-.3-.73-.34l-1.91-.09c-.34-.06-.59-.16-.73-.3-.14-.14-.21-.32-.21-.53,0-.25.08-.46.24-.63.16-.17.46-.33.9-.48l4.71-1.66c.59-.23,1.08-.39,1.47-.48.39-.1.74-.14,1.04-.14.49,0,.87.13,1.11.4s.37.64.37,1.11ZM527.14,138.09l-1.14-1.14,1.26-1.08c2.28-2.05,4.28-3.5,5.99-4.34,1.71-.84,3.36-1.26,4.94-1.26,2.42,0,4.36.76,5.84,2.28,1.47,1.52,2.21,3.58,2.21,6.16v14.93c0,.55.11.97.33,1.24.22.28.53.47.93.59l1.2.29c.32.1.57.23.73.4.16.17.24.37.24.6,0,.3-.1.54-.3.71s-.53.26-.98.26h-10.24c-.89,0-1.34-.33-1.34-1,0-.46.3-.78.91-.97l1.31-.31c.42-.1.72-.28.9-.57.18-.28.27-.69.27-1.23v-13.98c0-1.9-.47-3.33-1.41-4.28s-2.19-1.43-3.75-1.43c-.95,0-1.98.25-3.1.74-1.11.5-2.3,1.27-3.55,2.34l-1.23,1.06Z"/>
        <path class="cls-2" d="M585.87,141.01c0,.89-.26,1.57-.78,2.04-.52.47-1.29.7-2.3.7h-18.24v-1.86h13.73c.95,0,1.43-.42,1.43-1.25,0-2.53-.55-4.51-1.66-5.94-1.1-1.43-2.58-2.14-4.42-2.14-1.45,0-2.72.41-3.82,1.24-1.1.83-1.97,2-2.6,3.51-.63,1.51-.94,3.29-.94,5.32,0,3.79.91,6.65,2.73,8.6,1.82,1.95,4.2,2.92,7.15,2.92,1.88,0,3.52-.42,4.91-1.26,1.39-.84,2.37-1.95,2.94-3.34.25-.32.45-.55.61-.67.16-.12.35-.19.56-.19.27,0,.46.11.57.34.11.23.17.5.17.8-.11,1.56-.68,2.99-1.71,4.28-1.03,1.29-2.39,2.33-4.1,3.1-1.7.77-3.64,1.15-5.81,1.15-2.68,0-5.05-.56-7.09-1.68-2.05-1.12-3.64-2.7-4.78-4.74-1.14-2.03-1.71-4.42-1.71-7.16s.55-5.26,1.66-7.45c1.1-2.19,2.68-3.91,4.74-5.18,2.05-1.26,4.5-1.9,7.33-1.9,2.34,0,4.37.46,6.08,1.37,1.71.91,3.03,2.17,3.97,3.78.93,1.61,1.4,3.47,1.4,5.58Z"/>
        <path class="cls-2" d="M607.7,132.44c-1.43,0-2.55.37-3.38,1.1-.83.73-1.24,1.69-1.24,2.87,0,.74.17,1.4.51,1.98.34.58.96,1.11,1.85,1.6s2.17.94,3.82,1.36c2.64.61,4.71,1.36,6.21,2.24s2.54,1.89,3.15,3.01c.61,1.12.91,2.37.91,3.74,0,2.42-.87,4.36-2.61,5.84-1.74,1.47-4.23,2.21-7.46,2.21-1.18,0-2.15-.1-2.93-.31-.77-.21-1.41-.42-1.93-.63-.51-.21-.97-.31-1.37-.31s-.68.11-.88.33c-.21.22-.41.43-.6.64s-.46.31-.8.31c-.27,0-.48-.08-.63-.24-.15-.16-.3-.45-.43-.87l-2.11-5.96c-.17-.53-.22-.98-.16-1.33.07-.35.28-.59.64-.73.36-.13.68-.13.96.01s.52.39.73.76c.84,1.56,1.75,2.79,2.73,3.7.98.9,2.02,1.55,3.11,1.93,1.09.38,2.21.57,3.35.57,1.81,0,3.16-.38,4.07-1.14.9-.76,1.35-1.77,1.35-3.02,0-.74-.19-1.42-.57-2.04-.38-.62-1.08-1.19-2.08-1.73-1.01-.53-2.44-1.03-4.31-1.48-2.32-.55-4.17-1.23-5.55-2.03-1.38-.8-2.37-1.76-2.97-2.88s-.9-2.43-.9-3.91.38-2.86,1.14-4.02c.76-1.16,1.84-2.07,3.23-2.73,1.39-.66,3.02-.99,4.88-.99,1.2,0,2.17.12,2.93.34.75.23,1.37.46,1.85.7.48.24.92.36,1.3.36.42,0,.74-.12.97-.36.23-.24.44-.47.63-.7.19-.23.45-.34.77-.34.23,0,.42.08.59.24.16.16.28.43.36.81l1.63,5.68c.13.57.18,1.04.14,1.41-.04.37-.25.63-.63.78-.34.13-.65.1-.91-.09-.27-.19-.54-.51-.83-.97-1.08-2.07-2.38-3.54-3.88-4.41s-3.05-1.3-4.65-1.3Z"/>
        <path class="cls-2" d="M641.37,132.44c-1.43,0-2.55.37-3.38,1.1-.83.73-1.24,1.69-1.24,2.87,0,.74.17,1.4.51,1.98.34.58.96,1.11,1.85,1.6s2.17.94,3.82,1.36c2.64.61,4.71,1.36,6.21,2.24s2.54,1.89,3.15,3.01c.61,1.12.91,2.37.91,3.74,0,2.42-.87,4.36-2.61,5.84-1.74,1.47-4.23,2.21-7.46,2.21-1.18,0-2.15-.1-2.93-.31-.77-.21-1.41-.42-1.93-.63-.51-.21-.97-.31-1.37-.31s-.68.11-.88.33c-.21.22-.41.43-.6.64s-.46.31-.8.31c-.27,0-.48-.08-.63-.24-.15-.16-.3-.45-.43-.87l-2.11-5.96c-.17-.53-.22-.98-.16-1.33.07-.35.28-.59.64-.73.36-.13.68-.13.96.01s.52.39.73.76c.84,1.56,1.75,2.79,2.73,3.7.98.9,2.02,1.55,3.11,1.93,1.09.38,2.21.57,3.35.57,1.81,0,3.16-.38,4.07-1.14.9-.76,1.35-1.77,1.35-3.02,0-.74-.19-1.42-.57-2.04-.38-.62-1.08-1.19-2.08-1.73-1.01-.53-2.44-1.03-4.31-1.48-2.32-.55-4.17-1.23-5.55-2.03-1.38-.8-2.37-1.76-2.97-2.88-.6-1.12-.9-2.43-.9-3.91s.38-2.86,1.14-4.02,1.84-2.07,3.23-2.73c1.39-.66,3.02-.99,4.88-.99,1.2,0,2.17.12,2.93.34.75.23,1.37.46,1.85.7.48.24.92.36,1.3.36.42,0,.74-.12.97-.36.23-.24.44-.47.63-.7.19-.23.45-.34.77-.34.23,0,.42.08.59.24.16.16.28.43.36.81l1.63,5.68c.13.57.18,1.04.14,1.41-.04.37-.25.63-.63.78-.34.13-.65.1-.91-.09-.27-.19-.54-.51-.83-.97-1.08-2.07-2.38-3.54-3.88-4.41s-3.05-1.3-4.65-1.3Z"/>
      </g>
    </g>
  </g>
</svg>