<svg xmlns="http://www.w3.org/2000/svg" width="85.195" height="63.332" viewBox="0 0 85.195 63.332"><g transform="translate(-600.22 -272.57)"><path d="M899.108,286.718l2.842,4.3,5.336-10.882-3.326-4.644-4.852,2.149-4.852-2.149-3.326,4.644,5.336,10.882Z" transform="translate(-256.29 -2.574)" fill="#fff"></path><path d="M899.108,465.937l-2.841-4.3-5.336,10.881,3.326,4.644,4.852-2.148,4.852,2.148,3.326-4.644-5.336-10.881Z" transform="translate(-256.29 -166.684)" fill="#fff"></path><path d="M1003.035,368.386l-4.644-3.326L987.51,370.4l4.3,2.842-4.3,2.842,10.881,5.336,4.644-3.327-2.148-4.851Z" transform="translate(-341.435 -81.539)" fill="#fff"></path><path d="M812.6,373.238l4.3-2.842-10.881-5.336-4.644,3.326,2.148,4.852-2.148,4.851,4.644,3.327,10.881-5.336Z" transform="translate(-177.334 -81.539)" fill="#fff"></path><path d="M807.89,277.075l4.5,9.079-9.079-4.539-4.435-9.044Z" transform="translate(-175.139)" fill="#fff"></path><path d="M1011.484,277.075l-4.5,9.079,9.079-4.539,4.435-9.044Z" transform="translate(-358.6)" fill="#fff"></path><path d="M1011.484,490.8l-4.5-9.079,9.079,4.539,4.435,9.044Z" transform="translate(-358.6 -184.387)" fill="#fff"></path><path d="M807.89,490.8l4.5-9.079-9.079,4.539L798.88,495.3Z" transform="translate(-175.139 -184.387)" fill="#fff"></path><path d="M603.22,649.836v4a5.894,5.894,0,0,0,1.583-.168,1.4,1.4,0,0,0,.816-.523,1.609,1.609,0,0,0,.237-.913h.495v3.808h-.488a1.725,1.725,0,0,0-.224-.92,1.364,1.364,0,0,0-.8-.545,5.668,5.668,0,0,0-1.617-.181v3.153a1.785,1.785,0,0,0,.216.947,1.194,1.194,0,0,0,.719.495,5.119,5.119,0,0,0,1.382.147,5.206,5.206,0,0,0,1.577-.194,1.787,1.787,0,0,0,.927-.663,3.5,3.5,0,0,0,.516-1.29h.53l-.21,2.748H600.22v-.531a3.516,3.516,0,0,0,.984-.147.687.687,0,0,0,.439-.453,3.314,3.314,0,0,0,.111-.99v-6.5a3.7,3.7,0,0,0-.1-.984.671.671,0,0,0-.4-.452,2.789,2.789,0,0,0-.9-.154V649h8.064l.125,2.456h-.489a2.575,2.575,0,0,0-.411-1.144,1.55,1.55,0,0,0-.887-.559,6.275,6.275,0,0,0-1.539-.153h-1.776a.21.21,0,0,0-.227.236Z" transform="translate(0 -331.861)" fill="#fff"></path><path d="M777.253,659.741H768.24v-.531a3.529,3.529,0,0,0,.984-.147.69.69,0,0,0,.439-.453,3.318,3.318,0,0,0,.111-.99v-6.5a3.7,3.7,0,0,0-.1-.984.671.671,0,0,0-.4-.452,2.79,2.79,0,0,0-.9-.154V649h4.241v.53a2.409,2.409,0,0,0-.893.147.7.7,0,0,0-.391.481,4.245,4.245,0,0,0-.1,1.066v6.012a2.561,2.561,0,0,0,.217,1.184,1.148,1.148,0,0,0,.76.552,6.109,6.109,0,0,0,1.507.146,6.882,6.882,0,0,0,1.7-.172,1.71,1.71,0,0,0,.97-.628,3.559,3.559,0,0,0,.537-1.325h.529Z" transform="translate(-148.127 -331.861)" fill="#fff"></path><path d="M936.38,659.741v-.531a2.987,2.987,0,0,0,.983-.167.776.776,0,0,0,.439-.559,5.373,5.373,0,0,0,.118-1.284v-5.663a5.705,5.705,0,0,0-.1-1.214.873.873,0,0,0-.4-.592,2.027,2.027,0,0,0-.9-.2V649h4.241v.53a1.885,1.885,0,0,0-.893.188.9.9,0,0,0-.391.62,6.5,6.5,0,0,0-.1,1.3v5.469a6.429,6.429,0,0,0,.1,1.36.771.771,0,0,0,.433.579,2.991,2.991,0,0,0,.983.167v.53Z" transform="translate(-296.359 -331.861)" fill="#fff"></path><path d="M1075.444,649l.14,2.665h-.572a2.964,2.964,0,0,0-.314-1.256,1.4,1.4,0,0,0-.761-.628,3.942,3.942,0,0,0-1.311-.181,9.411,9.411,0,0,0-1.025.041.92.92,0,0,0-.447.133.323.323,0,0,0-.105.258v7.459a3.245,3.245,0,0,0,.118.97.875.875,0,0,0,.509.543,3.311,3.311,0,0,0,1.171.2v.53h-5.272v-.53a3.353,3.353,0,0,0,1.184-.2.9.9,0,0,0,.509-.544,3.079,3.079,0,0,0,.125-.97v-7.459a.334.334,0,0,0-.1-.258.755.755,0,0,0-.384-.133,6.915,6.915,0,0,0-.886-.041,9.749,9.749,0,0,0-1.005.049,2.1,2.1,0,0,0-.809.244,1.343,1.343,0,0,0-.551.614,2.966,2.966,0,0,0-.237,1.158h-.516V649Z" transform="translate(-409.671 -331.861)" fill="#fff"></path><path d="M1247.83,649.836v4a5.884,5.884,0,0,0,1.583-.168,1.4,1.4,0,0,0,.817-.523,1.619,1.619,0,0,0,.237-.913h.488v3.808h-.488a1.738,1.738,0,0,0-.223-.92,1.365,1.365,0,0,0-.8-.545,5.675,5.675,0,0,0-1.619-.181v3.153a1.787,1.787,0,0,0,.217.947,1.189,1.189,0,0,0,.719.495,5.1,5.1,0,0,0,1.38.147,5.208,5.208,0,0,0,1.583-.194,1.794,1.794,0,0,0,.928-.663,3.518,3.518,0,0,0,.516-1.289h.53l-.211,2.748h-8.663v-.531a3.528,3.528,0,0,0,.984-.147.69.69,0,0,0,.439-.453,3.31,3.31,0,0,0,.111-.99v-6.5a3.747,3.747,0,0,0-.1-.984.67.67,0,0,0-.4-.452,2.8,2.8,0,0,0-.9-.154V649h8.063l.125,2.456h-.488a2.546,2.546,0,0,0-.412-1.144,1.546,1.546,0,0,0-.885-.559,6.275,6.275,0,0,0-1.539-.153h-1.776a.21.21,0,0,0-.227.236Z" transform="translate(-568.288 -331.861)" fill="#fff"></path><path d="M662,771.361q0-.1.128-.138l.22-.04a.243.243,0,0,0,.127-.066.162.162,0,0,0,.043-.118v-3.755a.166.166,0,0,0-.043-.118.253.253,0,0,0-.127-.065l-.22-.042q-.128-.038-.128-.139a.11.11,0,0,1,.04-.092.2.2,0,0,1,.125-.032h1.648a3.409,3.409,0,0,1,1.147.183,2.645,2.645,0,0,1,.887.519,2.3,2.3,0,0,1,.572.79,2.475,2.475,0,0,1,.2,1,2.226,2.226,0,0,1-.3,1.15,2.065,2.065,0,0,1-.855.8,2.921,2.921,0,0,1-1.356.29h-1.942a.194.194,0,0,1-.126-.034A.111.111,0,0,1,662,771.361Zm2.061-.151a1.807,1.807,0,0,0,.922-.226,1.5,1.5,0,0,0,.6-.668,2.483,2.483,0,0,0,.212-1.082,2.7,2.7,0,0,0-.144-.908,1.941,1.941,0,0,0-.416-.693,1.853,1.853,0,0,0-.653-.444,2.271,2.271,0,0,0-.858-.155h-.416v3.894a.253.253,0,0,0,.09.214.449.449,0,0,0,.276.07Z" transform="translate(-54.464 -435.674)" fill="#fff"></path><path d="M715.7,780.5a.309.309,0,0,1-.092.237.4.4,0,0,1-.272.083h-2.16v-.22H714.8c.118,0,.169-.05.169-.148a1.128,1.128,0,0,0-.2-.7.627.627,0,0,0-.523-.253.736.736,0,0,0-.453.147.976.976,0,0,0-.307.416,1.634,1.634,0,0,0-.111.63,1.442,1.442,0,0,0,.322,1.019,1.211,1.211,0,0,0,1.428.2.822.822,0,0,0,.348-.4.415.415,0,0,1,.072-.079.1.1,0,0,1,.066-.023.072.072,0,0,1,.068.04.218.218,0,0,1,.02.095.917.917,0,0,1-.2.507,1.28,1.28,0,0,1-.485.367,1.656,1.656,0,0,1-.688.137,1.724,1.724,0,0,1-.839-.2,1.42,1.42,0,0,1-.566-.561,1.7,1.7,0,0,1-.2-.848,1.922,1.922,0,0,1,.2-.882,1.506,1.506,0,0,1,.56-.613,1.632,1.632,0,0,1,.869-.224,1.5,1.5,0,0,1,.72.162,1.152,1.152,0,0,1,.474.447A1.3,1.3,0,0,1,715.7,780.5Z" transform="translate(-99.176 -446.668)" fill="#fff"></path><path d="M750.535,779.46v2.57a.236.236,0,0,0,.033.141.175.175,0,0,0,.1.063l.149.037c.071.022.108.06.108.118,0,.079-.053.119-.159.119h-1.205a.181.181,0,0,1-.118-.031.1.1,0,0,1-.037-.084.1.1,0,0,1,.029-.071.193.193,0,0,1,.09-.047l.159-.037a.173.173,0,0,0,.1-.063.231.231,0,0,0,.034-.137v-2.093a.182.182,0,0,0-.026-.111.118.118,0,0,0-.085-.041l-.226-.01a.159.159,0,0,1-.086-.035.081.081,0,0,1-.026-.063.1.1,0,0,1,.029-.075.273.273,0,0,1,.106-.057l.558-.2a1.521,1.521,0,0,1,.174-.057.5.5,0,0,1,.118-.017.172.172,0,0,1,.133.047A.187.187,0,0,1,750.535,779.46Zm-.1.72-.135-.136.148-.128a3.353,3.353,0,0,1,.71-.514,1.341,1.341,0,0,1,.584-.148.919.919,0,0,1,.691.27,1.007,1.007,0,0,1,.262.729v1.768a.237.237,0,0,0,.039.147.2.2,0,0,0,.11.069l.142.034a.192.192,0,0,1,.085.047.1.1,0,0,1,.03.071.106.106,0,0,1-.036.084.181.181,0,0,1-.118.031h-1.211c-.106,0-.159-.039-.159-.119,0-.054.036-.092.108-.118l.155-.037a.164.164,0,0,0,.107-.067.277.277,0,0,0,.032-.146v-1.658a.693.693,0,0,0-.167-.507.592.592,0,0,0-.444-.169.92.92,0,0,0-.367.088,1.792,1.792,0,0,0-.42.277Z" transform="translate(-131.491 -446.692)" fill="#fff"></path><path d="M791.194,774.352l-.175-.047a.273.273,0,0,1-.118-.056.1.1,0,0,1-.032-.072.1.1,0,0,1,.037-.082.17.17,0,0,1,.1-.026h.215a.305.305,0,0,0,.147-.029.239.239,0,0,0,.1-.105l.266-.49a.4.4,0,0,1,.1-.119.182.182,0,0,1,.108-.035.119.119,0,0,1,.091.038.15.15,0,0,1,.034.1v2.977a.567.567,0,0,0,.1.355.321.321,0,0,0,.265.118.37.37,0,0,0,.194-.043.335.335,0,0,0,.108-.1,1.094,1.094,0,0,1,.074-.1.118.118,0,0,1,.09-.04.08.08,0,0,1,.065.026.144.144,0,0,1,.022.091.449.449,0,0,1-.1.278.772.772,0,0,1-.289.216,1.007,1.007,0,0,1-.425.084.859.859,0,0,1-.592-.194.736.736,0,0,1-.221-.586v-1.971a.21.21,0,0,0-.034-.129A.235.235,0,0,0,791.194,774.352Zm.552-.013v-.27h1.066a.2.2,0,0,1,.109.025.089.089,0,0,1,.037.08.138.138,0,0,1-.072.118.426.426,0,0,1-.228.047Z" transform="translate(-168.076 -441.435)" fill="#fff"></path><path d="M820.246,781.838a.776.776,0,0,1,.355-.658,1.66,1.66,0,0,1,.994-.257,1.947,1.947,0,0,1,.423.043,1.6,1.6,0,0,1,.341.11l-.055.185a2.413,2.413,0,0,0-.289-.1,1.239,1.239,0,0,0-.322-.039.792.792,0,0,0-.523.159.618.618,0,0,0-.036.854.55.55,0,0,0,.393.143.977.977,0,0,0,.436-.1,1.071,1.071,0,0,0,.362-.292l.07.16a1.335,1.335,0,0,1-.515.424,1.55,1.55,0,0,1-.67.15,1.1,1.1,0,0,1-.7-.212A.685.685,0,0,1,820.246,781.838Zm2.013.284v-.068l-.045-.02v-1.93a.623.623,0,0,0-.147-.445.543.543,0,0,0-.417-.156.6.6,0,0,0-.386.105.316.316,0,0,0-.128.253v.266a.307.307,0,0,1-.106.251.454.454,0,0,1-.3.088.346.346,0,0,1-.253-.086.309.309,0,0,1-.088-.228.622.622,0,0,1,.165-.405,1.2,1.2,0,0,1,.474-.324,1.978,1.978,0,0,1,.753-.128,1.269,1.269,0,0,1,.859.248.843.843,0,0,1,.281.664v1.828a.249.249,0,0,0,.041.159.143.143,0,0,0,.119.051.157.157,0,0,0,.118-.039.906.906,0,0,0,.063-.076.16.16,0,0,1,.035-.036.066.066,0,0,1,.045-.015.06.06,0,0,1,.054.025.117.117,0,0,1,.017.07.369.369,0,0,1-.067.2.541.541,0,0,1-.2.174.658.658,0,0,1-.321.071.646.646,0,0,1-.422-.127.455.455,0,0,1-.147-.37Z" transform="translate(-193.974 -446.729)" fill="#fff"></path><path d="M858.658,764.763v4.331a.235.235,0,0,0,.034.141.172.172,0,0,0,.1.063l.152.033a.233.233,0,0,1,.09.05.1.1,0,0,1,.028.072.1.1,0,0,1-.038.084.187.187,0,0,1-.118.031h-1.225a.178.178,0,0,1-.118-.031.1.1,0,0,1-.038-.084.1.1,0,0,1,.029-.071.205.205,0,0,1,.09-.047l.159-.037a.176.176,0,0,0,.1-.063.236.236,0,0,0,.033-.137v-3.851a.2.2,0,0,0-.025-.119.119.119,0,0,0-.087-.041l-.226-.011a.148.148,0,0,1-.087-.032.09.09,0,0,1-.025-.066.1.1,0,0,1,.028-.072.289.289,0,0,1,.107-.056l.558-.2c.075-.027.133-.046.177-.058a.488.488,0,0,1,.119-.017.162.162,0,0,1,.182.179Z" transform="translate(-226.809 -433.755)" fill="#fff"></path><path d="M903.059,768.745a.965.965,0,0,0-.273.355,1.031,1.031,0,0,0-.1.443,1.287,1.287,0,0,0,.118.571.844.844,0,0,0,.334.371,1,1,0,0,0,.519.13,1.23,1.23,0,0,0,.625-.162,1.273,1.273,0,0,0,.466-.494l.179.146a2.05,2.05,0,0,1-.63.653,1.7,1.7,0,0,1-.934.237,1.67,1.67,0,0,1-.784-.168,1.186,1.186,0,0,1-.487-.451,1.2,1.2,0,0,1-.166-.617,1.146,1.146,0,0,1,.179-.621,1.371,1.371,0,0,1,.522-.466,2.07,2.07,0,0,1,.839-.218l.018.118A.819.819,0,0,0,903.059,768.745Zm.285-2.187a1.008,1.008,0,0,0-.176.612,1.262,1.262,0,0,0,.157.642.853.853,0,0,0,.495.381,1.645,1.645,0,0,1,.288.127,1.263,1.263,0,0,1,.237.184,3.069,3.069,0,0,1,.251.275l1.276,1.615a.706.706,0,0,0,.178.162.511.511,0,0,0,.221.062.265.265,0,0,1,.134.038.128.128,0,0,1-.006.2.247.247,0,0,1-.144.036h-.68a.619.619,0,0,1-.228-.038.43.43,0,0,1-.173-.139l-1.308-1.658a2.548,2.548,0,0,0-.329-.355.817.817,0,0,0-.276-.155,1.153,1.153,0,0,1-.841-1.163,1.235,1.235,0,0,1,.179-.657,1.249,1.249,0,0,1,.512-.46,1.722,1.722,0,0,1,.786-.169,1.646,1.646,0,0,1,.7.139,1.124,1.124,0,0,1,.463.377.927.927,0,0,1,.166.546,1.079,1.079,0,0,1-.615,1.013,2.326,2.326,0,0,1-.791.23l-.04-.131a.766.766,0,0,0,.534-.355,1.354,1.354,0,0,0,.172-.71,1.027,1.027,0,0,0-.183-.651.577.577,0,0,0-.474-.237A.57.57,0,0,0,903.345,766.558Zm2.169,2.514a.542.542,0,0,0,.088-.191.189.189,0,0,0-.017-.14.2.2,0,0,0-.118-.085l-.21-.05a.21.21,0,0,1-.092-.053.1.1,0,0,1-.03-.069.119.119,0,0,1,.047-.094.193.193,0,0,1,.119-.038h.993c.118,0,.173.043.173.128a.117.117,0,0,1-.031.083.338.338,0,0,1-.108.072.747.747,0,0,0-.268.141,1.516,1.516,0,0,0-.237.285l-.507.859-.153-.173Z" transform="translate(-265.988 -435.093)" fill="#fff"></path><path d="M972.345,767.634l.294.1-1.037,3.2c-.015.045-.029.088-.039.129a.6.6,0,0,0-.016.139v.118a.152.152,0,0,1-.037.11.135.135,0,0,1-.1.039h-.581a.148.148,0,0,1-.108-.039.145.145,0,0,1-.04-.11V771.2a.437.437,0,0,0-.011-.1.629.629,0,0,0-.037-.134l-1.168-3.737a.336.336,0,0,0-.068-.129.291.291,0,0,0-.112-.064l-.152-.044a.174.174,0,0,1-.1-.054.117.117,0,0,1-.026-.077.108.108,0,0,1,.04-.087.215.215,0,0,1,.133-.032h1.405a.219.219,0,0,1,.13.032.108.108,0,0,1,.042.09q0,.095-.118.118l-.26.042c-.057.01-.089.036-.1.073a.419.419,0,0,0,.023.186l1.152,3.727-.277.206Zm2.142-.771a.107.107,0,0,1,.044-.092.22.22,0,0,1,.129-.032H975.7a.2.2,0,0,1,.133.033.111.111,0,0,1,.039.089.1.1,0,0,1-.025.07.275.275,0,0,1-.106.058l-.138.044a.414.414,0,0,0-.159.119.715.715,0,0,0-.118.253l-1.066,3.527c-.019.062-.032.109-.041.146a.532.532,0,0,0-.013.119v.118a.153.153,0,0,1-.037.11.135.135,0,0,1-.1.039h-.615a.145.145,0,0,1-.107-.039.15.15,0,0,1-.039-.11v-.224a.739.739,0,0,0-.031-.146l-1.118-3.723a.444.444,0,0,0-.066-.146.187.187,0,0,0-.092-.055l-.153-.044a.2.2,0,0,1-.1-.049.1.1,0,0,1-.025-.07.108.108,0,0,1,.041-.092.212.212,0,0,1,.127-.032h1.381a.219.219,0,0,1,.13.032.11.11,0,0,1,.042.092.1.1,0,0,1-.032.078.226.226,0,0,1-.1.047l-.253.037a.118.118,0,0,0-.095.068.368.368,0,0,0,.024.189l1.108,3.72-.237.179,1.142-3.8a.392.392,0,0,0,.017-.237c-.02-.053-.08-.094-.182-.118l-.226-.042a.19.19,0,0,1-.095-.045A.1.1,0,0,1,974.487,766.864Z" transform="translate(-325.125 -435.656)" fill="#fff"></path><path d="M1036.057,780.5a.309.309,0,0,1-.094.237.4.4,0,0,1-.272.083h-2.158v-.22h1.626c.112,0,.168-.05.168-.148a1.127,1.127,0,0,0-.2-.7.629.629,0,0,0-.524-.253.732.732,0,0,0-.453.147.976.976,0,0,0-.308.415,1.654,1.654,0,0,0-.111.63,1.444,1.444,0,0,0,.323,1.019,1.21,1.21,0,0,0,1.427.2.82.82,0,0,0,.348-.4.461.461,0,0,1,.073-.079.1.1,0,0,1,.065-.022.07.07,0,0,1,.068.04.2.2,0,0,1,.021.095.909.909,0,0,1-.2.507,1.262,1.262,0,0,1-.484.367,1.653,1.653,0,0,1-.688.137,1.719,1.719,0,0,1-.839-.2,1.41,1.41,0,0,1-.566-.561,1.7,1.7,0,0,1-.2-.848,1.94,1.94,0,0,1,.2-.882,1.5,1.5,0,0,1,.561-.613,1.627,1.627,0,0,1,.868-.224,1.5,1.5,0,0,1,.72.162,1.156,1.156,0,0,1,.474.448A1.3,1.3,0,0,1,1036.057,780.5Z" transform="translate(-381.606 -446.668)" fill="#fff"></path><path d="M1070.849,764.769V769.1a.239.239,0,0,0,.034.141.172.172,0,0,0,.1.063l.151.033a.232.232,0,0,1,.09.05.1.1,0,0,1,.029.072.1.1,0,0,1-.038.084.184.184,0,0,1-.118.031h-1.226a.18.18,0,0,1-.118-.031.1.1,0,0,1-.038-.084.1.1,0,0,1,.03-.071.2.2,0,0,1,.089-.047l.159-.037a.175.175,0,0,0,.1-.063.233.233,0,0,0,.033-.137v-3.852a.2.2,0,0,0-.025-.118.117.117,0,0,0-.086-.041l-.226-.011a.152.152,0,0,1-.086-.032.089.089,0,0,1-.025-.066.1.1,0,0,1,.028-.072.291.291,0,0,1,.107-.056l.557-.2c.075-.027.134-.046.178-.058a.5.5,0,0,1,.118-.017.182.182,0,0,1,.137.047A.178.178,0,0,1,1070.849,764.769Z" transform="translate(-413.876 -433.761)" fill="#fff"></path><path d="M1095.169,764.77V769.1a.237.237,0,0,0,.033.141.175.175,0,0,0,.1.063l.151.033a.229.229,0,0,1,.09.05.1.1,0,0,1,.028.072.1.1,0,0,1-.037.084.19.19,0,0,1-.118.031h-1.227a.182.182,0,0,1-.119-.031.1.1,0,0,1-.036-.084.1.1,0,0,1,.028-.071.2.2,0,0,1,.089-.047l.16-.037a.173.173,0,0,0,.1-.063.232.232,0,0,0,.035-.137v-3.852a.194.194,0,0,0-.026-.118.119.119,0,0,0-.085-.041l-.228-.011a.143.143,0,0,1-.085-.032.087.087,0,0,1-.026-.066.1.1,0,0,1,.029-.072.306.306,0,0,1,.107-.056l.558-.2c.074-.027.134-.046.177-.058a.491.491,0,0,1,.118-.017.162.162,0,0,1,.181.184Z" transform="translate(-435.316 -433.761)" fill="#fff"></path><path d="M1119.488,779.46v2.57a.237.237,0,0,0,.035.141.171.171,0,0,0,.1.063l.149.037c.072.022.108.06.108.118,0,.079-.054.118-.159.118h-1.21a.183.183,0,0,1-.118-.031.109.109,0,0,1-.008-.155.2.2,0,0,1,.09-.047l.159-.036a.18.18,0,0,0,.1-.063.24.24,0,0,0,.033-.138v-2.093a.192.192,0,0,0-.025-.111.118.118,0,0,0-.086-.041l-.226-.01a.163.163,0,0,1-.086-.035.087.087,0,0,1-.025-.063.1.1,0,0,1,.028-.074.273.273,0,0,1,.107-.057l.558-.2a1.531,1.531,0,0,1,.174-.057.479.479,0,0,1,.118-.017.17.17,0,0,1,.131.047A.183.183,0,0,1,1119.488,779.46Zm-.1.72-.135-.136.149-.128a3.309,3.309,0,0,1,.71-.514,1.341,1.341,0,0,1,.585-.148.918.918,0,0,1,.69.27,1,1,0,0,1,.262.729v1.768a.238.238,0,0,0,.039.147.2.2,0,0,0,.11.068l.142.034a.208.208,0,0,1,.087.047.1.1,0,0,1,.028.071.105.105,0,0,1-.036.084.181.181,0,0,1-.118.031h-1.212c-.105,0-.159-.039-.159-.118,0-.054.035-.092.108-.118l.155-.037a.164.164,0,0,0,.107-.068.276.276,0,0,0,.032-.145V780.36a.692.692,0,0,0-.167-.507.593.593,0,0,0-.444-.17.924.924,0,0,0-.367.088,1.8,1.8,0,0,0-.42.277Z" transform="translate(-456.757 -446.692)" fill="#fff"></path><path d="M1163.9,780.5a.31.31,0,0,1-.092.237.4.4,0,0,1-.272.083h-2.158v-.22H1163c.118,0,.169-.05.169-.148a1.123,1.123,0,0,0-.2-.7.625.625,0,0,0-.523-.253.729.729,0,0,0-.452.147.969.969,0,0,0-.308.416,1.632,1.632,0,0,0-.111.63,1.448,1.448,0,0,0,.322,1.019,1.211,1.211,0,0,0,1.428.2.819.819,0,0,0,.348-.4.459.459,0,0,1,.073-.079.1.1,0,0,1,.066-.023.069.069,0,0,1,.067.04.215.215,0,0,1,.02.095.9.9,0,0,1-.2.507,1.269,1.269,0,0,1-.486.367,1.644,1.644,0,0,1-.687.137,1.715,1.715,0,0,1-.839-.2,1.411,1.411,0,0,1-.566-.561,1.69,1.69,0,0,1-.2-.848,1.92,1.92,0,0,1,.2-.882,1.5,1.5,0,0,1,.56-.613,1.631,1.631,0,0,1,.869-.224,1.5,1.5,0,0,1,.72.162,1.151,1.151,0,0,1,.473.447A1.283,1.283,0,0,1,1163.9,780.5Z" transform="translate(-494.31 -446.668)" fill="#fff"></path><path d="M1199.034,779.55a.584.584,0,0,0-.4.129.431.431,0,0,0-.147.34.456.456,0,0,0,.06.237.549.549,0,0,0,.22.188,1.992,1.992,0,0,0,.453.161,2.633,2.633,0,0,1,.735.265.97.97,0,0,1,.373.355.91.91,0,0,1,.109.443.859.859,0,0,1-.31.692,1.612,1.612,0,0,1-1.229.224,2.028,2.028,0,0,1-.229-.075.434.434,0,0,0-.162-.037.137.137,0,0,0-.1.039l-.071.076a.118.118,0,0,1-.095.037.1.1,0,0,1-.075-.029.291.291,0,0,1-.051-.1l-.25-.71a.339.339,0,0,1-.019-.157.111.111,0,0,1,.077-.087.133.133,0,0,1,.118,0,.217.217,0,0,1,.086.089,1.678,1.678,0,0,0,.322.438,1.065,1.065,0,0,0,.369.229,1.2,1.2,0,0,0,.4.068.734.734,0,0,0,.482-.136.445.445,0,0,0,.16-.355.455.455,0,0,0-.067-.237.634.634,0,0,0-.246-.2,2.3,2.3,0,0,0-.51-.175,2.461,2.461,0,0,1-.657-.237.889.889,0,0,1-.355-.341.97.97,0,0,1-.106-.463.849.849,0,0,1,.135-.474.912.912,0,0,1,.383-.323,1.346,1.346,0,0,1,.578-.119,1.221,1.221,0,0,1,.346.04,1.542,1.542,0,0,1,.22.083.35.35,0,0,0,.153.043.148.148,0,0,0,.119-.043c.027-.029.052-.056.075-.083a.119.119,0,0,1,.091-.04.1.1,0,0,1,.07.029.18.18,0,0,1,.041.1l.193.673a.534.534,0,0,1,.016.167.1.1,0,0,1-.073.094.11.11,0,0,1-.109-.011.4.4,0,0,1-.1-.118,1.249,1.249,0,0,0-.46-.522A1.092,1.092,0,0,0,1199.034,779.55Z" transform="translate(-526.863 -446.73)" fill="#fff"></path><path d="M1232.709,779.55a.59.59,0,0,0-.4.129.437.437,0,0,0-.147.34.453.453,0,0,0,.062.237.545.545,0,0,0,.219.188,2.019,2.019,0,0,0,.453.161,2.641,2.641,0,0,1,.734.265.963.963,0,0,1,.374.355.925.925,0,0,1,.108.443.862.862,0,0,1-.309.691,1.618,1.618,0,0,1-1.23.224,2.114,2.114,0,0,1-.228-.075.44.44,0,0,0-.162-.037.136.136,0,0,0-.1.039l-.071.076a.119.119,0,0,1-.095.037.1.1,0,0,1-.075-.028.277.277,0,0,1-.05-.1l-.251-.71a.325.325,0,0,1-.018-.157.111.111,0,0,1,.076-.087.136.136,0,0,1,.118,0,.221.221,0,0,1,.085.089,1.672,1.672,0,0,0,.323.438,1.055,1.055,0,0,0,.368.229,1.2,1.2,0,0,0,.4.068.735.735,0,0,0,.482-.136.444.444,0,0,0,.16-.355.452.452,0,0,0-.067-.237.625.625,0,0,0-.246-.2,2.3,2.3,0,0,0-.51-.175,2.46,2.46,0,0,1-.657-.237.888.888,0,0,1-.355-.341.969.969,0,0,1-.107-.463.846.846,0,0,1,.135-.474.915.915,0,0,1,.382-.323,1.352,1.352,0,0,1,.578-.118,1.208,1.208,0,0,1,.346.04,1.473,1.473,0,0,1,.22.083.36.36,0,0,0,.154.043.152.152,0,0,0,.118-.043c.027-.028.052-.056.075-.083a.11.11,0,0,1,.091-.04.1.1,0,0,1,.069.028.191.191,0,0,1,.042.1l.192.672a.5.5,0,0,1,.018.167.118.118,0,0,1-.182.083.383.383,0,0,1-.1-.119,1.252,1.252,0,0,0-.459-.522A1.1,1.1,0,0,0,1232.709,779.55Z" transform="translate(-556.55 -446.73)" fill="#fff"></path></g></svg>