<svg xmlns="http://www.w3.org/2000/svg" width="122" height="90.691" viewBox="0 0 122 90.691"><g transform="translate(-600.22 -272.57)"><path d="M902.641,291.568l4.069,6.155,7.642-15.583-4.763-6.65-6.948,3.077-6.948-3.077-4.763,6.65,7.642,15.583Z" transform="translate(-241.421 -2.425)" fill="#8f9e7d"></path><path d="M902.641,467.793l-4.069-6.153-7.642,15.581,4.763,6.65,6.948-3.076,6.948,3.076,4.763-6.65L906.71,461.64Z" transform="translate(-241.421 -157.014)" fill="#8f9e7d"></path><path d="M1009.741,369.823l-6.65-4.762L987.51,372.7l6.153,4.069-6.153,4.069,15.581,7.641,6.65-4.764-3.075-6.946Z" transform="translate(-321.626 -76.809)" fill="#8f9e7d"></path><path d="M817.448,376.771,823.6,372.7,808.02,365.06l-6.65,4.762,3.075,6.948-3.075,6.946,6.65,4.764L823.6,380.84Z" transform="translate(-167.045 -76.809)" fill="#8f9e7d"></path><path d="M811.783,279.021l6.449,13-13-6.5L798.88,272.57Z" transform="translate(-164.978)" fill="#758268"></path><path d="M1013.43,279.021l-6.45,13,13-6.5,6.351-12.952Z" transform="translate(-337.795)" fill="#758268"></path><path d="M1013.43,494.721l-6.45-13,13,6.5,6.351,12.952Z" transform="translate(-337.795 -173.689)" fill="#758268"></path><path d="M811.783,494.721l6.449-13-13,6.5-6.351,12.952Z" transform="translate(-164.978 -173.689)" fill="#758268"></path><path d="M604.516,650.2v5.734a8.442,8.442,0,0,0,2.267-.24,2,2,0,0,0,1.168-.75,2.3,2.3,0,0,0,.339-1.307H609v5.453h-.7a2.47,2.47,0,0,0-.32-1.317,1.954,1.954,0,0,0-1.14-.78,8.118,8.118,0,0,0-2.316-.259v4.515a2.558,2.558,0,0,0,.309,1.356,1.71,1.71,0,0,0,1.029.709,7.33,7.33,0,0,0,1.979.21,7.458,7.458,0,0,0,2.258-.278,2.559,2.559,0,0,0,1.328-.949,5.016,5.016,0,0,0,.739-1.847h.76l-.3,3.935H600.22v-.76a5.033,5.033,0,0,0,1.409-.21.983.983,0,0,0,.629-.649,4.744,4.744,0,0,0,.159-1.417v-9.31a5.292,5.292,0,0,0-.139-1.409.961.961,0,0,0-.57-.648,4,4,0,0,0-1.289-.22V649h11.548l.18,3.516h-.7a3.688,3.688,0,0,0-.588-1.638,2.219,2.219,0,0,0-1.27-.8,8.987,8.987,0,0,0-2.2-.219h-2.543a.3.3,0,0,0-.325.338Z" transform="translate(0 -312.607)" fill="#758268"></path><path d="M781.146,664.381H768.24v-.76a5.052,5.052,0,0,0,1.409-.21.988.988,0,0,0,.629-.649,4.75,4.75,0,0,0,.159-1.417v-9.31a5.3,5.3,0,0,0-.139-1.409.96.96,0,0,0-.569-.648,4,4,0,0,0-1.289-.22V649h6.073v.759a3.449,3.449,0,0,0-1.278.21,1,1,0,0,0-.559.688,6.071,6.071,0,0,0-.141,1.526v8.61a3.667,3.667,0,0,0,.31,1.7,1.644,1.644,0,0,0,1.089.79,8.744,8.744,0,0,0,2.158.208,9.863,9.863,0,0,0,2.437-.246,2.449,2.449,0,0,0,1.389-.9,5.1,5.1,0,0,0,.769-1.9h.758Z" transform="translate(-139.533 -312.607)" fill="#758268"></path><path d="M936.38,664.381v-.76a4.277,4.277,0,0,0,1.407-.239,1.11,1.11,0,0,0,.629-.8,7.692,7.692,0,0,0,.17-1.838v-8.11a8.162,8.162,0,0,0-.141-1.738,1.249,1.249,0,0,0-.57-.847,2.9,2.9,0,0,0-1.288-.29V649h6.073v.759a2.7,2.7,0,0,0-1.278.27,1.287,1.287,0,0,0-.559.888,9.307,9.307,0,0,0-.139,1.865v7.831a9.207,9.207,0,0,0,.149,1.948,1.1,1.1,0,0,0,.62.829,4.284,4.284,0,0,0,1.407.239v.76Z" transform="translate(-279.165 -312.607)" fill="#758268"></path><path d="M1079.995,649l.2,3.817h-.819a4.248,4.248,0,0,0-.45-1.8,2.006,2.006,0,0,0-1.09-.9,5.642,5.642,0,0,0-1.877-.259,13.474,13.474,0,0,0-1.468.059,1.315,1.315,0,0,0-.639.19.462.462,0,0,0-.151.37V661.16a4.648,4.648,0,0,0,.169,1.389,1.253,1.253,0,0,0,.729.778,4.74,4.74,0,0,0,1.677.29v.759h-7.55v-.759a4.8,4.8,0,0,0,1.7-.29,1.286,1.286,0,0,0,.729-.778,4.408,4.408,0,0,0,.18-1.389V650.478a.478.478,0,0,0-.139-.37,1.079,1.079,0,0,0-.55-.19,9.912,9.912,0,0,0-1.268-.059,13.98,13.98,0,0,0-1.439.07,3,3,0,0,0-1.158.349,1.923,1.923,0,0,0-.789.88,4.248,4.248,0,0,0-.339,1.658h-.739V649Z" transform="translate(-385.903 -312.607)" fill="#758268"></path><path d="M1249.126,650.2v5.734a8.429,8.429,0,0,0,2.267-.24,2.009,2.009,0,0,0,1.17-.75,2.317,2.317,0,0,0,.339-1.307h.7v5.453h-.7a2.488,2.488,0,0,0-.318-1.317,1.955,1.955,0,0,0-1.14-.78,8.126,8.126,0,0,0-2.318-.259v4.515a2.557,2.557,0,0,0,.311,1.356,1.7,1.7,0,0,0,1.029.709,7.3,7.3,0,0,0,1.977.21,7.463,7.463,0,0,0,2.267-.278,2.57,2.57,0,0,0,1.329-.95,5.041,5.041,0,0,0,.739-1.846h.76l-.3,3.935H1244.83v-.76a5.052,5.052,0,0,0,1.409-.21.988.988,0,0,0,.629-.649,4.742,4.742,0,0,0,.159-1.417v-9.31a5.358,5.358,0,0,0-.139-1.409.959.959,0,0,0-.57-.648,4,4,0,0,0-1.289-.22V649h11.547l.18,3.516h-.7a3.648,3.648,0,0,0-.59-1.638,2.214,2.214,0,0,0-1.268-.8,8.986,8.986,0,0,0-2.2-.219h-2.544a.3.3,0,0,0-.325.338Z" transform="translate(-535.318 -312.607)" fill="#758268"></path><path d="M662,773.351q0-.144.183-.2l.315-.058a.349.349,0,0,0,.182-.095.232.232,0,0,0,.061-.17v-5.376a.239.239,0,0,0-.061-.17.363.363,0,0,0-.182-.093l-.315-.059q-.183-.054-.183-.2a.159.159,0,0,1,.058-.132.291.291,0,0,1,.18-.046h2.36a4.885,4.885,0,0,1,1.643.263,3.789,3.789,0,0,1,1.27.743,3.288,3.288,0,0,1,.819,1.131,3.546,3.546,0,0,1,.285,1.435,3.187,3.187,0,0,1-.424,1.646,2.956,2.956,0,0,1-1.224,1.141,4.181,4.181,0,0,1-1.941.415h-2.78a.277.277,0,0,1-.18-.049A.159.159,0,0,1,662,773.351Zm2.952-.217a2.587,2.587,0,0,0,1.321-.324,2.147,2.147,0,0,0,.858-.956,3.556,3.556,0,0,0,.3-1.549,3.866,3.866,0,0,0-.207-1.3,2.782,2.782,0,0,0-.6-.992,2.654,2.654,0,0,0-.936-.636,3.251,3.251,0,0,0-1.229-.222h-.6v5.576a.363.363,0,0,0,.129.307.641.641,0,0,0,.4.1Z" transform="translate(-51.304 -410.397)" fill="#2e4d6a"></path><path d="M716.984,781.052a.442.442,0,0,1-.132.339.577.577,0,0,1-.39.119h-3.093v-.315H715.7c.169,0,.242-.071.242-.212a1.615,1.615,0,0,0-.281-1.007.9.9,0,0,0-.749-.363,1.053,1.053,0,0,0-.649.21,1.4,1.4,0,0,0-.439.6,2.34,2.34,0,0,0-.159.9,2.066,2.066,0,0,0,.461,1.46,1.735,1.735,0,0,0,2.045.283,1.177,1.177,0,0,0,.5-.566.594.594,0,0,1,.1-.114.147.147,0,0,1,.095-.032.1.1,0,0,1,.1.058.31.31,0,0,1,.029.136,1.313,1.313,0,0,1-.29.726,1.832,1.832,0,0,1-.7.525,2.372,2.372,0,0,1-.985.2,2.468,2.468,0,0,1-1.2-.286,2.032,2.032,0,0,1-.81-.8,2.439,2.439,0,0,1-.29-1.214,2.753,2.753,0,0,1,.281-1.263,2.157,2.157,0,0,1,.8-.878,2.337,2.337,0,0,1,1.245-.321,2.15,2.15,0,0,1,1.031.232,1.652,1.652,0,0,1,.678.641A1.865,1.865,0,0,1,716.984,781.052Z" transform="translate(-93.422 -420.753)" fill="#2e4d6a"></path><path d="M751.038,779.549v3.681a.34.34,0,0,0,.047.2.25.25,0,0,0,.146.09l.214.053c.1.032.155.086.155.169,0,.114-.076.17-.227.17h-1.726a.259.259,0,0,1-.17-.044.146.146,0,0,1-.052-.12.143.143,0,0,1,.041-.1.278.278,0,0,1,.129-.068l.227-.053a.248.248,0,0,0,.144-.09.331.331,0,0,0,.049-.2v-3a.259.259,0,0,0-.037-.159.169.169,0,0,0-.122-.059l-.324-.014a.228.228,0,0,1-.124-.051.116.116,0,0,1-.037-.09.143.143,0,0,1,.042-.107.391.391,0,0,1,.151-.081l.8-.281a2.2,2.2,0,0,1,.249-.081.718.718,0,0,1,.17-.024.246.246,0,0,1,.19.068A.268.268,0,0,1,751.038,779.549Zm-.141,1.031-.193-.2.212-.183a4.794,4.794,0,0,1,1.017-.736,1.92,1.92,0,0,1,.836-.212,1.316,1.316,0,0,1,.99.387,1.441,1.441,0,0,1,.375,1.044v2.531a.34.34,0,0,0,.056.21.291.291,0,0,0,.158.1l.2.049a.274.274,0,0,1,.122.068.138.138,0,0,1,.042.1.152.152,0,0,1-.051.12.259.259,0,0,1-.17.044h-1.734c-.152,0-.227-.056-.227-.17,0-.078.051-.132.154-.169l.222-.053a.235.235,0,0,0,.153-.1.4.4,0,0,0,.046-.209v-2.374a.991.991,0,0,0-.239-.726.848.848,0,0,0-.636-.243,1.317,1.317,0,0,0-.526.126,2.565,2.565,0,0,0-.6.4Z" transform="translate(-123.862 -420.776)" fill="#2e4d6a"></path><path d="M791.335,774.81l-.251-.068a.39.39,0,0,1-.17-.08.142.142,0,0,1-.046-.1.136.136,0,0,1,.052-.117.242.242,0,0,1,.146-.037h.308a.437.437,0,0,0,.21-.042.341.341,0,0,0,.139-.151l.381-.7a.57.57,0,0,1,.146-.17.261.261,0,0,1,.154-.051.171.171,0,0,1,.131.054.215.215,0,0,1,.049.149v4.262a.811.811,0,0,0,.137.509.46.46,0,0,0,.38.17.531.531,0,0,0,.278-.061.481.481,0,0,0,.155-.141,1.546,1.546,0,0,1,.107-.137.17.17,0,0,1,.129-.058.114.114,0,0,1,.093.037.205.205,0,0,1,.032.131.643.643,0,0,1-.149.4,1.106,1.106,0,0,1-.414.309,1.44,1.44,0,0,1-.609.12,1.231,1.231,0,0,1-.848-.278,1.054,1.054,0,0,1-.317-.839v-2.823a.3.3,0,0,0-.049-.185A.337.337,0,0,0,791.335,774.81Zm.79-.019v-.387h1.526a.283.283,0,0,1,.156.036.128.128,0,0,1,.053.114.2.2,0,0,1-.1.169.608.608,0,0,1-.327.068Z" transform="translate(-158.324 -415.824)" fill="#2e4d6a"></path><path d="M820.246,782.937a1.111,1.111,0,0,1,.509-.943,2.377,2.377,0,0,1,1.424-.368,2.776,2.776,0,0,1,.605.061,2.275,2.275,0,0,1,.488.158l-.078.264a3.466,3.466,0,0,0-.414-.137,1.774,1.774,0,0,0-.461-.056,1.134,1.134,0,0,0-.75.227.885.885,0,0,0-.051,1.222.788.788,0,0,0,.563.205,1.4,1.4,0,0,0,.624-.147,1.532,1.532,0,0,0,.519-.419l.1.229a1.914,1.914,0,0,1-.737.607,2.218,2.218,0,0,1-.96.215,1.579,1.579,0,0,1-1-.3A.982.982,0,0,1,820.246,782.937Zm2.882.407v-.1l-.064-.029v-2.764a.891.891,0,0,0-.21-.638.779.779,0,0,0-.6-.224.863.863,0,0,0-.553.151.453.453,0,0,0-.183.363v.382a.441.441,0,0,1-.152.359.651.651,0,0,1-.424.126.5.5,0,0,1-.363-.124.443.443,0,0,1-.125-.327.891.891,0,0,1,.236-.58,1.721,1.721,0,0,1,.678-.464,2.832,2.832,0,0,1,1.078-.183,1.817,1.817,0,0,1,1.229.354,1.208,1.208,0,0,1,.4.951v2.618a.357.357,0,0,0,.059.227.206.206,0,0,0,.17.073.225.225,0,0,0,.17-.056,1.324,1.324,0,0,0,.09-.109.226.226,0,0,1,.051-.051.1.1,0,0,1,.064-.022.087.087,0,0,1,.078.036.168.168,0,0,1,.024.1.53.53,0,0,1-.1.288.775.775,0,0,1-.28.249.942.942,0,0,1-.459.1.924.924,0,0,1-.6-.181.652.652,0,0,1-.21-.531Z" transform="translate(-182.721 -420.81)" fill="#2e4d6a"></path><path d="M859.163,764.843v6.2a.338.338,0,0,0,.049.2.249.249,0,0,0,.144.09l.218.047a.336.336,0,0,1,.129.071.14.14,0,0,1,.041.1.148.148,0,0,1-.054.12.269.269,0,0,1-.17.044h-1.755a.256.256,0,0,1-.17-.044.149.149,0,0,1-.054-.12.146.146,0,0,1,.041-.1.3.3,0,0,1,.129-.068l.227-.052a.253.253,0,0,0,.146-.09.339.339,0,0,0,.047-.2v-5.515a.29.29,0,0,0-.036-.17.171.171,0,0,0-.124-.059l-.324-.015a.21.21,0,0,1-.124-.046.128.128,0,0,1-.036-.1.142.142,0,0,1,.041-.1.412.412,0,0,1,.153-.079l.8-.28c.107-.039.19-.066.254-.083a.7.7,0,0,1,.17-.024.232.232,0,0,1,.261.256Z" transform="translate(-213.65 -408.589)" fill="#2e4d6a"></path><path d="M903.547,769.889a1.382,1.382,0,0,0-.391.509,1.479,1.479,0,0,0-.139.634,1.843,1.843,0,0,0,.169.817,1.211,1.211,0,0,0,.478.531,1.429,1.429,0,0,0,.743.187,1.763,1.763,0,0,0,.9-.232,1.822,1.822,0,0,0,.668-.707l.256.208a2.935,2.935,0,0,1-.9.934,2.438,2.438,0,0,1-1.338.339,2.392,2.392,0,0,1-1.122-.24,1.7,1.7,0,0,1-.7-.646,1.72,1.72,0,0,1-.237-.883,1.639,1.639,0,0,1,.256-.889,1.963,1.963,0,0,1,.748-.668,2.967,2.967,0,0,1,1.2-.312l.025.17A1.172,1.172,0,0,0,903.547,769.889Zm.409-3.131a1.443,1.443,0,0,0-.252.877,1.806,1.806,0,0,0,.225.919,1.222,1.222,0,0,0,.709.546,2.367,2.367,0,0,1,.412.181,1.809,1.809,0,0,1,.339.263,4.378,4.378,0,0,1,.359.393l1.828,2.313a1.013,1.013,0,0,0,.254.232.73.73,0,0,0,.317.088.379.379,0,0,1,.192.054.184.184,0,0,1-.008.286.354.354,0,0,1-.207.051h-.973a.885.885,0,0,1-.327-.054.616.616,0,0,1-.248-.2l-1.873-2.374a3.662,3.662,0,0,0-.471-.509,1.172,1.172,0,0,0-.4-.222,1.652,1.652,0,0,1-1.2-1.665,1.767,1.767,0,0,1,.256-.941,1.788,1.788,0,0,1,.732-.659,2.467,2.467,0,0,1,1.126-.243,2.355,2.355,0,0,1,1.005.2,1.611,1.611,0,0,1,.663.539,1.327,1.327,0,0,1,.237.781,1.545,1.545,0,0,1-.88,1.451,3.327,3.327,0,0,1-1.132.329l-.058-.188a1.1,1.1,0,0,0,.765-.509,1.936,1.936,0,0,0,.246-1.017,1.471,1.471,0,0,0-.263-.932.826.826,0,0,0-.678-.339A.816.816,0,0,0,903.956,766.758Zm3.106,3.6a.775.775,0,0,0,.125-.273.271.271,0,0,0-.024-.2.289.289,0,0,0-.17-.122l-.3-.071a.3.3,0,0,1-.132-.076.139.139,0,0,1-.042-.1.17.17,0,0,1,.068-.134.276.276,0,0,1,.17-.054h1.422c.17,0,.248.061.248.183a.169.169,0,0,1-.044.119.483.483,0,0,1-.154.1,1.068,1.068,0,0,0-.383.2,2.165,2.165,0,0,0-.339.408l-.726,1.229-.219-.247Z" transform="translate(-250.556 -409.85)" fill="#2e4d6a"></path><path d="M973.786,768.023l.421.141-1.485,4.578c-.022.064-.041.125-.056.185a.867.867,0,0,0-.022.2v.169a.218.218,0,0,1-.052.158.194.194,0,0,1-.146.056h-.833a.213.213,0,0,1-.154-.056.207.207,0,0,1-.057-.158v-.169a.633.633,0,0,0-.016-.148.9.9,0,0,0-.052-.192l-1.673-5.351a.479.479,0,0,0-.1-.185.413.413,0,0,0-.161-.092l-.217-.063a.249.249,0,0,1-.137-.078.168.168,0,0,1-.037-.11.153.153,0,0,1,.057-.124.308.308,0,0,1,.19-.046h2.012a.313.313,0,0,1,.187.046.155.155,0,0,1,.059.129q0,.136-.17.17l-.373.059c-.081.015-.127.051-.141.1a.6.6,0,0,0,.034.266l1.65,5.337-.4.3Zm3.067-1.1a.154.154,0,0,1,.063-.132.314.314,0,0,1,.185-.046h1.485a.292.292,0,0,1,.19.047.16.16,0,0,1,.056.127.141.141,0,0,1-.035.1.392.392,0,0,1-.153.083l-.2.063a.591.591,0,0,0-.227.17,1.027,1.027,0,0,0-.169.363l-1.526,5.051c-.027.088-.046.156-.059.209a.762.762,0,0,0-.019.17v.17a.218.218,0,0,1-.053.157.193.193,0,0,1-.146.056h-.88a.207.207,0,0,1-.153-.056.216.216,0,0,1-.056-.157v-.321a1.047,1.047,0,0,0-.044-.208l-1.6-5.331a.635.635,0,0,0-.1-.209.268.268,0,0,0-.132-.078l-.219-.062a.285.285,0,0,1-.137-.07.147.147,0,0,1-.035-.1.155.155,0,0,1,.059-.132.3.3,0,0,1,.181-.046h1.977a.313.313,0,0,1,.186.046.158.158,0,0,1,.059.132.146.146,0,0,1-.046.112.323.323,0,0,1-.142.068l-.363.052a.169.169,0,0,0-.136.1.528.528,0,0,0,.034.271l1.587,5.327-.339.256,1.636-5.448a.562.562,0,0,0,.024-.339c-.029-.076-.115-.134-.261-.169l-.324-.059a.272.272,0,0,1-.135-.064A.149.149,0,0,1,976.853,766.919Z" transform="translate(-306.262 -410.381)" fill="#2e4d6a"></path><path d="M1037.344,781.052a.442.442,0,0,1-.134.339.572.572,0,0,1-.39.119h-3.091v-.315h2.328c.161,0,.241-.071.241-.212a1.614,1.614,0,0,0-.28-1.007.9.9,0,0,0-.751-.363,1.049,1.049,0,0,0-.648.21,1.4,1.4,0,0,0-.44.595,2.366,2.366,0,0,0-.16.9,2.068,2.068,0,0,0,.463,1.46,1.733,1.733,0,0,0,2.043.283,1.174,1.174,0,0,0,.5-.566.662.662,0,0,1,.1-.114.144.144,0,0,1,.093-.032.1.1,0,0,1,.1.058.29.29,0,0,1,.03.136,1.3,1.3,0,0,1-.292.726,1.808,1.808,0,0,1-.693.526,2.369,2.369,0,0,1-.985.2,2.462,2.462,0,0,1-1.2-.287,2.016,2.016,0,0,1-.81-.8,2.436,2.436,0,0,1-.29-1.214,2.776,2.776,0,0,1,.28-1.263,2.152,2.152,0,0,1,.8-.878,2.33,2.33,0,0,1,1.243-.32,2.147,2.147,0,0,1,1.031.232,1.656,1.656,0,0,1,.678.641A1.865,1.865,0,0,1,1037.344,781.052Z" transform="translate(-359.466 -420.753)" fill="#2e4d6a"></path><path d="M1071.355,764.849v6.2a.343.343,0,0,0,.049.2.246.246,0,0,0,.146.09l.217.047a.332.332,0,0,1,.129.071.14.14,0,0,1,.041.1.148.148,0,0,1-.055.12.263.263,0,0,1-.169.044h-1.756a.258.258,0,0,1-.169-.044.146.146,0,0,1-.054-.12.138.138,0,0,1,.042-.1.279.279,0,0,1,.127-.068l.227-.052a.25.25,0,0,0,.146-.09.332.332,0,0,0,.048-.2V765.54a.287.287,0,0,0-.035-.17.169.169,0,0,0-.124-.059l-.324-.015a.217.217,0,0,1-.124-.046.127.127,0,0,1-.035-.095.142.142,0,0,1,.04-.1.417.417,0,0,1,.153-.08l.8-.279c.107-.039.192-.066.254-.083a.724.724,0,0,1,.17-.024.26.26,0,0,1,.2.068A.254.254,0,0,1,1071.355,764.849Z" transform="translate(-389.864 -408.595)" fill="#2e4d6a"></path><path d="M1095.674,764.849v6.2a.339.339,0,0,0,.048.2.25.25,0,0,0,.146.09l.217.048a.326.326,0,0,1,.129.071.141.141,0,0,1,.041.1.145.145,0,0,1-.052.12.272.272,0,0,1-.17.044h-1.757a.259.259,0,0,1-.17-.044.147.147,0,0,1-.052-.12.143.143,0,0,1,.041-.1.281.281,0,0,1,.127-.068l.229-.053a.249.249,0,0,0,.144-.09.333.333,0,0,0,.049-.2v-5.515a.276.276,0,0,0-.037-.17.17.17,0,0,0-.122-.059l-.326-.015a.206.206,0,0,1-.122-.046.124.124,0,0,1-.037-.095.143.143,0,0,1,.041-.1.44.44,0,0,1,.153-.08l.8-.28c.107-.039.192-.066.254-.083a.7.7,0,0,1,.169-.024.233.233,0,0,1,.26.263Z" transform="translate(-410.06 -408.595)" fill="#2e4d6a"></path><path d="M1119.993,779.549v3.681a.341.341,0,0,0,.05.2.245.245,0,0,0,.144.09l.214.052c.1.032.154.087.154.17,0,.114-.077.17-.227.17h-1.733a.262.262,0,0,1-.17-.044.156.156,0,0,1-.012-.222.285.285,0,0,1,.129-.068l.227-.052a.256.256,0,0,0,.146-.09.341.341,0,0,0,.048-.2v-3a.274.274,0,0,0-.036-.159.169.169,0,0,0-.124-.059l-.324-.014a.235.235,0,0,1-.124-.051.123.123,0,0,1-.035-.09.147.147,0,0,1,.04-.107.393.393,0,0,1,.153-.082l.8-.281a2.189,2.189,0,0,1,.249-.081.688.688,0,0,1,.17-.024.245.245,0,0,1,.188.068A.262.262,0,0,1,1119.993,779.549Zm-.141,1.031-.193-.195.214-.183a4.739,4.739,0,0,1,1.017-.736,1.919,1.919,0,0,1,.837-.212,1.314,1.314,0,0,1,.989.386,1.433,1.433,0,0,1,.375,1.044v2.531a.339.339,0,0,0,.056.21.29.29,0,0,0,.158.1l.2.049a.3.3,0,0,1,.124.068.145.145,0,0,1,.041.1.151.151,0,0,1-.051.12.259.259,0,0,1-.17.044h-1.736c-.151,0-.227-.056-.227-.169,0-.078.051-.132.154-.17l.222-.053a.236.236,0,0,0,.153-.1.4.4,0,0,0,.046-.208v-2.374a.99.99,0,0,0-.239-.726.85.85,0,0,0-.636-.243,1.326,1.326,0,0,0-.526.125,2.6,2.6,0,0,0-.6.4Z" transform="translate(-430.257 -420.776)" fill="#2e4d6a"></path><path d="M1165.184,781.052a.442.442,0,0,1-.132.339.578.578,0,0,1-.39.119h-3.091v-.315h2.326c.17,0,.243-.071.243-.212a1.607,1.607,0,0,0-.281-1.007.9.9,0,0,0-.75-.363,1.044,1.044,0,0,0-.647.21,1.389,1.389,0,0,0-.441.6,2.339,2.339,0,0,0-.159.9,2.073,2.073,0,0,0,.461,1.46,1.735,1.735,0,0,0,2.045.283,1.174,1.174,0,0,0,.5-.566.653.653,0,0,1,.1-.114.146.146,0,0,1,.095-.032.1.1,0,0,1,.1.058.306.306,0,0,1,.029.135,1.291,1.291,0,0,1-.29.726,1.817,1.817,0,0,1-.7.525,2.356,2.356,0,0,1-.983.2,2.455,2.455,0,0,1-1.2-.286,2.018,2.018,0,0,1-.81-.8,2.419,2.419,0,0,1-.292-1.214,2.753,2.753,0,0,1,.282-1.263,2.155,2.155,0,0,1,.8-.878,2.337,2.337,0,0,1,1.244-.321,2.15,2.15,0,0,1,1.031.232,1.651,1.651,0,0,1,.678.641A1.837,1.837,0,0,1,1165.184,781.052Z" transform="translate(-465.631 -420.753)" fill="#2e4d6a"></path><path d="M1199.55,779.66a.836.836,0,0,0-.573.185.618.618,0,0,0-.21.486.654.654,0,0,0,.087.339.785.785,0,0,0,.315.27,2.856,2.856,0,0,0,.648.231,3.77,3.77,0,0,1,1.053.38,1.389,1.389,0,0,1,.534.509,1.3,1.3,0,0,1,.156.634,1.231,1.231,0,0,1-.444.99,2.309,2.309,0,0,1-1.76.32,2.9,2.9,0,0,1-.327-.107.623.623,0,0,0-.232-.053.2.2,0,0,0-.149.056l-.1.109a.169.169,0,0,1-.135.053.138.138,0,0,1-.107-.041.416.416,0,0,1-.073-.147l-.358-1.017a.486.486,0,0,1-.027-.225.159.159,0,0,1,.11-.124.191.191,0,0,1,.169,0,.309.309,0,0,1,.124.127,2.4,2.4,0,0,0,.461.627,1.527,1.527,0,0,0,.529.327,1.715,1.715,0,0,0,.568.1,1.052,1.052,0,0,0,.69-.195.637.637,0,0,0,.229-.509.653.653,0,0,0-.1-.339.909.909,0,0,0-.353-.293,3.3,3.3,0,0,0-.731-.251,3.516,3.516,0,0,1-.941-.339,1.273,1.273,0,0,1-.509-.488,1.39,1.39,0,0,1-.152-.663,1.215,1.215,0,0,1,.193-.678,1.306,1.306,0,0,1,.548-.463,1.928,1.928,0,0,1,.827-.17,1.751,1.751,0,0,1,.5.058,2.183,2.183,0,0,1,.315.119.5.5,0,0,0,.219.061.213.213,0,0,0,.17-.061c.039-.041.074-.08.107-.119a.171.171,0,0,1,.13-.058.138.138,0,0,1,.1.041.258.258,0,0,1,.059.137l.276.963a.765.765,0,0,1,.024.239.15.15,0,0,1-.105.134.158.158,0,0,1-.156-.015.573.573,0,0,1-.139-.17,1.788,1.788,0,0,0-.659-.748A1.563,1.563,0,0,0,1199.55,779.66Z" transform="translate(-496.296 -420.812)" fill="#2e4d6a"></path><path d="M1233.225,779.66a.847.847,0,0,0-.575.185.625.625,0,0,0-.21.487.646.646,0,0,0,.088.339.778.778,0,0,0,.314.27,2.885,2.885,0,0,0,.649.231,3.778,3.778,0,0,1,1.052.38,1.381,1.381,0,0,1,.536.509,1.325,1.325,0,0,1,.155.634,1.235,1.235,0,0,1-.443.99,2.315,2.315,0,0,1-1.761.32,2.95,2.95,0,0,1-.327-.107.63.63,0,0,0-.232-.053.2.2,0,0,0-.149.056l-.1.109a.17.17,0,0,1-.135.053.141.141,0,0,1-.107-.041.4.4,0,0,1-.071-.148l-.36-1.017a.47.47,0,0,1-.025-.225.159.159,0,0,1,.109-.124.194.194,0,0,1,.17,0,.317.317,0,0,1,.122.127,2.392,2.392,0,0,0,.463.627,1.512,1.512,0,0,0,.527.327,1.719,1.719,0,0,0,.568.1,1.052,1.052,0,0,0,.69-.195.637.637,0,0,0,.229-.509.649.649,0,0,0-.1-.339.9.9,0,0,0-.353-.293,3.29,3.29,0,0,0-.731-.251,3.517,3.517,0,0,1-.941-.339,1.271,1.271,0,0,1-.509-.488,1.39,1.39,0,0,1-.153-.663,1.212,1.212,0,0,1,.194-.678,1.312,1.312,0,0,1,.547-.463,1.936,1.936,0,0,1,.827-.17,1.735,1.735,0,0,1,.5.058,2.112,2.112,0,0,1,.315.119.515.515,0,0,0,.221.061.217.217,0,0,0,.169-.061c.039-.041.074-.08.107-.119a.157.157,0,0,1,.131-.058.136.136,0,0,1,.1.041.271.271,0,0,1,.061.137l.275.963a.718.718,0,0,1,.025.239.169.169,0,0,1-.1.132.171.171,0,0,1-.164-.013.549.549,0,0,1-.141-.17,1.791,1.791,0,0,0-.658-.748A1.573,1.573,0,0,0,1233.225,779.66Z" transform="translate(-524.26 -420.812)" fill="#2e4d6a"></path></g></svg>