<?xml version="1.0" encoding="UTF-8"?>
<svg id="Layer_2" data-name="Layer 2" xmlns="http://www.w3.org/2000/svg" viewBox="0 0 1884.52 397.04">
  <defs>
    <style>
      .cls-1 {
        fill: #0a121e;
      }

      .cls-2 {
        fill: #fcfcfc;
      }

      .cls-3 {
        fill: #5e2f70;
      }

      .cls-4 {
        fill: #f87c09;
      }

      .cls-5 {
        fill: #ffa300;
      }

      .cls-6 {
        fill: #a22f47;
      }

      .cls-7 {
        fill: #fcc304;
      }
    </style>
  </defs>
  <g id="Layer_1-2" data-name="Layer 1">
    <g>
      <path class="cls-2" d="M672.75,396.54c4.43.78,7.98.16,11.97.14l29.94-.12c1.69,0,3.64.81,5.3.32,2.77-.82,5.04.01,7.92.01l1141.55.09c4.6,0,9.12-1.82,11.62-5.27,1.58-2.19,3.38-4.48,3.38-7.47l.09-367.8c0-8.67-5.33-15.34-14.24-16.44L439.52.15l-98.51.63L12.13,1.02C5.66,2.28,1.05,7.1,0,13.59l.07,369.86c0,6.42,6.73,12.43,13.1,12.43l342.37.19c3.27,0,5.89.94,9.01.11l6.43-.03,7.44.27,294.34.13Z"/>
      <g>
        <path class="cls-1" d="M672.75,396.54l-294.34-.13-7.44-.27-6.43.03c-3.11.84-5.74-.1-9.01-.11l-342.37-.19c-6.37,0-13.1-6.01-13.1-12.43L0,13.59C1.05,7.1,5.66,2.28,12.13,1.02l328.88-.23,98.51-.63,1430.76-.15c8.92,1.11,14.24,7.77,14.24,16.44l-.09,367.8c0,3-1.8,5.29-3.38,7.47-2.5,3.45-7.03,5.27-11.62,5.27l-1141.55-.09c-2.88,0-5.15-.83-7.92-.01-1.66.49-3.6-.33-5.3-.32l-29.94.12c-3.99.02-7.54.63-11.97-.14ZM45.98,67.13l-.41,1.42c-.22-.02-.49.04-.65.16-.33.25-.24.68-.3.94l-.52,2.27c-1.09.14-2.2,3.46-1.46,4.4l.03.9c-.39-.1-.78.13-.85.39-.13.44-.05.83-.04,1.16v.92c-.7.35-.48,1.27-.46,1.96l.06,2.34c-.27-.02-.57.17-.56.52l.03,17.76v29.22s0,2.95,0,2.95l.02,42.13-.04,1.5v2.92s.03,2.97.03,2.97l-.03,18.42-.02,20.86v15.24s-.02,52.79-.02,52.79c0,.51.28.78.42.91,1.22,1.03,10.55-6.44,22.48-2.64l5.86,3c6.24-3.09,13.77-2.11,18.08,3.28,2.26,2.82,3.67-2.66,9.5-.27,3.1,1.27,4.86,4.18,6.48,6.9,2.8-.21,5.97.49,8.64.8,2.87.33,4.95,1.33,7.34,3.53,3.7-4.04,9.38-4.57,13.67-1.1,2.81,2.28,5.3,4.68,9.48,4.74l2.71.68c6.19-.31,12.04.3,18.19.93l10.14,1.04,15.78,2.55,6.13,1.4,18.69,4.84c15.88,4.11,31.68,7.53,48.11,8.4l6.78.36,17.27.03,6.75-.4,10.55-.94,8.16-.98,22.64-4.23,19.67-4.77,29.17-6.23c1.87-.4,3.23-.65,4.9-.83l6.15-.67c1.79-.19,3.53-.35,5.31-.52l11.24-1.06,4.22-4.99c4.16-3.79,9.52-4.09,14.45-.69,3.04-4.77,8.6-6.3,13.58-4.12,1.16.51,2.25.41,2.96-.81,3.95-6.73,12.98-7.36,19.57-2.55,2.31-1.76,4.58-2.32,7.43-2.08,2.44-6.29,8.87-10.46,15.39-9.31,4.4.78,7.93,2.53,11.48,4.92l5.36,1.74c4.81-6.67,15.76-6.62,19.96-.21l5.98-.13-.36-53.18c.38-.04.76-.21.76-.66l-.27-134.26-.21-17.31c-.05-4.42-.25-8.89-1.9-12.97l-1.81-4.46c-6.37-15.66-23.12-20.48-38.26-24.69-11.86-3.3-23.44-5.23-35.73-6.51l-40.41-4.21-8.2-.54-9.13-.48-7.66-.5-9.61-.47-8.47-.58-8.99-.51-11.52-.46-15.9-.44-11.54-.59-78.62.04-16.31.55-10.86.34-7.7.41-10.54.54-6.74.45-8.16.46-10.96.62c-22.08,1.25-43.77,2.73-65.75,5.48-11.59,1.45-22.17,4.05-32.94,8.44-7,2.86-13.81,5.68-19.53,10.7-3.38,2.96-6.29,6.37-8.17,10.12ZM933.49,186.85c7-11.23,10.38-23.62,11.29-36.61l-.02-11.53c-.92-9.3-2.59-18.24-6.53-26.71-4.4-9.44-10.06-17.96-18.1-24.59-11.08-9.14-24.2-14.49-38.49-15.68l-15.04.04c-11.01,1.05-21.38,3.88-31.03,9.26-14.67,8.19-26.13,20.97-31.63,36.94-13.13,38.16.87,82.69,40.41,97.04,24.94,9.05,52.95,5.38,73.95-10.89,6.23-4.83,10.93-10.45,15.19-17.28ZM629.13,215.08c24.33,9.11,53.94,7.19,73.17-10.47,8.1-7.44,11.83-17.55,11.58-28.43-.67-28.48-18.44-36.22-42.54-44.95-9.4-3.41-23.83-8.18-29.08-16.07-2.87-4.32-2.95-10.37-.61-14.95,4.55-8.9,15.11-10.89,24.99-9.49,6.75.96,12.22,4.38,16.41,9.63,3.42,4.28,6.74,8.32,9.31,13.24,1.49,2.85,4.22,5.02,7.41,5.52,2.58.4,4.77-.63,6.33-2.22s2.42-3.99,1.91-6.55l-5.35-27.16c-.76-3.88-4.88-5.99-8.36-4.62-2.16.85-3.46.79-5.62-.22l-4.58-2.13c-18.68-6.58-39.43-5.56-56.35,4.83-22.36,13.73-27.81,43.38-11.55,62.07,8.77,10.08,21.07,14,32.78,18.64l21.95,8.7c4.13,1.64,7.39,4.6,9.17,8.6,2.64,5.95,1.66,12.13-2.87,16.85-9.5,9.92-33.63,8.93-43.42-2.19l-4.72-5.36c-3.43-4.9-5.92-10.24-8.26-15.68-1.47-3.4-4.26-4.92-7.94-4.8-4.74.16-7.8,3.98-7.2,8.85l1.59,12.88,4.39,23.44c.47,2.51,4.64,4.36,6.7,4.17,2.45-.22,3.7-2.32,5.72-2.99,1.43-.48,3.27.19,5.03.85ZM779.77,217.89c2.79.03,5.72-.16,7.77-1.52,2.26-1.5,3.34-4.14,2.89-6.65-1.13-6.28-7.53-6.12-9.63-8.55-1.39-1.61-2.7-4.39-2.7-6.98l.09-97.35c0-4.96,4.04-8.52,7.93-9.41,3.33-.76,4.61-3.35,4.55-6.26-.05-2.55-.39-4.73-2.3-6.17s-3.74-1.16-6.06-1.16l-41.62-.04c-3.23,0-6.08-.88-8.87,1.55-3.11,2.7-3.44,8.03-.1,10.8l5.89,2.82c3,2.68,4,6.82,4,10.95v86.74c0,4.65-.37,8.86-1.95,13.01-2,5.27-10.96,3.36-10.59,11.35.14,3.04,2.18,6.7,5.96,6.7l19-.02,10.1.05,15.62.15ZM1597.76,213.24c1.46-3.71-.15-7.4-3.5-8.94-1.84-.85-3.75-1.52-5.29-2.96-2.43-2.29-3.89-5.85-3.9-9.53l-.15-66.48c-.08-.72.36-1.31,1.15-1.16l44.37,58.31,21.2,26.72c4.88,5.3,11.3,8.64,18.16,9.7,4.92.76,9.01-1.96,10.48-6.45,1.67-5.08,2-10.29,1.69-15.63l-.45-7.77-.1-91.06c0-3.26,1.32-6.12,3.02-8.56,1.87-2.69,8.76-1.62,8.63-9.24-.06-3.17-1.55-5.33-4.5-6.26-1.42-.44-2.41-.04-3.84-.05l-28.55-.2c-4.24-.03-7.85.84-9.02,5.22-.91,3.42,1.09,7.49,5.13,8.33,2.75.57,5.23,1.86,6.47,4.64,1.17,2.62,1.9,5.61,1.9,8.74l.07,54.86-.6,7.72-11.91-15.75-18.74-24.96-36.2-46.25c-.89-1.14-2.54-2.29-4.03-2.28l-33.52.08c-3.5,0-5.81,3.84-5.61,6.66.23,3.28,2.44,5.77,5.76,6.48,3.13.67,5.73,2.5,6.86,5.65.66,1.84,1.59,3.89,1.59,6.13l-.02,89.61c0,3.02-.61,5.68-1.28,8.34-.88,3.51-3.43,5.62-6.6,6.89s-4.89,4.34-4.52,7.53c.33,2.91,2.44,5.37,5.57,6.27s6.12-.08,9.24-.06l21.55.14c3.71.02,7.87-.31,9.5-4.46ZM1823.55,199.17c13.3-12.26,20.85-29.43,22.17-47.44v-12.54c-.7-8.88-2.41-17.61-6.07-25.71-3.65-8.07-8.21-15.35-14.94-21.04s-13.44-9.43-21.41-12.24c-8.67-3.06-17.49-5.58-26.84-5.65l-50.13-.39-10.22-.41-3.66-.04c-3.23.51-5.87,2.77-6.36,5.92-.46,2.92,1,6.33,3.95,7.41,2.17.8,4.96,1.26,6.18,3.42s2.21,5.12,2.2,7.99l-.13,95.61c0,3.52-1.76,7.16-4.48,8.58-2.56,1.33-5.19,1.91-6.76,4.47-1.22,2-1.07,4.81.31,7.01,3.33,5.3,10.7,3.59,17.52,3.52l49.47-.48c16.27-.16,36.95-6.74,49.19-18.01ZM1081.68,74.3l-17.88-.07c-3.02-.01-6.1-.7-9.06-.06-2.79.61-4.23,3.23-4.76,5.57-.57,2.55.44,5.6,2.7,7.06s5.25,2.28,6.72,4.87c1.55,2.73,2.76,6.26,2.75,9.73l-.16,71.18c-.02,8.35-4.71,15.5-11.38,19.76-10.2,6.51-28.81,7.09-38.51.28-2.68-1.88-5.31-4.56-6.65-7.69-1.89-4.4-3.52-9.21-3.54-14.27l-.19-74.14c-.01-4.67,3.47-8.15,7.59-9.2,3.25-.83,4.69-3.48,4.53-6.7-.18-3.6-2.53-6.72-6.34-6.66l-15.56.22h-16.88s-16.96-.15-16.96-.15c-2.84-.03-4.91,2.76-5.41,4.88-.65,2.74-.11,5.64,2.16,7.32l5.89,2.39c3.4,2.15,4.88,6.31,4.88,10.57v67.28s-.06,8.78-.06,8.78c1.23,11.93,4.82,21.13,13.2,29.73,8.3,8.51,25.44,15.14,36.65,15.14h15.43c15.57-1.04,28.99-5.93,39.66-17.44,5.97-6.44,11.24-19,11.28-27.61l.36-72.44c.03-5.43,1.74-10.69,5.92-13.84l5.17-2.61c1.9-1.69,2.61-4.35,1.99-6.99-.42-1.8-2.11-4.28-4.43-4.94-2.94-.84-5.9.07-9.1.06ZM1239.77,217.62c3.35-.91,5.69-3.5,5.89-6.86.18-3.04-1.15-5.51-3.94-6.77-5.67-2.55-10.56-6.1-14.02-11.41l-20.82-31.93-14.79-22.75,9.57-13.41,22.06-28.73,3.08-2.71c3.14-2.76,6.9-4.28,10.42-6.45,2.79-1.72,3.5-5.65,2.39-8.65-.82-2.21-3.11-4.02-5.49-3.98l-12.26.21-18.02.12c-2.56.02-5.01-.8-7.63-.23-3.28.72-5.52,4.03-5.21,7.16.34,3.34,2.3,5.75,5.67,6.64,2.21.58,3.97,3.85,2.54,5.98l-18.77,28.04-17.45-27.18c-.96-1.5-.91-3.18-.39-4.58,1.25-3.33,6.53-2.54,6.79-8.52.11-2.57-.89-4.58-2.49-6.06-1.81-1.67-3.82-1.78-6.25-1.67l-8.63.4-30.1-.06-10.74.03c-3.8,1-5.68,4.17-5.29,7.81.26,2.4,1.28,4.65,3.74,5.43,4.22,1.34,7.24,3.9,10,7.31l5.18,6.39,29.47,42.84c1.14,1.66.67,3.26-.42,4.7l-7.06,9.29-17.64,24.51c-6.17,9.53-13.99,16.9-23.99,22.04-2.84,1.46-3.94,4.98-3.33,7.36,1.91,7.43,9.12,5.63,13.74,5.63h25.79c2.65,0,5.05.8,7.58-.26,2.83-1.18,4.79-3.35,4.8-6.37.03-6.22-7.48-6.3-8.66-10.04-.67-2.13-.44-4.1.8-5.95l20.77-30.94c.35-.53.97-.86,1.34-.78.26.05.66.51.86.84l5.31,8.63,14.58,23.72c.99,1.61.97,3.59,0,5.08-1.8,2.77-9.21,3.5-8.41,9.82.38,3,2.55,5.32,5.72,6.15,3.5.92,6.96.07,10.58.07h35.43c2.57,0,4.94.8,7.69.05ZM1369.72,207.78l3.66-28.24c.45-3.44.62-6.7-1.71-9.5-1.51-1.82-3.76-2.93-6.23-2.47-1.87.36-4.03,1.73-5,3.99-4.16,9.69-10,18.61-18.08,25.46-2.44,2.07-5.6,2.9-8.67,2.94l-17.09.24c-2.21.03-4.43-.72-5.73-2.4-2.27-2.94-1.82-6.26-1.64-9.7l.45-8.88.31-83.07c.02-5.16,4.38-8.18,8.69-9.14,3.19-.71,4.79-4.09,4.55-7.01-.2-2.39-2.33-5.96-5.12-5.93l-13.71.12h-19.28s-19.35-.13-19.35-.13c-4.05-.03-5.84,4.43-5.37,8.08.36,2.76,2.52,4.66,5.38,5.22,4.23.82,7.55,4.02,7.56,8.89l.07,96.15-.91,4.93c-.61,3.3-3.28,5.29-6.32,6.13-3.76,1.04-6.03,3.84-5.81,7.51.21,3.38,2.6,6.7,6.6,6.7h16.73s29.47-.09,29.47-.09c2.42,0,4.57.64,7.01.12,2.93-.61,6.02.03,9.02.03h15.16s6.87-.01,6.87-.01c3.13,0,6.7.29,9.68-.03,5.59-.6,8.08-4.59,8.77-9.91ZM1487.64,193.13c.8,2.4,1.5,4.87.37,7.05-2.01,3.86-10.58,3.79-9.93,11.11.29,3.27,2.6,5.57,5.88,6.38,2.67.66,5.17-.13,7.89-.13l30.55.11c4.54.02,8.91.63,13.3-.54,3.18-.85,5.12-3.6,5.11-6.61-.04-7.99-10.89-6.85-13.49-13.64l-7.2-18.8-19.75-54.99-6.47-18.57-7.93-23.22c-1.23-3.62-4.06-7.24-8.07-7.21l-14.1.13h-15.44s-13.14-.15-13.14-.15c-3.75-.04-5.66,4.11-5.28,7.48.85,7.52,8.34,4.42,10.78,8.81,1.05,1.9.81,3.87.06,5.96l-17.02,47.69-4.89,13.43-7.73,20.55-4.53,11.81c-2.03,5.29-5.01,10.17-10.13,12.95-2.46,1.34-5.48,2.85-6.19,5.51-1.16,4.36.82,8.15,4.98,9.34,2.97.85,6.09,0,9.23-.02l29.76-.24c3.01-.02,5.12-3.9,5.21-6.32.13-3.23-1.9-5.64-4.93-6.9-11.37-5.09-5.24-16.98-1.09-27.96h48.53s5.67,16.99,5.67,16.99ZM694.66,297.04c0-21.22-17.2-38.41-38.41-38.41s-38.41,17.2-38.41,38.41,17.2,38.41,38.41,38.41,38.41-17.2,38.41-38.41ZM1112.32,297.19c0-21.21-17.19-38.4-38.4-38.4s-38.4,17.19-38.4,38.4,17.19,38.4,38.4,38.4,38.4-17.19,38.4-38.4ZM1334.48,297.24c0-21.17-17.16-38.33-38.33-38.33s-38.33,17.16-38.33,38.33,17.16,38.33,38.33,38.33,38.33-17.16,38.33-38.33ZM1667.81,320.51c-6.48-1.72-11.23-6.55-13.79-12.26-2.86-6.38-3.07-12.71-.91-19.25,2.76-8.41,9.72-14.86,18.64-15.45,6.2-.41,11.75.99,16.63,4.64l4.44,3.32,7.47-7.83c.59-.61,1.97-1.67,1.11-2.71-5.45-6.68-13.32-9.89-21.65-11.05l-9.41-.36c-8.79,1.18-17.11,4.31-23.28,10.88-7.91,8.42-11.4,18.32-10.79,30.12.65,12.48,7.56,24.3,18.76,30.04,15.44,7.92,36.24,5.14,47.15-8.49l-9.17-9.78-4,3.47c-5.87,4.64-13.48,6.75-21.2,4.69ZM1735.89,323.82c7.51,6.12,15.91,9.8,25.19,10.8,10.45,1.13,22.81-.62,29.49-8.38,6.87-7.99,6.16-22.22-1.14-28.12-11.77-9.51-33.45-7.09-35.01-16.68-.38-2.31.82-4.62,2.77-6.07,7.12-5.29,20.69-1.15,29.03,4.16l7.24-11.13c-7.32-5.5-15.59-8.52-24.62-8.69-1.53-.63-2.95-.34-4.48-.18-9.31.98-17.88,3.64-22.71,11.93-4.2,7.2-3.46,17.63,2.03,23.01,2.12,2.08,4.76,4.05,7.57,5.23,12.27,5.16,28.77,4.03,28.73,14.01s-20.96,11.74-33.85.32c-.97-.86-2.11-.79-2.91.26l-7.33,9.54ZM794.44,333.84c3.41-.06,5.29.27,4.77-.97-.12-.28-.2-.73-.68-1.03l-6.2-8.68-10.95-16.09c9.43-2.77,15.38-10.01,16.57-19.37.78-6.15-.72-12.09-4.25-17.32-4.6-5.5-11.18-9.42-18.73-9.47l-37.66-.24v73.25s12.39.1,12.39.1c.64,0,2.29-.35,2.3-1.05l.2-23.29,13.99.02,15.13,22.1c.48,1.26,1.59,2.24,3.03,2.21l10.11-.18ZM870.18,333.79l.02-59.15,3.22-.26c1.68-.58,2.96.03,4.53.02l14.71-.08.02-13.65-59.56.02.18,4.76c.1,2.63-1.85,9.03,1.49,9l7.17-.06c4.87-.66,13.35-.17,13.35.78l.09,58.75,14.78-.15ZM992.27,333.96c.93,0,1.25-1.15,1.25-1.87v-71.31s-14.72,0-14.72,0l-.14,29.17h-31.58s-.08-29.25-.08-29.25l-14.78.1v71.73c0,1.04,1.02,1.53,1.82,1.53l9.1-.02c1.22-.45,2.32-.2,3.8-.09l.13-30.54h31.58s.14,30.44.14,30.44l13.46.13ZM1220.19,286.99c-2.82-10.12-8.05-16.01-16.83-21.5-5.12-2.41-10.21-4.58-16.05-4.61l-34.21-.17-.04,71.81c0,.72.71,1.53,1.42,1.52l31.32-.21c3.54-.02,6.77-1,10.07-1.96,7.34-2.13,13.76-6.29,18.4-12.23,7.02-8.97,8.94-21.78,5.92-32.65ZM1439.05,333.62l-.03-72.84h-14.27s-.4,46.75-.4,46.75l-35.77-46.82-13.37.09v73.13s12.87.11,12.87.11c.72-.16,1.4-.65,1.4-1.49l.21-47.36,35.65,46.66c1.19,3.29,8.24,2.28,13.7,1.77ZM1500.55,334l14.73-.06.06-59.34,20.16-.09c.98,0,1.87-.09,2.45-.89l-.09-12.94h-57.98c-1.23,0-1.9.78-1.91,1.9v10.07c-.01,1.12.74,1.87,1.86,1.87h20.66s.05,59.48.05,59.48ZM1594.02,260.66h-14.74s0,73.38,0,73.38h14.74s0-73.38,0-73.38ZM470.09,317.1c1.5-2.21,5.31-2.57,7.37-1.2,1.23.82,2.05,2.98,3.57,3.1,1.42.11,2.23.59,2.75,1.54,1.67-.19,2.91-2.11,3.52-3.53,1.9-4.38,5.72-1.24,7.17-3.95,1-1.88,2.69-2.92,4.88-2.54,1.58.27,3.08,1.66,4.03,3.69,3.59-2.05,6.77-1.31,9.6,1.53.06-2.54-1.86-3.41-3.21-4.02-1.91-.87-3.39-.7-5.39.6-2-2.71-4.83-3.86-8.05-3.07-2.11.52-2.54,4.1-5.3,3.74-4.48-.6-5.14,4.23-7.15,4.73-4.42,1.1-3.23-3.15-7-4.38s-6.85.95-9.57,4.58c-3.15-1.83-6.87-1.33-8.91,1.79s-5.28,1.49-5.29,4.73c1.11.51,2.09-.91,2.75-.9,2.01.09,3.03-.52,3.73-2.1,1.08-2.43,3.71-3.2,6.08-2.41,2.08.69,3.21-.13,4.43-1.91ZM520.58,320.48c.93-2.44-1.15-3.81-3.1-3.73l-3.85.16c.03,2.65,3.55-.62,6.95,3.57ZM407.65,329.46l4.7.54,21.55,1.93c4.42-.92,8.45-4.37,13.47-4.09,2.47.14,5.06.28,7.79-.46-3.44-1.99-6.95-1.45-10.45-1.79l-7.42-.73-11.22-.72-32.23.1-12.12.41-7.81.32-9.52,1.32c2.06.96,3.79.98,5.69,1.02l10.56.22,6.24.51,5.75.42,15.04,1Z"/>
        <g>
          <path class="cls-6" d="M531.62,103.69l.27,134.26c0,.45-.38.62-.76.66l-.29-35.09c-1.23.4-2.05.45-3.35.46l-42.66.1-5.75.58-8.33,2.05c-3.81.94-7.22-.62-10.97-.64l-33-.14-2.66.26-10.8.15c-1.33-1.7-1.75-3.66-2.41-5.8-4.63-15.16-11.65-29.32-21.44-41.76-3.84-4.89-7.75-9.09-11.91-13.63l-6.15-5.4c-6.86-6.03-14.25-11.31-22.45-15.4l-11.58-5.77c-12.22-5.15-25.04-8.35-38.28-9.7l-6.81-.28-8.6-.03-7.7.43-5.24.51-16.26,3.37c-7.1,1.47-13.61,4.16-20.21,7.16-11.3,5.13-21.76,11.05-31,19.42l-12.22,12.21-6.62,7.95c-8.42,11.1-14.3,23.88-18.84,37.11-.88,2.56-.95,5.2-2.31,7.43-.62,1.01-2.62-.03-3.53-.05l-15.5-.32-27.92-.46-35.04-.49-37.57-.4c-1.09-.01-2-.33-2.91-.05l.03-18.42c4.53.57,9.21.18,14,.06l15.98-.41,11.48-.46,21.73-.45,15.71-.54c5.44-.19,16.75-1.32,16.08-3.32-.09-.26-.45-.78-.93-.87l-5.96-1.04-8.03-1.12-35.71.16-19.61.49-13.26.32c-3.94.09-7.79.72-11.46-.23l-.02-42.13c1.03.02,1.06-.81.99-1.72-.05-.63-.03-1.31-.98-1.23v-29.22c.77-.75,1.94-1.28,3.28-1.05,1.79.31,3.14-.29,4.96-.3l99.91-.37,27.93-.5,23.44-.46,26.02-.45,33.04-.57,42.74-.02,22.11.59,15.3.48,20.23.46,19.14.5,26.92.49,16.77.45,26.92.5,21.05.49,20.24.45,16.27.46,24.53.26ZM514.52,181.68l12.51.22c1.37.02,2.44.02,3.86.54l-.14-9.14c-1.39.52-2.71.56-4.2.53l-14.7-.24-16.19-.55-44.88-.18-4.88.47c-2.72-.32-5.22.38-7.7,1.43l-6.03,2.55c-.66.28-.91,1.05-.61,1.47.21.31.81.35,1.32.4l10.71,1.16,26.11.41,23.44.49,21.38.45Z"/>
          <path class="cls-3" d="M529.51,73.41l-4.02.4-66.84.4-28.76.5-19.78.44-15.77.5-15.83.47-12.5.46-13.98.46-9.55.47c-5.06.25-14.69,1.17-14.17,2.85.16.53.77.63,1.43.7l7.81.86,10.17.39,13.99.44,14.34.5,26.92.5,22.98.49,29.33.49,20.59.47,27.34.47,25.69.33,2.5.37.21,17.31-24.53-.26-16.27-.46-20.24-.45-21.05-.49-26.92-.5-16.77-.45-26.92-.49-19.14-.5-20.23-.46-15.3-.48-22.11-.59-42.74.02-33.04.57-26.02.45-23.44.46-27.93.5-99.91.37c-1.81,0-3.17.61-4.96.3-1.34-.23-2.51.3-3.28,1.05l-.03-17.76c0-.35.3-.54.56-.52.02.68.45,1.28.58,2.46l102.68-.25,13.78-.45,7.67-.42,7.52-1.01c.57-.08.86-1.17.61-1.47s-.9-.69-1.54-.76l-28.66-2.92c-3.95-.4-7.59-.59-11.55-.37-.73.04-1.03-.3-1.01-.81.01-.46.3-.84,1.02-.8,4.74.29,13.01-.34,18.95-.65l9.11-.48,12.07-.44,11.43-.53,9.89-.33c2.29-.08,4.43-.28,6.75-.47l6.62-.54,13.52-1.76c.84-.11,1.72.14,2.05-1.21-2.38-.7-4.78-.49-7.36-.71l-10.5-.89-5.79-.42-8.15-.44-13.29-.43-98.74-.41-16.11-.09c-3.3-.02-6.7.03-10.12-.05l-6.8-.22c1.88-3.75,4.79-7.15,8.17-10.12,5.72-5.02,12.53-7.84,19.53-10.7,10.77-4.39,21.35-6.99,32.94-8.44,21.97-2.75,43.67-4.23,65.75-5.48l10.96-.62,8.16-.46,6.74-.45,10.54-.54,7.7-.41,10.86-.34,16.31-.55,78.62-.04,11.54.59,15.9.44,11.52.46,8.99.51,8.47.58,9.61.47,7.66.5,9.13.48,8.2.54,40.41,4.21c12.28,1.28,23.86,3.21,35.73,6.51,15.14,4.21,31.9,9.03,38.26,24.69l1.81,4.46ZM429.09,58.34l6.46-.5c5.73-.44,11.04-1.07,16.68-2.62.77-.21,2.15-.12,1.78-1.54l-17.17-1.78-4.91-.39-8.32-.35-14.92-.46h-33.08s-14.66.35-14.66.35l-7.69.43-5.29.48-11.48,1.4c-.55.07-1,.07-1.25.37-.28.33-.19.74,0,1.04.64,1.03,18.63,2.77,25.02,3.09l9.56.48,18.72.43h25.95s14.61-.43,14.61-.43ZM268.07,57.94l7.44-.46,5.78-.51,5.23-.49,10.44-1.91c.38-.07-.15-1.22-.87-1.3l-12.38-1.35-5.35-.41-11.75-.4-46.02-.04-9.6.54c-3.85.22-7.44.63-11.32,1.21-1.75.26-3.79-.41-5.14,1.64l6.08,1.23c6.82,1.93,13.78,2.49,20.85,2.66l16.41.4c4.77.12,9.54.12,14.29-.03l8.94-.28,6.96-.5Z"/>
          <path class="cls-6" d="M41.37,84l-.06-2.34c.54.12,1.02-.15.98-.78-.03-.4-.12-.85-.5-1.17v-.92c.38.12.79-.11.86-.37.14-.48.03-.83.02-1.18l-.03-.9,1.46-4.4.52-2.27c.38.09.83-.07.86-.36l.09-.75.41-1.42,6.8.22c3.42.08,6.82.03,10.12.05l16.11.09,98.74.41,13.29.43,8.15.44,5.79.42,10.5.89c2.58.22,4.98,0,7.36.71-.33,1.35-1.21,1.1-2.05,1.21l-13.52,1.76-6.62.54c-2.32.19-4.46.39-6.75.47l-9.89.33-11.43.53-12.07.44-9.11.48c-5.93.31-14.21.95-18.95.65-.72-.04-1,.34-1.02.8-.02.52.28.86,1.01.81,3.96-.23,7.6-.04,11.55.37l28.66,2.92c.65.07,1.3.47,1.54.76s-.04,1.39-.61,1.47l-7.52,1.01-7.67.42-13.78.45-102.68.25c-.13-1.18-.57-1.78-.58-2.46Z"/>
          <path class="cls-6" d="M529.51,73.41c1.66,4.08,1.85,8.54,1.9,12.97l-2.5-.37-25.69-.33-27.34-.47-20.59-.47-29.33-.49-22.98-.49-26.92-.5-14.34-.5-13.99-.44-10.17-.39-7.81-.86c-.66-.07-1.27-.17-1.43-.7-.51-1.67,9.11-2.6,14.17-2.85l9.55-.47,13.98-.46,12.5-.46,15.83-.47,15.77-.5,19.78-.44,28.76-.5,66.84-.4,4.02-.4Z"/>
          <path class="cls-6" d="M40.8,238.49v-15.24s8.93.37,8.93.37l83.11.18c1.86,0,3.18.08,4.97.07l22.07-.16-.31,9.93-15.36.4-10.03.47-12.45.5-9.64.44-12.45.51-10.18.43-8.58.49-12.53.46-7.63.52-10.14.44-9.8.2Z"/>
          <path class="cls-4" d="M40.84,183.97l-.04-2.97c1.05.03,1.08-.79,1.01-1.71-.05-.64-.02-1.33-1.01-1.21l.04-1.5c3.68.94,7.52.32,11.46.23l13.26-.32,19.61-.49,35.71-.16,8.03,1.12,5.96,1.04c.48.08.84.61.93.87.67,2-10.64,3.13-16.08,3.32l-15.71.54-21.73.45-11.48.46-15.98.41c-4.79.12-9.47.52-14-.06Z"/>
          <path class="cls-3" d="M44.1,71.93l-1.46,4.4c-.74-.94.37-4.26,1.46-4.4Z"/>
          <path class="cls-3" d="M40.83,134.44v-2.95c.96-.08.94.6.99,1.23.07.91.04,1.74-.99,1.72Z"/>
          <path class="cls-6" d="M40.8,181v-2.92c.99-.13.97.57,1.01,1.21.07.92.04,1.75-1.01,1.71Z"/>
          <path class="cls-3" d="M41.31,81.66c-.02-.69-.24-1.6.48-1.96.38.32.47.77.5,1.17.04.64-.44.91-.98.78Z"/>
          <path class="cls-3" d="M42.67,77.23c.01.35.11.71-.02,1.18-.07.26-.48.48-.87.37,0-.33-.08-.73.04-1.16.08-.26.46-.49.85-.39Z"/>
          <path class="cls-3" d="M45.57,68.55l-.09.75c-.03.29-.48.45-.86.36.06-.26-.03-.7.3-.94.16-.12.43-.18.65-.16Z"/>
          <path class="cls-4" d="M514.52,181.68l-21.38-.45-23.44-.49-26.11-.41-10.71-1.16c-.5-.05-1.1-.09-1.32-.4-.3-.42-.05-1.19.61-1.47l6.03-2.55c2.48-1.05,4.98-1.75,7.7-1.43l4.88-.47,44.88.18,16.19.55,14.7.24c1.49.02,2.81,0,4.2-.53l.14,9.14c-1.42-.52-2.49-.52-3.86-.54l-12.51-.22Z"/>
          <path class="cls-6" d="M429.09,58.34l-14.61.43h-25.95s-18.72-.44-18.72-.44l-9.56-.48c-6.39-.32-24.38-2.06-25.02-3.09-.18-.3-.27-.7,0-1.04.25-.29.7-.3,1.25-.37l11.48-1.4,5.29-.48,7.69-.43,14.66-.35h33.08s14.92.47,14.92.47l8.32.35,4.91.39,17.17,1.78c.37,1.42-1.01,1.33-1.78,1.54-5.64,1.55-10.94,2.17-16.68,2.62l-6.46.5Z"/>
          <path class="cls-6" d="M268.07,57.94l-6.96.5-8.94.28c-4.75.15-9.52.14-14.29.03l-16.41-.4c-7.07-.17-14.03-.73-20.85-2.66l-6.08-1.23c1.36-2.05,3.39-1.37,5.14-1.64,3.88-.58,7.47-.99,11.32-1.21l9.6-.54,46.02.04,11.75.4,5.35.41,12.38,1.35c.72.08,1.25,1.23.87,1.3l-10.44,1.91-5.23.49-5.78.51-7.44.46Z"/>
          <g>
            <path class="cls-4" d="M531.13,238.61l.36,53.18-5.98.13c-4.21-6.4-15.15-6.45-19.96.21l-5.36-1.74c-3.55-2.39-7.08-4.14-11.48-4.92-6.51-1.15-12.95,3.02-15.39,9.31-2.85-.24-5.12.32-7.43,2.08-6.58-4.81-15.61-4.18-19.57,2.55-.72,1.22-1.8,1.32-2.96.81-4.98-2.18-10.55-.65-13.58,4.12-4.93-3.4-10.29-3.11-14.45.69l-4.22,4.99-11.24,1.06c-1.78.17-3.52.32-5.31.52l-6.15.67c-.2-1.63,1.12-2.35,1.93-3.48l9.01-12.6,5.9-10.43c3.56-7.27,5.89-14.77,8.25-22.7l-10.54-.11-72.95.38-33.2.32-6.41.23-35.3.39-30.68.47-43.12.52-17.44.34,3.95,13.11c3.68,10.19,9.21,19.32,15.42,28.12,1.47,2.09,2.64,3.91,4.58,5.58.93.8,1.61,2.02,1.78,3.23l-15.78-2.55-10.14-1.04c-6.15-.63-12-1.24-18.19-.93l-2.71-.68c-4.19-.05-6.67-2.46-9.48-4.74-4.28-3.47-9.97-2.94-13.67,1.1-2.39-2.2-4.47-3.2-7.34-3.53-2.67-.31-5.84-1.01-8.64-.8-1.63-2.71-3.38-5.63-6.48-6.9-5.83-2.39-7.25,3.09-9.5.27-4.31-5.39-11.84-6.36-18.08-3.28l-5.86-3c-11.93-3.8-21.26,3.67-22.48,2.64-.15-.13-.42-.4-.42-.91l.02-52.79,9.8-.2,10.14-.44,7.63-.52,12.53-.46,8.58-.49,10.18-.43,12.45-.51,9.64-.44,12.45-.5,10.03-.47,15.36-.4.31-9.93-22.07.16c-1.79.01-3.1-.07-4.97-.07l-83.11-.18-8.93-.37.02-20.86c.91-.29,1.82.03,2.91.05l37.57.4,35.04.49,27.92.46,15.5.32c.91.02,2.91,1.06,3.53.05,1.37-2.23,1.43-4.87,2.31-7.43,4.55-13.23,10.42-26,18.84-37.11l6.62-7.95,12.22-12.21c9.24-8.36,19.7-14.29,31-19.42,6.59-2.99,13.1-5.68,20.21-7.16l16.26-3.37,5.24-.51,7.7-.43,8.6.03,6.81.28c13.23,1.34,26.06,4.54,38.28,9.7l11.58,5.77c8.19,4.09,15.58,9.37,22.45,15.4l6.15,5.4c4.15,4.53,8.06,8.74,11.91,13.63,9.78,12.44,16.81,26.6,21.44,41.76.65,2.15,1.08,4.1,2.41,5.8l10.8-.15,2.66-.26,33,.14c3.75.02,7.16,1.57,10.97.64l8.33-2.05,5.75-.58,42.66-.1c1.29,0,2.12-.06,3.35-.46l.29,35.09Z"/>
            <path class="cls-7" d="M388.4,312.25c-1.67.18-3.03.43-4.9.83l-29.17,6.23-19.67,4.77-22.64,4.23-8.16.98-10.55.94-6.75.4-17.27-.03-6.78-.36c-16.43-.87-32.23-4.28-48.11-8.4l-18.69-4.84-6.13-1.4c-.17-1.21-.86-2.43-1.78-3.23-1.94-1.67-3.11-3.5-4.58-5.58-6.21-8.8-11.74-17.93-15.42-28.12l-3.95-13.11,17.44-.34,43.12-.52,30.68-.47,35.3-.39,6.41-.23,33.2-.32,72.95-.38,10.54.11c-2.36,7.92-4.69,15.43-8.25,22.7l-5.9,10.43-9.01,12.6c-.81,1.13-2.13,1.85-1.93,3.48Z"/>
          </g>
          <path class="cls-5" d="M159.97,236.02c0,10.08,1.09,19.89,3.15,29.32h249.83c2.06-9.43,3.15-19.25,3.15-29.32,0-10.99-1.3-21.65-3.73-31.86h-248.66c-2.43,10.21-3.73,20.88-3.73,31.86Z"/>
        </g>
        <path class="cls-2" d="M1220.19,286.99c3.02,10.86,1.1,23.68-5.92,32.65-4.65,5.94-11.06,10.1-18.4,12.23-3.31.96-6.53,1.94-10.07,1.96l-31.32.21c-.7,0-1.42-.81-1.42-1.52l.04-71.81,34.21.17c5.83.03,10.93,2.19,16.05,4.61,8.79,5.5,14.02,11.38,16.83,21.5ZM1203.76,307.59c1.5-4.19,2.18-8.33,1.87-12.68-.76-10.61-8.06-18.81-18.92-20.14l-18.4-.21-.05,45.68,16.77-.15c8.16-.63,15.05-5.37,18.72-12.51Z"/>
        <path class="cls-2" d="M1439.05,333.62c-5.45.5-12.5,1.51-13.7-1.77l-35.65-46.66-.21,47.36c0,.84-.68,1.33-1.4,1.49l-12.87-.11v-73.13s13.37-.09,13.37-.09l35.77,46.82.4-46.75h14.27s.03,72.84.03,72.84Z"/>
        <path class="cls-2" d="M1334.48,297.24c0,21.17-17.16,38.33-38.33,38.33s-38.33-17.16-38.33-38.33,17.16-38.33,38.33-38.33,38.33,17.16,38.33,38.33ZM1318.67,298.09c.41-8.3-2.94-15.88-9.62-20.79-3.94-2.9-8.61-3.94-13.53-3.84-15.17.3-23.72,13.57-21.85,27.59,1.18,8.86,6.82,15.9,14.61,18.77,8.58,3.16,17.76.83,23.79-5.57,4.66-4.95,6.27-9.5,6.6-16.17Z"/>
        <path class="cls-2" d="M1112.32,297.19c0,21.21-17.19,38.4-38.4,38.4s-38.4-17.19-38.4-38.4,17.19-38.4,38.4-38.4,38.4,17.19,38.4,38.4ZM1097.18,297.62c.12-2.29-.43-4.57-.94-6.67-3.43-14.19-16.54-20.95-30.2-16.42-6.25,2.07-10.68,6.69-13.17,12.85-3.49,8.62-2.32,18.7,3.71,25.87,5.05,6.02,12.29,8.72,20.13,7.84,12.04-1.35,19.85-11.63,20.48-23.48Z"/>
        <path class="cls-2" d="M992.27,333.96l-13.46-.13-.14-30.43h-31.58s-.13,30.53-.13,30.53c-1.48-.11-2.59-.36-3.8.09l-9.1.02c-.8,0-1.82-.48-1.82-1.53v-71.73s14.78-.1,14.78-.1l.08,29.25h31.58s.14-29.17.14-29.17h14.72s0,71.32,0,71.32c0,.71-.32,1.87-1.25,1.87Z"/>
        <path class="cls-2" d="M1735.89,323.82l7.33-9.54c.81-1.05,1.95-1.11,2.91-.26,12.88,11.42,33.81,10,33.85-.32s-16.47-8.85-28.73-14.01c-2.81-1.18-5.45-3.15-7.57-5.23-5.49-5.38-6.23-15.81-2.03-23.01,4.83-8.29,13.39-10.95,22.71-11.93,1.53-.16,2.95-.46,4.48.18,9.03.17,17.3,3.19,24.62,8.69l-7.24,11.13c-8.34-5.3-21.91-9.45-29.03-4.16-1.95,1.45-3.15,3.76-2.77,6.07,1.56,9.59,23.24,7.17,35.01,16.68,7.3,5.9,8.01,20.13,1.14,28.12-6.68,7.77-19.04,9.51-29.49,8.38-9.28-1-17.68-4.69-25.19-10.8Z"/>
        <path class="cls-2" d="M1667.81,320.51c7.72,2.05,15.32-.05,21.2-4.69l4-3.47,9.17,9.78c-10.91,13.62-31.7,16.41-47.15,8.49-11.2-5.74-18.11-17.56-18.76-30.04-.61-11.81,2.88-21.7,10.79-30.12,6.17-6.57,14.49-9.7,23.28-10.88l9.41.36c8.34,1.16,16.2,4.37,21.65,11.05.85,1.05-.53,2.1-1.11,2.71l-7.47,7.83-4.44-3.32c-4.88-3.65-10.43-5.06-16.63-4.64-8.92.6-15.87,7.05-18.64,15.45-2.15,6.55-1.95,12.87.91,19.25,2.56,5.71,7.31,10.53,13.79,12.26Z"/>
        <path class="cls-2" d="M1500.55,334l-.05-59.48h-20.66c-1.12,0-1.87-.76-1.87-1.87v-10.07c.01-1.12.69-1.9,1.92-1.9h57.98s.09,12.95.09,12.95c-.58.8-1.46.89-2.45.89l-20.16.09-.06,59.34-14.73.06Z"/>
        <path class="cls-2" d="M870.18,333.79l-14.78.15-.09-58.75c0-.96-8.48-1.45-13.35-.78l-7.17.06c-3.34.03-1.39-6.37-1.49-9l-.18-4.76,59.56-.02-.02,13.65-14.71.08c-1.57,0-2.85-.6-4.53-.02l-3.22.26-.02,59.15Z"/>
        <rect class="cls-2" x="1579.28" y="260.66" width="14.74" height="73.38"/>
        <path class="cls-6" d="M407.65,329.46l-15.04-1-5.75-.42-6.24-.51-10.56-.22c-1.9-.04-3.63-.07-5.69-1.02l9.52-1.32,7.81-.32,12.12-.41,32.23-.1,11.22.72,7.42.73c3.5.34,7.02-.2,10.45,1.79-2.72.74-5.32.6-7.79.46-5.02-.29-9.05,3.17-13.47,4.09l-21.55-1.93-4.7-.54Z"/>
        <path class="cls-6" d="M470.09,317.1c-1.22,1.79-2.35,2.6-4.43,1.91-2.37-.78-5-.01-6.08,2.41-.7,1.58-1.72,2.19-3.73,2.1-.66,0-1.65,1.41-2.75.9,0-3.24,3.24-1.59,5.29-4.73s5.76-3.62,8.91-1.79c2.72-3.63,5.96-5.76,9.57-4.58s2.59,5.48,7,4.38c2-.5,2.67-5.33,7.15-4.73,2.76.37,3.19-3.21,5.3-3.74,3.22-.8,6.05.36,8.05,3.07,2-1.3,3.48-1.47,5.39-.6,1.35.61,3.27,1.49,3.21,4.02-2.83-2.84-6.01-3.58-9.6-1.53-.96-2.03-2.45-3.42-4.03-3.69-2.19-.38-3.87.67-4.88,2.54-1.45,2.71-5.27-.43-7.17,3.95-.61,1.42-1.85,3.34-3.52,3.53-.52-.94-1.33-1.43-2.75-1.54-1.52-.12-2.34-2.28-3.57-3.1-2.06-1.38-5.86-1.01-7.37,1.2Z"/>
        <path class="cls-6" d="M520.58,320.48c-3.4-4.19-6.92-.92-6.95-3.57l3.85-.16c1.95-.08,4.03,1.29,3.1,3.73Z"/>
        <g>
          <path class="cls-2" d="M1823.55,199.17c-12.24,11.28-32.92,17.86-49.19,18.01l-49.47.48c-6.82.07-14.19,1.78-17.52-3.52-1.38-2.2-1.53-5.01-.31-7.01,1.57-2.57,4.2-3.14,6.76-4.47,2.72-1.41,4.47-5.06,4.48-8.58l.13-95.61c0-2.87-.94-5.75-2.2-7.99s-4.01-2.62-6.18-3.42c-2.94-1.09-4.41-4.49-3.95-7.41.5-3.15,3.14-5.41,6.36-5.92l3.66.04,10.22.41,50.13.39c9.35.07,18.17,2.59,26.84,5.65,7.97,2.81,14.98,6.8,21.41,12.24s11.29,12.96,14.94,21.04c3.66,8.11,5.37,16.83,6.07,25.71v12.54c-1.32,18.01-8.87,35.18-22.17,47.44ZM1807.55,157.8l.02-19.92c-1.37-14.69-5.78-31.87-18.41-40.14-6.27-4.1-13.32-5.78-20.71-6.28-3.39-.23-6.7-.76-9.81,1.22-1.65,1.05-3.23,3.49-3.23,5.93l-.11,92.35c0,2.71.29,5.37,1.93,7.35,1.72,2.08,4.69,2.33,7.24,2.38,11.41.23,23.58-2.07,31.01-10.77s11.09-20.46,12.09-32.11Z"/>
          <path class="cls-2" d="M1597.76,213.24c-1.63,4.14-5.8,4.48-9.5,4.46l-21.55-.14c-3.12-.02-6.23.92-9.24.06s-5.24-3.36-5.57-6.27c-.36-3.19,1.36-6.26,4.52-7.53s5.71-3.38,6.6-6.89c.67-2.66,1.28-5.32,1.28-8.34l.02-89.61c0-2.25-.93-4.3-1.59-6.13-1.13-3.16-3.73-4.98-6.86-5.65-3.32-.71-5.53-3.2-5.76-6.48-.2-2.83,2.11-6.65,5.61-6.66l33.52-.08c1.49,0,3.13,1.14,4.03,2.28l36.2,46.25,18.74,24.96,11.91,15.75.6-7.72-.07-54.86c0-3.12-.73-6.12-1.9-8.74-1.24-2.78-3.72-4.07-6.47-4.64-4.04-.84-6.04-4.91-5.13-8.33,1.17-4.38,4.78-5.25,9.02-5.22l28.55.2c1.43.01,2.42-.39,3.84.05,2.96.92,4.45,3.09,4.5,6.26.13,7.63-6.76,6.56-8.63,9.24-1.69,2.43-3.02,5.3-3.02,8.56l.1,91.06.45,7.77c.31,5.34-.02,10.55-1.69,15.63-1.47,4.48-5.57,7.21-10.48,6.45-6.86-1.06-13.28-4.4-18.16-9.7l-21.2-26.72-44.37-58.31c-.78-.15-1.23.44-1.15,1.16l.15,66.48c0,3.68,1.46,7.25,3.9,9.53,1.54,1.44,3.45,2.12,5.29,2.96,3.35,1.54,4.97,5.23,3.5,8.94Z"/>
          <path class="cls-2" d="M933.49,186.85c-4.25,6.83-8.96,12.45-15.19,17.28-21,16.27-49,19.94-73.95,10.89-39.54-14.35-53.55-58.88-40.41-97.04,5.5-15.97,16.96-28.75,31.63-36.94,9.65-5.38,20.02-8.21,31.03-9.26l15.04-.04c14.29,1.2,27.41,6.54,38.49,15.68,8.03,6.63,13.7,15.14,18.1,24.59,3.94,8.47,5.61,17.41,6.53,26.71l.02,11.53c-.91,12.98-4.29,25.38-11.29,36.61ZM905.06,156.85v-18.02c-1.42-20.05-7.85-47.38-30.44-49.65-8.92-.89-16.97,1.84-22.79,8.65-3.99,4.67-7.03,10-8.85,16.04-3.53,11.72-5.04,23.57-4.36,35.89.88,16.02,4.85,36.17,16.95,46.6,9.8,8.44,24.03,8.29,33.66.31,10.91-9.04,14.85-25.93,15.83-39.83Z"/>
          <path class="cls-2" d="M1239.77,217.62c-2.75.75-5.12-.06-7.69-.06h-35.43c-3.62,0-7.08.85-10.58-.06-3.17-.83-5.34-3.15-5.72-6.15-.79-6.31,6.62-7.05,8.41-9.82.97-1.49.98-3.47,0-5.08l-14.58-23.72-5.31-8.63c-.21-.33-.61-.79-.86-.84-.37-.08-.98.25-1.34.78l-20.77,30.94c-1.24,1.85-1.47,3.82-.8,5.95,1.17,3.73,8.69,3.81,8.66,10.04-.02,3.02-1.97,5.18-4.8,6.37-2.53,1.06-4.93.26-7.58.26h-25.79c-4.61,0-11.83,1.81-13.74-5.62-.61-2.38.48-5.9,3.33-7.36,10-5.14,17.81-12.51,23.99-22.04l17.64-24.51,7.06-9.29c1.09-1.44,1.55-3.04.42-4.7l-29.47-42.84-5.18-6.39c-2.76-3.41-5.78-5.97-10-7.31-2.46-.78-3.48-3.03-3.74-5.43-.39-3.64,1.49-6.81,5.29-7.81l10.74-.03,30.1.06,8.63-.4c2.43-.11,4.44,0,6.25,1.67,1.6,1.48,2.6,3.49,2.49,6.06-.26,5.97-5.54,5.19-6.79,8.52-.53,1.4-.58,3.08.39,4.58l17.45,27.18,18.77-28.04c1.43-2.14-.33-5.4-2.54-5.98-3.37-.89-5.33-3.3-5.67-6.64-.31-3.13,1.93-6.44,5.21-7.16,2.62-.57,5.08.25,7.63.23l18.02-.12,12.26-.21c2.38-.04,4.67,1.77,5.49,3.98,1.11,3,.4,6.93-2.39,8.65-3.52,2.17-7.28,3.69-10.42,6.45l-3.08,2.71-22.06,28.73-9.57,13.41,14.79,22.75,20.82,31.93c3.46,5.31,8.35,8.86,14.02,11.41,2.79,1.25,4.12,3.72,3.94,6.77-.2,3.36-2.54,5.95-5.89,6.86Z"/>
          <path class="cls-2" d="M1487.64,193.13l-5.67-16.97h-48.53c-4.15,10.97-10.28,22.86,1.09,27.95,3.03,1.26,5.05,3.67,4.93,6.9-.09,2.41-2.2,6.29-5.21,6.32l-29.76.24c-3.14.02-6.26.86-9.23.02-4.16-1.19-6.14-4.99-4.98-9.34.71-2.66,3.74-4.18,6.19-5.51,5.12-2.78,8.1-7.66,10.13-12.95l4.53-11.81,7.73-20.55,4.89-13.43,17.02-47.69c.75-2.09.99-4.06-.06-5.96-2.44-4.39-9.93-1.3-10.78-8.81-.38-3.37,1.53-7.52,5.28-7.48l13.14.15h15.44s14.1-.13,14.1-.13c4.01-.04,6.84,3.59,8.07,7.21l7.93,23.22,6.47,18.57,19.75,54.99,7.2,18.8c2.6,6.79,13.45,5.64,13.49,13.64.02,3.01-1.93,5.76-5.11,6.61-4.39,1.18-8.76.56-13.3.54l-30.55-.11c-2.72,0-5.22.78-7.89.13-3.29-.81-5.59-3.11-5.88-6.38-.64-7.32,7.92-7.25,9.93-11.11,1.14-2.18.44-4.65-.37-7.05ZM1473.08,158.83c.88,0,1.5-.46,1.74-.91.29-.54.31-1.17.13-1.81l-3.67-10.75-14.07-40.47-13.82,40.09-4.26,12.42c-.28.81,1.11,1.44,1.84,1.44l32.11-.02Z"/>
          <path class="cls-2" d="M1081.68,74.3c3.2.01,6.16-.9,9.1-.06,2.31.66,4.01,3.14,4.43,4.94.62,2.63-.1,5.29-1.99,6.99l-5.17,2.61c-4.18,3.15-5.9,8.41-5.92,13.84l-.36,72.44c-.04,8.61-5.31,21.17-11.28,27.61-10.67,11.51-24.08,16.39-39.66,17.44h-15.43c-11.21-.01-28.35-6.64-36.65-15.15-8.38-8.6-11.97-17.8-13.2-29.73l.07-8.78v-67.28c0-4.26-1.48-8.42-4.88-10.57l-5.89-2.39c-2.26-1.67-2.81-4.58-2.16-7.32.5-2.12,2.57-4.91,5.41-4.88l16.96.16h16.88s15.56-.23,15.56-.23c3.81-.05,6.15,3.06,6.34,6.66.16,3.22-1.28,5.87-4.53,6.7-4.12,1.05-7.6,4.52-7.59,9.2l.19,74.14c.01,5.06,1.64,9.87,3.54,14.27,1.34,3.12,3.97,5.8,6.65,7.69,9.7,6.81,28.31,6.23,38.51-.28,6.67-4.26,11.36-11.4,11.38-19.76l.16-71.18c0-3.47-1.2-7-2.75-9.73-1.47-2.59-4.39-3.37-6.72-4.87s-3.28-4.5-2.7-7.06c.52-2.33,1.97-4.96,4.76-5.57,2.96-.64,6.04.05,9.06.06l17.88.07Z"/>
          <path class="cls-2" d="M629.13,215.08c-1.76-.66-3.6-1.33-5.03-.85-2.03.67-3.27,2.77-5.72,2.99-2.06.19-6.23-1.66-6.7-4.17l-4.39-23.44-1.59-12.88c-.6-4.87,2.46-8.69,7.2-8.85,3.67-.12,6.47,1.39,7.94,4.8,2.34,5.44,4.83,10.78,8.26,15.68l4.72,5.36c9.79,11.13,33.92,12.11,43.42,2.19,4.53-4.72,5.51-10.9,2.87-16.85-1.78-4.01-5.03-6.96-9.17-8.6l-21.95-8.7c-11.71-4.64-24.01-8.56-32.78-18.64-16.26-18.69-10.81-48.34,11.55-62.07,16.93-10.39,37.67-11.42,56.35-4.83l4.58,2.13c2.16,1,3.46,1.06,5.62.22,3.48-1.37,7.6.74,8.36,4.62l5.35,27.16c.5,2.56-.36,4.96-1.91,6.55s-3.75,2.62-6.33,2.22c-3.19-.5-5.92-2.67-7.41-5.52-2.57-4.92-5.89-8.96-9.31-13.24-4.19-5.25-9.67-8.67-16.41-9.63-9.88-1.4-20.44.59-24.99,9.49-2.34,4.59-2.26,10.64.61,14.95,5.24,7.89,19.68,12.67,29.08,16.07,24.1,8.73,41.87,16.47,42.54,44.95.25,10.88-3.47,20.99-11.58,28.43-19.23,17.65-48.84,19.58-73.17,10.47Z"/>
          <path class="cls-2" d="M1369.72,207.78c-.69,5.32-3.18,9.31-8.77,9.91-2.97.32-6.55.03-9.68.03h-6.87s-15.16.01-15.16.01c-3,0-6.09-.65-9.02-.03-2.45.51-4.6-.13-7.01-.12l-29.47.09h-16.73c-4,0-6.39-3.32-6.6-6.69-.23-3.67,2.05-6.47,5.81-7.51,3.04-.84,5.71-2.83,6.32-6.13l.91-4.93-.07-96.15c0-4.87-3.33-8.07-7.56-8.89-2.86-.56-5.03-2.46-5.38-5.22-.47-3.65,1.32-8.11,5.37-8.08l19.35.13h19.28s13.71-.12,13.71-.12c2.79-.02,4.92,3.54,5.12,5.93.24,2.93-1.36,6.31-4.55,7.01-4.3.95-8.67,3.97-8.69,9.14l-.31,83.07-.45,8.88c-.17,3.44-.63,6.76,1.64,9.7,1.29,1.68,3.51,2.43,5.73,2.4l17.09-.24c3.07-.04,6.23-.88,8.67-2.94,8.08-6.84,13.92-15.76,18.08-25.46.97-2.26,3.13-3.63,5-3.99,2.46-.47,4.72.65,6.23,2.47,2.33,2.8,2.16,6.06,1.71,9.5l-3.66,28.24Z"/>
          <path class="cls-2" d="M779.77,217.89l-15.62-.15-10.1-.05-19,.02c-3.78,0-5.82-3.66-5.96-6.7-.37-7.99,8.59-6.08,10.59-11.35,1.57-4.15,1.95-8.35,1.95-13.01v-86.74c0-4.13-1.01-8.27-4-10.95l-5.89-2.82c-3.34-2.77-3.01-8.1.1-10.8,2.79-2.43,5.64-1.56,8.87-1.55l41.62.04c2.31,0,4.23-.21,6.06,1.16,1.91,1.44,2.25,3.62,2.3,6.17.06,2.92-1.22,5.5-4.55,6.26-3.89.89-7.92,4.45-7.93,9.41l-.09,97.35c0,2.59,1.31,5.38,2.7,6.98,2.1,2.43,8.5,2.27,9.63,8.55.45,2.51-.63,5.15-2.89,6.65-2.05,1.36-4.98,1.54-7.77,1.52Z"/>
          <path class="cls-1" d="M1807.55,157.8c-1,11.65-4.46,23.17-12.09,32.11s-19.59,11.01-31.01,10.77c-2.55-.05-5.52-.3-7.24-2.38s-1.93-4.64-1.93-7.35l.11-92.35c0-2.44,1.58-4.88,3.23-5.93,3.11-1.98,6.42-1.45,9.81-1.22,7.39.5,14.44,2.18,20.71,6.28,12.63,8.26,17.04,25.44,18.41,40.14l-.02,19.92Z"/>
          <path class="cls-1" d="M905.06,156.85c-.98,13.9-4.92,30.79-15.83,39.83-9.63,7.97-23.86,8.12-33.66-.31-12.1-10.42-16.07-30.57-16.95-46.6-.68-12.33.83-24.17,4.36-35.89,1.82-6.04,4.86-11.37,8.85-16.04,5.82-6.82,13.87-9.55,22.79-8.65,22.59,2.27,29.02,29.6,30.44,49.65v18.02Z"/>
          <path class="cls-1" d="M1473.08,158.83l-32.11.02c-.73,0-2.12-.63-1.84-1.44l4.26-12.42,13.82-40.09,14.07,40.47,3.67,10.75c.18.64.15,1.27-.13,1.81-.24.45-.86.91-1.74.91Z"/>
        </g>
        <path class="cls-1" d="M1203.76,307.59c-3.67,7.13-10.56,11.87-18.72,12.51l-16.77.15.05-45.68,18.4.21c10.86,1.32,18.16,9.53,18.92,20.14.31,4.35-.37,8.48-1.87,12.68Z"/>
        <path class="cls-1" d="M1318.67,298.09c-.33,6.66-1.94,11.22-6.6,16.17-6.03,6.4-15.21,8.73-23.79,5.57-7.79-2.87-13.43-9.91-14.61-18.77-1.87-14.02,6.69-27.29,21.85-27.59,4.92-.1,9.59.94,13.53,3.84,6.68,4.91,10.03,12.49,9.62,20.79Z"/>
        <g>
          <path class="cls-2" d="M694.66,297.04c0,21.22-17.2,38.41-38.41,38.41s-38.41-17.2-38.41-38.41,17.2-38.41,38.41-38.41,38.41,17.2,38.41,38.41ZM638.67,312.87c5.42,6.74,13.13,9.39,21.61,8.02,6.96-1.12,13.34-6.01,16.63-13.22,4.31-9.46,2.42-21.16-5.07-28.56-8.39-8.3-24.11-8.43-32.68,1.6-7.59,8.88-8.02,22.8-.49,32.16Z"/>
          <path class="cls-1" d="M638.67,312.87c-7.53-9.36-7.1-23.28.49-32.16,8.57-10.03,24.28-9.89,32.68-1.6,7.49,7.4,9.39,19.1,5.07,28.56-3.28,7.21-9.66,12.1-16.63,13.22-8.49,1.36-16.19-1.29-21.61-8.02Z"/>
        </g>
        <path class="cls-1" d="M1097.18,297.62c-.63,11.85-8.44,22.13-20.48,23.48-7.84.88-15.07-1.83-20.13-7.84-6.03-7.18-7.19-17.26-3.71-25.87,2.49-6.16,6.92-10.78,13.17-12.85,13.67-4.53,26.77,2.22,30.2,16.42.51,2.1,1.06,4.38.94,6.67Z"/>
        <g>
          <path class="cls-2" d="M794.44,333.84l-10.11.18c-1.43.03-2.55-.95-3.03-2.21l-15.13-22.1-13.99-.02-.2,23.29c0,.69-1.66,1.05-2.3,1.05l-12.38-.1v-73.25s37.65.24,37.65.24c7.55.05,14.14,3.97,18.73,9.47,3.53,5.23,5.04,11.17,4.25,17.32-1.19,9.36-7.14,16.6-16.57,19.37l10.95,16.09,6.2,8.68c.48.29.56.74.68,1.03.53,1.24-1.35.9-4.77.97ZM771.93,296.41c4.08-.06,8.09-2.79,9.7-6.1,1.76-3.59,1.82-7.56-.23-10.95-1.67-2.75-4.8-5.16-8.7-5.19l-20.5-.12-.43,3.93.02,11.95.3,6.8,19.83-.32Z"/>
          <path class="cls-1" d="M771.93,296.41l-19.83.32-.3-6.8-.02-11.95.43-3.93,20.5.12c3.89.02,7.03,2.43,8.7,5.19,2.05,3.39,1.99,7.36.23,10.95-1.62,3.31-5.63,6.03-9.7,6.1Z"/>
        </g>
      </g>
    </g>
  </g>
</svg>