<?xml version="1.0" encoding="UTF-8"?>
<svg id="Layer_1" xmlns="http://www.w3.org/2000/svg" version="1.1" viewBox="0 0 210.67 77.33">
  <!-- Generator: Adobe Illustrator 30.1.0, SVG Export Plug-In . SVG Version: 2.1.1 Build 136)  -->
  <path d="M35.84,23.78c4.63-.02,8.24-3.15,8.64-7.67.17-1.91.15-4.01.02-5.96-.3-4.57-4.01-7.7-8.49-7.84-4.92-.16-9.12,3.35-9.11,8.37v4.65c.02,4.88,3.91,8.47,8.94,8.45ZM141.33,23.78c4.61.09,8.55-3.07,8.86-7.84.11-1.68.08-3.53.05-5.25-.1-4.96-4.03-8.44-8.91-8.38-4.37.05-8.06,2.9-8.61,7.39-.27,2.23-.28,4.7.03,6.93.61,4.37,4.33,7.06,8.58,7.15ZM18.53,15.19l-.02-4.48c-.02-4.24-3.46-7.98-7.82-8l-8.27-.02v20.76s7.6,0,7.6,0c4.61,0,8.54-3.45,8.52-8.26ZM72.74,2.73l-2.76,13.21-3.69-13.22-3.42.03-3.7,13.44-2.79-13.53-4.61.08,4.75,20.67c1.72.03,3.19.02,4.58-.09l3.46-12.77,3.6,12.92,4.52-.09,4.74-20.71-4.69.05ZM102.46,23.36V2.68s-4.78-.01-4.78-.01l-.13,13.13-7.61-13.1-4.86-.03v20.78s4.82-.03,4.82-.03l.19-12.94,7.52,12.95,4.85-.07ZM120.17,23.39V6.34s5.5,0,5.5,0v-3.67s-15.74,0-15.74,0l-.04,3.67h5.45s0,17.09,0,17.09l4.84-.03ZM178.45,2.72l-2.77,13.24-3.71-13.28h-3.36s-3.74,13.49-3.74,13.49l-2.78-13.52-4.62.09,4.74,20.66,4.58-.05,3.51-12.44,3.56,12.55,4.52-.07,4.73-20.72-4.67.04ZM208.13,23.35V2.68s-4.78-.01-4.78-.01l-.13,13.12-7.59-13.11-4.89.03v20.7s4.85.02,4.85.02l.09-13.21,7.63,13.21,4.81-.07ZM111.71,36.27c-1.9,2.62-4.14,4.09-7.05,4.06s-4.96-1.74-6.74-4.04c-.8.44-1.53.95-2.15,1.54,2.58,3.77,6.65,5.93,11.09,4.98,3.01-.65,5.34-2.55,7.05-5.03-.77-.6-1.47-1.08-2.21-1.51ZM16.84,69.37c.26-2.38.28-4.93-.03-7.14-.59-4.18-4.05-6.81-7.96-6.69s-7.02,3-7.39,7.25c-.18,2.05-.19,4.37.02,6.43.42,4.31,3.66,7.17,7.7,7.15s7.19-2.64,7.68-6.99ZM45.54,75.78v-18.49s6.52-.05,6.52-.05c.45,0,.42-1.4-.03-1.4h-14.84c-.36,0-.29,1.39.07,1.39l6.61.07.03,18.66,1.65-.17ZM70.53,75.69v-19.56c-.3-.31-1.22-.32-1.61-.1l-.08,9.31-11.37-.02-.05-9.3c-.43-.19-1.32-.18-1.67.07v19.76s1.68.13,1.68.13l.05-9.19,11.38.02.04,8.89c0,.39,1.64.41,1.64,0ZM90.44,69.26c.24-2.34.23-4.74-.05-6.92-.61-4.73-4.77-7.54-9.43-6.62-6.57,1.3-6.68,9.29-5.76,14.47.72,4.01,4.19,6.39,7.95,6.16s6.86-2.89,7.29-7.09ZM109.15,69.03c.29-1.97.24-3.83.08-5.68-.36-4.18-3.84-7.45-8.02-7.48l-6.32-.05-.02,20.18c2.55,0,4.73.04,7.12-.08,3.62-.19,6.6-3.2,7.15-6.88ZM128.17,69.22c.2-2.15.21-4.57-.03-6.7-.49-4.2-3.75-6.94-7.65-6.99s-7.21,2.69-7.69,6.93c-.24,2.15-.22,4.58-.03,6.76.36,4.3,3.7,7.17,7.71,7.15s7.29-2.84,7.69-7.15ZM147.55,75.61l-.02-19.57c-.32-.28-1.61-.25-1.62.17l-.13,16.85-11.37-17.1c-.57-.05-1.26-.05-1.75.01v19.98s1.65,0,1.65,0l.03-17.4,11.15,16.9c.42.64,1.7.77,2.05.14ZM159,75.89v-18.61s6.86-.06,6.86-.06l-.11-1.39h-14.94c-.45,0-.49,1.38-.1,1.38l6.61.07v18.69s1.68-.08,1.68-.08ZM171.26,75.9v-19.82c-.38-.24-1.21-.25-1.7-.03v19.89s1.7-.04,1.7-.04ZM178,69.77c-.66-4.56-.84-11.64,4.58-12.72,3.51-.7,6.23,1.67,6.64,4.7.07.45,1.41.5,1.53.21.01-3.42-2.61-6.07-6.08-6.38-3.96-.36-7.38,1.88-8.23,5.97-.58,2.8-.58,6.12.01,8.9.88,4.13,4.28,6.12,8.19,5.92,3.34-.17,6.05-3.43,6.08-6.14,0-.39-1.02-.66-1.18-.46-.84,1.07-.54,4.66-5.04,5.13-3.12.33-6-1.56-6.52-5.12ZM205.51,75.41c2.04-.99,2.97-2.86,2.8-4.88-.15-1.77-1.35-3.56-3.35-4.26l-6.52-2.27c-1.39-.49-2.38-1.88-2.39-3.15s.71-2.55,1.93-3.16c2.11-1.06,4.46-.98,6.59.14,1.14.6,1.82,2.38,2.03,3.47.07.37,1.39.38,1.42,0,.16-1.71-1.07-3.78-2.67-4.66-2.7-1.48-6.02-1.5-8.63.09-1.71,1.04-2.52,2.79-2.31,4.67.19,1.68,1.39,3.28,3.28,3.94l6.37,2.23c1.64.57,2.65,2.08,2.6,3.58s-.97,2.71-2.58,3.29c-2.85,1.03-8.14.64-8.73-3.78-.05-.4-1.4-.42-1.44,0-.16,1.83,1.02,3.65,2.64,4.51,2.71,1.44,6.03,1.66,8.93.25ZM33.86,75.74c.18.3,1.75.28,1.75.19-1.91-3.88,1.06-7.91-4.07-9.74,2.51-1.13,3.65-3.31,3.28-5.79s-2.44-4.41-5.16-4.44l-8.32-.07v20.07s1.62-.05,1.62-.05l.03-9,6.34.05c2.48.02,4.08,1.98,3.85,4.4-.12,1.25.14,3.44.69,4.37Z" fill="#fff"/>
  <path d="M72.74,2.73l4.69-.05-4.74,20.71-4.52.09-3.6-12.92-3.46,12.77c-1.39.11-2.87.12-4.58.09l-4.75-20.67,4.61-.08,2.79,13.53,3.7-13.44,3.42-.03,3.69,13.22,2.76-13.21Z"/>
  <polygon points="178.45 2.72 183.12 2.69 178.38 23.4 173.86 23.47 170.3 10.91 166.79 23.35 162.22 23.4 157.47 2.75 162.09 2.65 164.87 16.17 168.61 2.69 171.98 2.69 175.68 15.97 178.45 2.72"/>
  <polygon points="208.13 23.35 203.31 23.42 195.69 10.22 195.6 23.43 190.75 23.41 190.75 2.7 195.64 2.68 203.22 15.78 203.35 2.67 208.11 2.68 208.13 23.35"/>
  <polygon points="102.46 23.36 97.61 23.43 90.09 10.48 89.9 23.41 85.08 23.45 85.09 2.67 89.94 2.7 97.55 15.8 97.68 2.67 102.45 2.68 102.46 23.36"/>
  <path d="M18.53,15.19c.02,4.81-3.91,8.26-8.52,8.26H2.42s-.01-20.76-.01-20.76l8.27.02c4.36.01,7.8,3.76,7.82,8l.02,4.48ZM13.61,10.05c-.11-1.79-1.5-3.5-3.32-3.63-1-.07-1.92-.07-3.03-.08v13.31c1.33.06,2.52.1,3.62-.14,3.53-.76,2.91-6.59,2.73-9.47Z"/>
  <path d="M141.33,23.78c-4.25-.09-7.97-2.78-8.58-7.15-.31-2.23-.3-4.7-.03-6.93.54-4.49,4.23-7.34,8.61-7.39,4.88-.06,8.8,3.42,8.91,8.38.04,1.72.06,3.57-.05,5.25-.31,4.77-4.25,7.93-8.86,7.84ZM145.26,9.44c-.3-2.21-2.16-3.48-4.09-3.39-1.79.09-3.42,1.52-3.6,3.6-.33,3.84-.98,10.42,3.92,10.39s4.22-7.15,3.76-10.61Z"/>
  <path d="M35.84,23.78c-5.03.02-8.92-3.57-8.93-8.45v-4.65c-.02-5.02,4.18-8.52,9.1-8.37,4.48.14,8.2,3.27,8.49,7.84.13,1.94.15,4.04-.02,5.96-.4,4.52-4.02,7.65-8.64,7.67ZM39.62,9.71c-.19-2.19-1.92-3.63-3.8-3.67-2.02-.04-3.67,1.31-3.95,3.52-.44,3.51-1.03,10.57,3.97,10.49,4.74-.08,4.09-6.72,3.78-10.34Z"/>
  <polygon points="120.17 23.39 115.33 23.42 115.34 6.33 109.89 6.33 109.93 2.67 125.66 2.67 125.67 6.33 120.18 6.34 120.17 23.39"/>
  <path d="M147.55,75.61c-.35.63-1.63.5-2.05-.14l-11.15-16.9-.03,17.4h-1.66s0-19.99,0-19.99c.49-.06,1.19-.06,1.75-.01l11.37,17.1.13-16.85c0-.42,1.3-.45,1.62-.17l.02,19.57Z"/>
  <path d="M33.86,75.74c-.55-.92-.81-3.11-.69-4.37.23-2.42-1.37-4.38-3.85-4.4l-6.34-.05-.03,9-1.62.05v-20.07s8.32.07,8.32.07c2.72.02,4.8,2.01,5.16,4.44s-.76,4.66-3.28,5.79c5.13,1.83,2.17,5.86,4.07,9.74,0,.1-1.57.11-1.75-.19ZM29.15,65.42c2.69-.03,4.13-2.02,4.08-4.17-.05-2.27-1.74-3.91-4.23-3.92l-6.02-.03v8.18s6.18-.06,6.18-.06Z"/>
  <path d="M109.15,69.03c-.55,3.68-3.53,6.7-7.15,6.88-2.4.12-4.57.09-7.12.08l.02-20.18,6.32.05c4.18.03,7.65,3.3,8.02,7.48.16,1.85.21,3.71-.08,5.68ZM107.52,68.75c.24-1.93.26-3.87,0-5.59-.48-3.31-3.18-5.88-6.48-5.88h-4.46s0,17.39,0,17.39l4.45-.04c3.23-.03,6.06-2.51,6.48-5.89Z"/>
  <path d="M128.17,69.22c-.4,4.31-3.69,7.13-7.69,7.15s-7.35-2.85-7.71-7.15c-.18-2.17-.21-4.61.03-6.76.48-4.24,3.75-6.98,7.69-6.93s7.16,2.78,7.65,6.99c.25,2.13.23,4.55.03,6.7ZM126.49,69.42c.26-2.28.31-4.91-.04-7.18-.51-3.36-3.21-5.36-6.29-5.27s-5.33,2.25-5.71,5.54c-.25,2.22-.26,4.75,0,6.97.39,3.39,2.97,5.46,6.04,5.45s5.6-2.13,5.99-5.51Z"/>
  <path d="M90.44,69.26c-.42,4.2-3.51,6.85-7.29,7.09s-7.23-2.15-7.95-6.16c-.92-5.18-.81-13.17,5.76-14.47,4.65-.92,8.81,1.89,9.43,6.62.28,2.18.28,4.58.05,6.92ZM83.12,74.91c6.53-.41,6.16-7.91,5.6-12.54-.41-3.43-3.06-5.43-6.21-5.38-2.92.04-5.4,2.13-5.76,5.43-.27,2.46-.31,5.26.1,7.64.54,3.16,3.06,5.05,6.27,4.85Z"/>
  <path d="M16.84,69.37c-.48,4.35-3.79,6.97-7.68,6.99s-7.28-2.83-7.7-7.15c-.2-2.06-.2-4.37-.02-6.43.38-4.25,3.45-7.13,7.39-7.25s7.38,2.51,7.96,6.69c.31,2.21.3,4.76.03,7.14ZM15.19,69.35c.23-2.25.25-4.75,0-6.82-.4-3.4-2.97-5.57-6.03-5.57s-5.67,2.14-6.03,5.57c-.23,2.11-.21,4.56-.01,6.68.33,3.5,2.85,5.76,6.04,5.73s5.65-2.03,6.02-5.59Z"/>
  <path d="M70.53,75.69c0,.42-1.63.4-1.64,0l-.04-8.89-11.38-.02-.05,9.19-1.69-.13v-19.76c.36-.24,1.25-.26,1.68-.07l.05,9.3,11.37.02.08-9.31c.39-.22,1.32-.21,1.62.1v19.56Z"/>
  <path d="M205.51,75.41c-2.89,1.41-6.22,1.19-8.93-.25-1.62-.86-2.8-2.68-2.64-4.51.04-.42,1.38-.4,1.44,0,.59,4.42,5.88,4.81,8.73,3.78,1.6-.58,2.53-1.77,2.58-3.29s-.96-3-2.6-3.58l-6.37-2.23c-1.88-.66-3.09-2.26-3.28-3.94-.21-1.88.6-3.63,2.31-4.67,2.61-1.59,5.92-1.57,8.63-.09,1.6.88,2.82,2.95,2.67,4.66-.04.38-1.35.37-1.42,0-.22-1.1-.9-2.87-2.03-3.47-2.13-1.12-4.48-1.2-6.59-.14-1.22.61-1.95,1.9-1.93,3.16s1,2.66,2.39,3.15l6.52,2.27c2,.7,3.2,2.49,3.35,4.26.17,2.02-.76,3.89-2.8,4.88Z"/>
  <path d="M178,69.77c.52,3.57,3.39,5.45,6.52,5.12,4.5-.47,4.2-4.06,5.04-5.13.16-.2,1.18.07,1.18.46-.03,2.71-2.73,5.97-6.08,6.14-3.91.2-7.31-1.79-8.19-5.92-.59-2.77-.59-6.1-.01-8.9.85-4.08,4.27-6.33,8.23-5.97,3.46.32,6.09,2.96,6.08,6.38-.12.29-1.46.24-1.53-.21-.41-3.03-3.13-5.4-6.64-4.7-5.43,1.08-5.25,8.16-4.58,12.72Z"/>
  <path d="M159,75.89l-1.67.08v-18.69s-6.63-.07-6.63-.07c-.39,0-.35-1.37.1-1.37h14.94s.11,1.38.11,1.38l-6.87.06v18.61Z"/>
  <path d="M45.54,75.78l-1.65.17-.03-18.66-6.61-.07c-.36,0-.43-1.39-.07-1.39h14.84c.45,0,.47,1.39.03,1.4l-6.51.05v18.49Z"/>
  <path d="M111.71,36.27c.74.43,1.45.91,2.21,1.51-1.71,2.49-4.04,4.39-7.05,5.03-4.45.95-8.51-1.21-11.09-4.98.62-.59,1.34-1.11,2.15-1.54,1.77,2.3,3.86,4.02,6.74,4.04s5.15-1.44,7.05-4.06Z"/>
  <path d="M171.26,75.9l-1.71.04v-19.89c.5-.21,1.33-.21,1.7.03v19.82Z"/>
  <path d="M13.61,10.05c.18,2.87.8,8.71-2.73,9.47-1.11.24-2.3.19-3.62.14V6.35c1.11,0,2.03,0,3.03.08,1.82.13,3.21,1.84,3.32,3.63Z" fill="#fff"/>
  <path d="M145.26,9.44c.46,3.45,1.05,10.58-3.76,10.61s-4.25-6.56-3.92-10.39c.18-2.08,1.81-3.52,3.6-3.6,1.93-.09,3.79,1.18,4.09,3.39Z" fill="#fff"/>
  <path d="M39.62,9.71c.31,3.62.96,10.26-3.78,10.34-5,.08-4.41-6.98-3.97-10.49.28-2.21,1.93-3.56,3.95-3.52,1.88.04,3.62,1.48,3.8,3.67Z" fill="#fff"/>
  <path d="M29.15,65.42l-6.18.06v-8.18s6.03.03,6.03.03c2.49.01,4.18,1.65,4.23,3.92.05,2.15-1.39,4.15-4.08,4.17Z" fill="#fff"/>
  <path d="M107.52,68.75c-.42,3.38-3.25,5.86-6.48,5.89l-4.45.04v-17.39s4.46,0,4.46,0c3.3,0,6,2.56,6.48,5.88.25,1.72.23,3.66,0,5.59Z" fill="#fff"/>
  <path d="M126.49,69.42c-.39,3.38-2.9,5.49-5.99,5.51s-5.65-2.05-6.04-5.45c-.26-2.22-.25-4.75,0-6.97.38-3.29,2.69-5.46,5.71-5.54s5.77,1.91,6.29,5.27c.35,2.27.3,4.89.04,7.18Z" fill="#fff"/>
  <path d="M83.12,74.91c-3.21.2-5.73-1.69-6.27-4.85-.41-2.39-.37-5.19-.1-7.64.36-3.3,2.84-5.39,5.76-5.43,3.15-.04,5.8,1.96,6.21,5.38.56,4.64.93,12.13-5.6,12.54Z" fill="#fff"/>
  <path d="M15.19,69.35c-.37,3.55-2.99,5.56-6.02,5.59-3.19.03-5.72-2.24-6.04-5.73-.2-2.12-.21-4.57.01-6.68.37-3.42,2.92-5.57,6.03-5.57s5.62,2.18,6.03,5.57c.25,2.07.23,4.57,0,6.82Z" fill="#fff"/>
</svg>